<?xml version="1.0" encoding="UTF-8" standalone="no"?>
<svg
   xmlns:dc="http://purl.org/dc/elements/1.1/"
   xmlns:cc="http://creativecommons.org/ns#"
   xmlns:rdf="http://www.w3.org/1999/02/22-rdf-syntax-ns#"
   xmlns:svg="http://www.w3.org/2000/svg"
   xmlns="http://www.w3.org/2000/svg"
   xmlns:sodipodi="http://sodipodi.sourceforge.net/DTD/sodipodi-0.dtd"
   xmlns:inkscape="http://www.inkscape.org/namespaces/inkscape"
   width="210mm"
   height="297mm"
   viewBox="0 0 210 297"
   version="1.1"
   id="svg75"
   inkscape:version="1.0.1 (3bc2e813f5, 2020-09-07)"
   sodipodi:docname="openshift.svg">
  <defs
     id="defs69" />
  <sodipodi:namedview
     id="base"
     pagecolor="#ffffff"
     bordercolor="#666666"
     borderopacity="1.0"
     inkscape:pageopacity="0.0"
     inkscape:pageshadow="2"
     inkscape:zoom="0.35"
     inkscape:cx="400"
     inkscape:cy="560"
     inkscape:document-units="mm"
     inkscape:current-layer="layer1"
     inkscape:document-rotation="0"
     showgrid="false"
     inkscape:window-width="1510"
     inkscape:window-height="1017"
     inkscape:window-x="201"
     inkscape:window-y="31"
     inkscape:window-maximized="0" />
  <metadata
     id="metadata72">
    <rdf:RDF>
      <cc:Work
         rdf:about="">
        <dc:format>image/svg+xml</dc:format>
        <dc:type
           rdf:resource="http://purl.org/dc/dcmitype/StillImage" />
        <dc:title></dc:title>
      </cc:Work>
    </rdf:RDF>
  </metadata>
  <g
     inkscape:label="Layer 1"
     inkscape:groupmode="layer"
     id="layer1">
    <path
       d="m 61.065252,138.35212 -32.004267,12.68392 c 0.411124,5.58878 1.293673,11.10932 2.537225,16.51896 l 30.39814,-12.05869 c -0.974163,-5.58877 -1.32264,-11.36179 -0.924055,-17.14505 M 202.49515,99.804745 c -2.23182,-5.014717 -4.8137,-9.861394 -7.80434,-14.429146 l -31.99486,12.683937 c 3.72362,4.148934 6.84661,8.811354 9.40262,13.797924 l 30.39735,-12.054425 v 0.002 z"
       fill="#da2430"
       id="path2"
       style="stroke-width:0.817293" />
    <path
       d="m 145.72553,99.599168 c -4.02508,-3.804316 -8.57174,-7.088321 -13.6321,-9.659228 h -9e-4 C 102.38194,74.85229 66.931265,88.889058 53.079899,121.26336 a 57.930158,63.10063 0 0 0 -2.077548,5.53333 c -1.729072,5.47874 -2.739257,11.08031 -3.125322,16.6725 l -0.112763,0.0461 -0.0089,0.12282 -19.260985,7.63424 -12.393246,4.98914 -0.0056,-0.0752 -0.339865,0.13476 c -1.203055,-16.5778 1.362361,-33.70323 8.263768,-49.82384 a 92.367498,100.61162 0 0 1 2.887265,-6.18075 C 49.658706,54.156244 101.42904,34.86166 145.08965,57.385658 a 90.301691,98.361441 0 0 1 23.92903,17.975866 91.306402,99.455829 0 0 1 12.3572,15.302602 l -31.99487,12.687344 a 62.404755,67.974601 0 0 0 -0.49724,-0.54677 l -0.0886,0.0349 a 61.559014,67.053374 0 0 0 -3.06894,-3.239646 z"
       fill="#da2430"
       id="path4"
       style="stroke-width:0.817293" />
    <path
       d="m 17.541673,212.56461 -0.0501,0.0194 A 92.721452,100.99718 0 0 1 3.1938397,178.82891 l 30.4036373,-12.06127 0.0016,0.002 0.01776,0.10662 0.197414,-0.0794 0.0059,0.0129 c 1.561494,9.00755 4.81213,17.6014 9.552187,25.15801 a 58.956791,64.218894 0 0 0 6.047046,7.955 l -0.120749,0.0487 0.230266,0.26275 -31.705891,12.76923 c -0.09397,-0.14573 -0.187943,-0.29242 -0.281145,-0.44017 z"
       fill="#e82429"
       id="path6"
       style="stroke-width:0.817293" />
    <path
       d="m 138.29788,203.65175 c -16.4849,11.10333 -37.63,13.24861 -56.471257,3.67807 A 58.840894,64.092653 0 0 1 64.506168,193.94218 l -31.928302,12.66175 0.245066,0.37277 -0.01477,0.006 c 8.778484,13.66144 20.753563,25.08124 35.447531,32.66773 31.691828,16.34581 67.649137,10.66319 93.684647,-11.3311 11.65871,-9.51251 21.3918,-22.19133 27.96665,-37.5485 6.90611,-16.11723 9.45666,-33.23582 8.23423,-49.80085 l -0.88958,0.35313 c -0.0112,-0.17741 -0.0237,-0.35484 -0.0367,-0.53227 l -31.7075,12.75814 9.1e-4,0.003 a 59.873012,65.216892 0 0 1 -5.32976,22.57007 c -4.94521,11.73113 -12.6579,21.07561 -21.87965,27.52849 z"
       fill="#da2430"
       id="path8"
       style="stroke-width:0.817293" />
    <path
       d="m 173.60523,111.25866 0.47534,-0.18937 v -8.6e-4 a 92.195213,100.42397 0 0 1 8.96958,35.8724 l -31.9291,12.65322 0.0178,-0.25929 -0.60299,0.24312 c 0.86931,-12.8699 -1.78144,-25.66899 -7.38841,-36.78341 l 30.1867,-12.15508 9.1e-4,-0.003 c 0.0907,0.20726 0.18084,0.41454 0.27022,0.62268 z"
       fill="#e82429"
       id="path10"
       style="stroke-width:0.817293" />
    <path
       d="m 61.104408,138.14825 -31.777953,12.7914 c 0.407208,5.63826 1.284274,11.20486 2.520778,16.66057 l 30.185138,-12.1619 c -0.976503,-5.6485 -1.327349,-11.46245 -0.915444,-17.29349 M 201.54212,99.276738 c -2.21616,-5.057364 -4.78159,-9.944132 -7.75108,-14.551113 l -31.76933,12.791408 c 3.69622,4.184757 6.79726,8.886427 9.33448,13.916497 l 30.18201,-12.160202 0.006,0.0031 z"
       fill="#c22035"
       id="path12"
       style="stroke-width:0.817293" />
    <path
       d="m 29.324888,150.94221 31.701205,-12.64895 -0.129339,6.93735 -30.584501,12.58072 -0.991396,-6.87765 z M 162.0264,97.412112 194.22176,85.37816 l 3.34615,5.50092 -31.28148,12.04504 -4.25531,-5.514563 z"
       fill="#ac223b"
       id="path14"
       style="stroke-width:0.817293" />
    <path
       d="m 32.814348,206.85388 31.73879,-12.58072 9.599187,9.86479 -33.283854,13.61026 -8.052554,-10.89776 z m 164.932142,-65.96925 -32.2361,12.66174 -2.37432,14.05555 34.37156,-13.3433 0.24359,-13.37228 -0.004,-0.002 z"
       fill="#b92135"
       id="path16"
       style="stroke-width:0.817293" />
  </g>
</svg>
