<?xml version="1.0" encoding="UTF-8" standalone="no"?>
<svg
   xmlns:dc="http://purl.org/dc/elements/1.1/"
   xmlns:cc="http://creativecommons.org/ns#"
   xmlns:rdf="http://www.w3.org/1999/02/22-rdf-syntax-ns#"
   xmlns:svg="http://www.w3.org/2000/svg"
   xmlns="http://www.w3.org/2000/svg"
   xmlns:sodipodi="http://sodipodi.sourceforge.net/DTD/sodipodi-0.dtd"
   xmlns:inkscape="http://www.inkscape.org/namespaces/inkscape"
   width="256px"
   height="283px"
   viewBox="0 0 256 283"
   version="1.1"
   preserveAspectRatio="xMidYMid"
   id="svg8"
   sodipodi:docname="jest.svg"
   inkscape:version="1.0.1 (3bc2e813f5, 2020-09-07)">
  <metadata
     id="metadata14">
    <rdf:RDF>
      <cc:Work
         rdf:about="">
        <dc:format>image/svg+xml</dc:format>
        <dc:type
           rdf:resource="http://purl.org/dc/dcmitype/StillImage" />
      </cc:Work>
    </rdf:RDF>
  </metadata>
  <defs
     id="defs12" />
  <sodipodi:namedview
     pagecolor="#ffffff"
     bordercolor="#666666"
     borderopacity="1"
     objecttolerance="10"
     gridtolerance="10"
     guidetolerance="10"
     inkscape:pageopacity="0"
     inkscape:pageshadow="2"
     inkscape:window-width="1920"
     inkscape:window-height="1023"
     id="namedview10"
     showgrid="false"
     inkscape:zoom="3.0106007"
     inkscape:cx="128"
     inkscape:cy="126.25893"
     inkscape:window-x="0"
     inkscape:window-y="31"
     inkscape:window-maximized="1"
     inkscape:current-layer="svg8" />
  <g
     id="g6"
     transform="matrix(0.78778996,0,0,0.84944387,22.294127,22.612135)">
    <path
       d="m 239.97256,139.203 c 0,-14.534 -11.782,-26.316 -26.316,-26.316 -0.935,0 -1.857,0.05 -2.766,0.145 L 247.03556,6.427 H 93.431557 L 129.52556,112.94 c -0.529,-0.032 -1.061,-0.053 -1.599,-0.053 -14.534,0 -26.316,11.782 -26.316,26.316 0,11.748 7.699,21.694 18.326,25.078 -5.613,9.722 -12.675,18.478 -20.693003,26.042 -10.903,10.286 -23.381,18.085 -36.876,22.891 -16.068,-8.254 -23.656,-26.612 -16.809,-42.707 0.773,-1.817 1.562,-3.66 2.317,-5.494 11.64,-2.717 20.314,-13.153 20.314,-25.621 0,-14.534 -11.782,-26.316 -26.316,-26.316 -14.535,0 -26.317,11.782 -26.317,26.316 0,8.913 4.435,16.784 11.213,21.545 -6.514,14.831 -16.088,30.351 -19.071,48.339 -3.575,21.559 -0.011,44.443 18.634,57.366 43.424,30.096 90.560003,-18.657 140.259003,-30.913 18.011,-4.442 37.782,-3.726 53.651,-12.917 11.917,-6.902 19.773,-18.34 22.003,-31.182 2.202,-12.686 -1.009,-25.317 -8.393,-35.559 3.819,-4.568 6.12,-10.448 6.12,-16.868 z m -85.732,0.093 c 0,-0.031 0.003,-0.062 0.003,-0.093 0,-9.544 -5.082,-17.902 -12.686,-22.515 l 28.728,-58.091 28.778,58.707 c -7.067,4.718 -11.724,12.764 -11.724,21.899 0,0.192 0.011,0.381 0.015,0.572 z"
       fill="#C63D14"
       id="path2" />
    <path
       d="m 246.39904,139.203 c 0,-15.985 -11.517,-29.323 -26.688,-32.172 L 256.00004,0 H 84.466036 l 36.344004,107.248 c -14.643,3.259 -25.627004,16.345 -25.627004,31.955 0,11.723 6.195004,22.02 15.480004,27.806 -4.466,6.653 -9.762,12.914 -15.831004,18.639 -9.624001,9.08 -20.347001,15.966 -31.907001,20.496 -11.643,-7.314 -16.564999,-21.106 -11.453,-33.122 l 0.400001,-0.94 c 0.25,-0.588 0.500999,-1.178 0.750999,-1.768 12.788,-4.459 21.993,-16.632 21.993,-30.922 0,-18.055 -14.688999,-32.743 -32.743999,-32.743 -18.055001,0 -32.7430005,14.688 -32.7430005,32.743 0,9.113 3.7450005,17.365 9.7729995,23.307 -1.093,2.33 -2.242,4.698 -3.422999,7.124 -5.5120005,11.321 -11.7590005,24.153 -14.1220005,38.402 -4.693,28.299 2.876,50.921 21.3129995,63.699 11.188,7.754 22.549,10.804 33.982,10.803 21.529,-10e-4 43.306,-10.816 64.606005,-21.396 15.341,-7.619 31.203,-15.498 46.872,-19.362 5.83,-1.438 11.829,-2.303 18.18,-3.219 12.594,-1.817 25.618,-3.695 37.154,-10.376 13.371,-7.745 22.525,-20.737 25.113,-35.644 2.222,-12.797 -0.453,-25.613 -6.975,-36.483 3.041,-4.968 4.797,-10.804 4.797,-17.044 z m -12.854,0 c 0,10.967 -8.922,19.89 -19.89,19.89 -10.966,0 -19.889,-8.923 -19.889,-19.89 0,-10.967 8.923,-19.889 19.889,-19.889 10.968,0 19.89,8.922 19.89,19.889 z m 4.524,-126.349 -32.045,94.513 c -1.389,0.333 -2.743,0.753 -4.058,1.258 l -31.656,-64.578 -31.748,64.196 c -1.372,-0.473 -2.784,-0.862 -4.232,-1.15 l -31.935,-94.239 z m -110.143,106.46 c 10.967,0 19.889,8.922 19.889,19.889 0,10.967 -8.922,19.89 -19.889,19.89 -10.966,0 -19.889,-8.923 -19.889,-19.89 0,-10.967 8.923,-19.889 19.889,-19.889 z m -86.054004,0.189 c 10.967999,0 19.89,8.922 19.89,19.889 0,10.967 -8.922001,19.89 -19.89,19.89 -10.966,0 -19.889001,-8.923 -19.889001,-19.89 0,-10.967 8.923001,-19.889 19.889001,-19.889 z m 194.040004,71.028 c -1.935,11.148 -8.821,20.887 -18.891,26.719 -9.387,5.437 -20.636,7.06 -32.546,8.777 -6.38,0.92 -12.978,1.872 -19.423,3.462 -17.042,4.202 -33.549,12.401 -49.512,20.33 -31.945005,15.867 -59.534004,29.569 -85.547004,11.54 -19.055,-13.206 -18.175,-37.641 -15.955001,-51.031 2.057001,-12.405 7.619,-23.83 12.998,-34.879 0.931001,-1.912 1.835001,-3.785 2.722,-5.646 2.668,1.067 5.505,1.794 8.462001,2.124 -5.475001,18.071 3.135999,37.719 21.208999,47.004 l 2.473,1.271 2.62,-0.933 c 14.288,-5.088 27.453001,-13.254 39.131005,-24.271 7.549,-7.121 14.036,-15 19.37,-23.419 1.6,0.241 3.237,0.368 4.903,0.368 18.055,0 32.744,-14.688 32.744,-32.744 0,-9.71 -4.253,-18.442 -10.989,-24.444 l 20.578,-41.612 20.787,42.405 c -6.237,5.966 -10.134,14.359 -10.134,23.651 0,18.056 14.688,32.744 32.743,32.744 6.937,0 13.372,-2.174 18.672,-5.868 3.68,7.533 5.051,16.009 3.585,24.452 z"
       fill="#FFFFFF"
       id="path4" />
  </g>
</svg>
