<svg id="svg" version="1.1" xmlns="http://www.w3.org/2000/svg" xmlns:xlink="http://www.w3.org/1999/xlink" width="400" height="142.22222222222223" viewBox="0, 0, 400,142.22222222222223"><g id="svgg"><path id="path0" d="M84.464 25.259 C 84.421 25.301,75.853 25.347,65.424 25.360 L 46.461 25.384 45.606 25.852 C 45.107 26.125,44.368 26.360,43.833 26.416 C 42.330 26.575,41.702 26.829,41.354 27.419 C 41.131 27.797,40.793 28.041,40.194 28.256 C 39.575 28.479,39.297 28.684,39.156 29.025 C 39.051 29.280,38.835 29.530,38.678 29.580 C 38.161 29.744,37.682 30.323,37.498 31.008 C 37.376 31.459,37.180 31.744,36.905 31.869 C 36.421 32.090,35.945 33.451,35.914 34.706 C 35.903 35.140,35.843 35.546,35.780 35.609 C 35.718 35.671,35.667 35.936,35.667 36.198 C 35.667 36.539,35.553 36.726,35.265 36.857 C 34.636 37.143,34.500 38.087,34.496 42.199 C 34.491 46.498,34.411 47.001,33.592 47.819 L 32.994 48.417 29.039 48.431 C 22.398 48.454,20.399 48.679,19.859 49.464 C 19.298 50.280,18.999 50.500,18.448 50.500 C 17.869 50.500,17.167 51.000,17.167 51.412 C 17.167 51.540,16.850 51.857,16.462 52.118 C 15.947 52.464,15.689 52.791,15.499 53.337 C 15.329 53.827,15.090 54.155,14.804 54.292 C 14.292 54.538,13.833 55.563,13.833 56.463 C 13.833 57.393,13.561 58.168,13.045 58.707 L 12.583 59.189 12.535 81.053 C 12.484 104.384,12.469 103.740,13.092 104.480 C 13.399 104.844,13.544 105.286,13.661 106.203 C 13.866 107.820,14.051 108.265,14.646 108.572 C 14.977 108.744,15.178 109.005,15.258 109.370 C 15.430 110.154,15.801 110.643,16.489 110.994 C 16.822 111.164,17.196 111.493,17.320 111.725 C 17.460 111.986,17.890 112.286,18.451 112.514 C 18.950 112.716,19.466 113.048,19.599 113.251 C 19.909 113.724,20.858 114.123,21.917 114.226 C 22.375 114.270,23.462 114.421,24.333 114.560 C 25.656 114.771,29.105 114.828,45.250 114.907 C 55.883 114.959,65.076 115.045,65.678 115.098 C 66.523 115.172,67.038 115.114,67.928 114.845 C 68.564 114.652,69.769 114.432,70.607 114.355 C 72.180 114.211,72.955 113.874,73.332 113.169 C 73.423 113.000,73.854 112.741,74.290 112.593 C 75.249 112.270,77.500 110.249,77.500 109.712 C 77.500 109.523,77.825 109.024,78.223 108.603 C 78.901 107.885,79.333 106.959,79.333 106.224 C 79.333 106.048,79.452 105.456,79.597 104.910 C 79.742 104.364,79.923 103.317,80.000 102.583 C 80.076 101.850,80.237 100.815,80.356 100.284 C 80.553 99.405,80.538 99.187,80.198 97.867 C 79.587 95.496,79.650 95.081,80.847 93.593 L 81.860 92.333 84.972 92.323 C 91.978 92.301,93.460 92.087,94.888 90.894 C 95.147 90.677,95.452 90.500,95.565 90.500 C 95.933 90.500,97.141 89.844,97.367 89.521 C 97.488 89.347,97.976 88.898,98.451 88.523 C 98.999 88.090,99.434 87.570,99.642 87.101 C 99.821 86.695,100.111 86.286,100.285 86.193 C 100.785 85.925,101.449 84.507,101.547 83.500 C 101.599 82.967,101.835 82.202,102.110 81.674 L 102.583 80.764 102.626 59.007 C 102.671 35.711,102.693 36.412,101.893 35.486 C 101.768 35.341,101.539 34.591,101.386 33.819 C 101.166 32.721,101.007 32.324,100.651 31.989 C 100.401 31.753,100.082 31.286,99.942 30.951 C 99.615 30.168,97.810 28.372,96.809 27.833 C 96.384 27.604,95.774 27.209,95.455 26.954 C 95.032 26.617,94.514 26.428,93.551 26.259 C 92.823 26.131,91.896 25.853,91.490 25.642 C 90.797 25.281,84.770 24.952,84.464 25.259 M69.024 36.564 L 85.632 36.635 86.772 37.020 C 89.078 37.799,90.189 39.304,91.184 43.000 C 91.277 43.346,91.337 49.729,91.330 58.709 L 91.320 73.835 90.835 75.355 C 90.569 76.191,90.301 77.109,90.241 77.396 C 90.037 78.367,87.341 80.612,86.087 80.855 C 85.718 80.927,81.735 80.989,77.234 80.993 C 69.654 80.999,69.033 81.021,68.798 81.292 C 68.579 81.545,68.550 82.559,68.581 88.917 C 68.619 96.716,68.502 99.524,68.109 100.281 C 67.896 100.692,65.649 103.000,65.462 103.000 C 65.423 103.000,64.837 103.194,64.160 103.430 L 62.929 103.860 46.697 103.943 C 29.523 104.030,29.854 104.042,27.843 103.254 C 26.745 102.824,25.052 101.185,24.689 100.201 C 24.020 98.390,24.012 98.164,24.006 81.319 C 23.999 62.911,23.961 63.551,25.153 62.337 C 25.573 61.910,26.247 61.171,26.651 60.696 C 27.726 59.431,27.543 59.453,36.788 59.482 C 46.288 59.512,46.667 59.451,45.922 58.010 C 45.774 57.724,45.703 57.410,45.763 57.312 C 45.824 57.214,45.863 54.272,45.850 50.775 C 45.821 43.173,46.270 39.992,47.494 39.119 C 47.650 39.008,47.986 38.601,48.240 38.215 C 48.558 37.732,48.916 37.434,49.392 37.255 C 51.213 36.572,51.937 36.354,52.167 36.421 C 52.304 36.461,59.890 36.526,69.024 36.564 " stroke="none" fill="#80a057" fill-rule="evenodd"></path><path id="path1" d="M0.000 71.083 L 0.000 142.167 200.000 142.167 L 400.000 142.167 400.000 71.083 L 400.000 0.000 200.000 0.000 L 0.000 0.000 0.000 71.083 M92.500 24.532 C 93.004 24.778,93.942 25.191,94.583 25.449 C 97.751 26.722,101.269 30.215,102.249 33.062 C 102.497 33.783,102.899 34.758,103.142 35.229 L 103.583 36.083 103.583 58.683 C 103.583 75.235,103.533 81.390,103.394 81.683 C 102.921 82.680,102.340 84.157,102.107 84.956 C 101.967 85.436,101.636 86.111,101.372 86.456 C 101.108 86.801,100.584 87.496,100.207 88.001 C 99.366 89.129,97.619 90.595,96.390 91.207 C 95.885 91.459,95.279 91.817,95.043 92.002 C 93.973 92.844,89.044 93.602,85.154 93.525 C 81.646 93.454,80.952 93.978,81.261 96.464 C 81.483 98.255,81.354 102.938,81.053 104.000 C 80.247 106.849,79.600 108.438,78.893 109.305 C 78.494 109.796,78.167 110.271,78.167 110.361 C 78.167 110.692,75.662 112.978,74.720 113.506 C 74.187 113.806,73.600 114.184,73.417 114.348 C 73.233 114.512,72.483 114.806,71.750 115.003 C 71.017 115.200,69.735 115.575,68.901 115.838 L 67.386 116.315 46.289 116.328 L 25.192 116.341 22.221 115.393 C 20.498 114.842,19.075 114.290,18.833 114.077 C 18.604 113.876,18.074 113.514,17.655 113.274 C 16.137 112.403,13.297 109.082,12.899 107.713 C 12.752 107.207,12.361 106.224,12.030 105.526 L 11.428 104.259 11.407 81.921 C 11.386 58.719,11.393 58.456,12.110 57.086 C 12.351 56.626,12.721 55.741,12.933 55.118 C 13.849 52.426,19.148 47.667,21.229 47.667 C 21.441 47.667,22.050 47.517,22.582 47.334 C 24.124 46.803,26.273 46.613,29.387 46.732 C 33.637 46.893,33.499 47.076,33.502 41.267 C 33.503 38.375,33.568 37.017,33.734 36.417 C 33.964 35.581,35.307 32.172,35.682 31.471 C 36.693 29.582,40.685 25.972,42.011 25.748 C 42.370 25.687,42.707 25.569,42.759 25.485 C 42.811 25.402,42.981 25.333,43.138 25.333 C 43.294 25.333,43.721 25.130,44.086 24.881 C 45.404 23.983,44.539 24.012,68.917 24.049 L 91.583 24.083 92.500 24.532 M51.750 37.795 C 50.347 37.920,49.833 38.192,48.882 39.313 C 47.218 41.274,47.154 41.751,47.202 51.781 C 47.237 59.058,47.227 59.324,46.911 59.679 C 46.189 60.488,46.050 60.500,37.371 60.500 L 29.232 60.500 28.408 60.911 C 27.578 61.325,26.239 62.695,25.535 63.851 L 25.169 64.452 25.167 81.517 C 25.165 100.774,25.069 99.413,26.540 100.945 C 28.353 102.833,26.679 102.686,46.313 102.681 C 65.950 102.676,64.180 102.835,66.044 100.917 C 67.736 99.176,67.667 99.660,67.667 89.540 L 67.667 80.974 68.154 80.487 L 68.641 80.000 76.965 80.000 L 85.289 80.000 86.436 79.417 C 90.092 77.557,90.001 78.091,89.994 58.511 C 89.987 39.984,90.107 41.308,88.260 39.362 C 86.753 37.775,88.642 37.928,69.333 37.833 C 59.938 37.787,52.025 37.770,51.750 37.795 M78.167 46.188 C 79.228 46.403,80.850 47.920,81.175 49.000 C 81.512 50.118,81.310 67.796,80.953 68.513 C 80.401 69.621,79.079 70.765,77.808 71.237 L 76.648 71.667 68.243 71.667 L 59.839 71.667 59.317 72.133 L 58.795 72.599 58.817 80.008 C 58.829 84.083,58.885 87.848,58.941 88.375 C 59.179 90.610,57.675 93.417,55.864 94.115 C 55.145 94.393,54.358 94.417,45.833 94.416 L 36.583 94.416 35.629 94.031 C 34.964 93.762,34.472 93.409,34.005 92.865 C 32.803 91.463,32.820 91.618,32.814 81.628 L 32.809 72.718 33.363 71.567 C 33.753 70.757,34.089 70.309,34.500 70.051 C 34.821 69.850,35.303 69.515,35.571 69.306 L 36.058 68.926 45.191 68.972 C 51.521 69.003,54.428 68.961,54.662 68.836 C 55.582 68.344,55.561 68.592,55.530 58.485 C 55.500 48.198,55.483 48.383,56.547 47.402 C 57.340 46.672,57.905 46.351,58.799 46.122 C 59.854 45.851,76.796 45.909,78.167 46.188 M125.337 55.283 C 127.173 56.198,129.161 58.513,129.511 60.144 C 129.608 60.600,129.949 61.405,130.267 61.933 C 130.585 62.462,130.920 63.225,131.010 63.629 C 131.237 64.640,131.618 65.510,132.023 65.941 C 132.210 66.141,132.537 66.901,132.749 67.631 C 132.962 68.361,133.442 69.518,133.818 70.202 C 134.193 70.886,134.500 71.601,134.500 71.792 C 134.500 72.231,135.066 73.571,135.574 74.333 C 135.787 74.654,136.090 75.457,136.247 76.118 C 136.404 76.779,136.756 77.672,137.030 78.104 C 137.304 78.536,137.672 79.458,137.847 80.153 C 138.454 82.552,140.400 82.748,141.075 80.476 C 141.212 80.015,141.484 79.379,141.679 79.063 C 141.874 78.747,142.174 77.931,142.344 77.250 C 142.531 76.500,142.878 75.684,143.224 75.181 C 143.539 74.725,143.952 73.835,144.144 73.205 C 144.335 72.574,144.663 71.802,144.872 71.488 C 145.407 70.686,145.600 70.206,145.825 69.125 C 145.932 68.607,146.202 67.915,146.425 67.587 C 147.053 66.662,147.309 66.102,147.505 65.229 C 147.604 64.786,147.911 64.056,148.187 63.607 C 148.464 63.158,148.862 62.407,149.073 61.937 C 149.591 60.787,151.496 58.466,152.464 57.806 C 152.897 57.511,153.512 57.063,153.833 56.810 C 154.154 56.557,154.792 56.262,155.250 56.155 C 156.182 55.936,156.946 55.696,158.417 55.160 C 160.786 54.297,167.286 56.429,169.570 58.818 C 170.790 60.095,172.186 60.099,173.589 58.828 C 174.087 58.377,174.703 57.960,174.956 57.901 C 175.209 57.842,175.867 57.510,176.417 57.163 C 176.967 56.816,178.092 56.332,178.917 56.087 C 179.742 55.842,180.942 55.452,181.583 55.221 C 183.097 54.675,184.735 54.751,186.922 55.466 C 187.750 55.737,188.818 56.012,189.295 56.078 C 189.788 56.146,190.398 56.369,190.707 56.594 C 191.005 56.813,191.621 57.199,192.075 57.454 C 192.529 57.708,193.317 58.304,193.826 58.778 C 195.241 60.095,196.343 60.106,197.804 58.821 C 198.209 58.464,198.962 57.980,199.478 57.745 C 199.994 57.509,200.694 57.126,201.032 56.893 C 201.390 56.646,202.251 56.334,203.090 56.147 C 203.883 55.970,204.769 55.703,205.058 55.553 C 206.671 54.719,209.093 54.600,210.917 55.267 C 211.558 55.501,212.572 55.825,213.170 55.987 C 215.390 56.586,219.170 59.445,220.151 61.265 C 220.344 61.624,220.658 62.112,220.849 62.352 C 221.040 62.591,221.406 63.586,221.661 64.563 L 222.126 66.340 222.142 78.755 C 222.151 85.980,222.091 91.518,221.999 92.004 C 221.487 94.703,220.984 95.430,218.791 96.633 C 217.022 97.604,216.485 97.588,214.482 96.499 C 212.743 95.554,212.606 95.403,211.921 93.670 L 211.426 92.417 211.334 81.500 C 211.252 71.683,211.214 70.510,210.955 69.854 C 210.796 69.453,210.667 68.905,210.667 68.637 C 210.667 67.620,208.915 65.652,207.793 65.410 C 207.494 65.345,206.972 65.152,206.632 64.980 C 204.131 63.714,200.296 65.497,198.508 68.756 L 197.822 70.005 197.833 80.794 C 197.848 94.945,197.973 94.360,194.437 96.650 C 192.576 97.855,191.278 97.668,189.164 95.889 C 186.778 93.881,186.668 93.165,186.663 79.596 C 186.661 73.906,186.594 68.973,186.516 68.635 C 186.312 67.756,184.494 65.765,183.602 65.445 C 183.225 65.309,182.617 65.082,182.250 64.940 C 181.178 64.524,179.755 64.599,178.075 65.160 C 176.060 65.833,175.994 65.888,174.369 68.238 L 173.917 68.892 173.833 80.738 C 173.740 94.067,173.849 92.993,172.401 94.837 C 169.884 98.040,166.775 98.076,164.091 94.934 C 162.676 93.278,162.776 94.389,162.712 79.667 C 162.648 65.000,162.702 65.967,161.935 65.603 C 160.420 64.884,158.499 65.434,158.163 66.681 C 158.060 67.065,157.796 67.649,157.577 67.981 C 157.358 68.312,157.000 69.071,156.783 69.667 C 156.565 70.262,156.186 71.044,155.940 71.404 C 155.693 71.764,155.331 72.587,155.135 73.233 C 154.939 73.880,154.527 74.823,154.220 75.329 C 153.913 75.836,153.515 76.738,153.336 77.334 C 153.157 77.931,152.777 78.787,152.491 79.237 C 152.206 79.687,151.780 80.586,151.544 81.236 C 151.309 81.885,150.947 82.646,150.740 82.927 C 150.534 83.207,150.161 84.032,149.913 84.760 C 149.665 85.488,149.316 86.243,149.138 86.437 C 148.960 86.632,148.629 87.324,148.403 87.975 C 148.177 88.626,147.766 89.521,147.490 89.965 C 147.215 90.408,146.767 91.316,146.496 91.982 C 145.422 94.621,141.804 97.500,139.562 97.500 C 138.022 97.500,134.988 95.590,133.827 93.889 C 133.555 93.492,133.112 92.842,132.841 92.446 C 132.571 92.050,132.233 91.382,132.091 90.963 C 131.948 90.544,131.540 89.701,131.182 89.090 C 130.825 88.479,130.482 87.704,130.419 87.369 C 130.306 86.769,129.724 85.628,129.135 84.853 C 128.969 84.634,128.833 84.318,128.833 84.150 C 128.833 83.633,128.162 82.020,127.737 81.515 C 127.515 81.251,127.177 80.521,126.987 79.893 C 126.796 79.264,126.458 78.470,126.236 78.127 C 126.013 77.784,125.607 76.888,125.332 76.136 C 125.057 75.383,124.652 74.576,124.432 74.342 C 124.211 74.108,123.847 73.317,123.623 72.583 C 123.399 71.850,122.978 70.876,122.686 70.418 C 122.395 69.960,122.011 69.098,121.833 68.501 C 121.656 67.905,121.247 67.004,120.926 66.500 C 120.605 65.996,120.340 65.462,120.338 65.314 C 120.335 65.166,119.983 64.341,119.555 63.481 C 117.858 60.073,118.454 57.967,121.727 55.808 C 123.455 54.667,123.955 54.594,125.337 55.283 M370.667 56.159 C 372.405 56.296,372.723 56.375,374.083 57.008 C 374.908 57.393,375.867 57.808,376.214 57.931 C 379.383 59.060,384.263 65.373,384.942 69.223 C 385.090 70.058,385.397 70.959,385.795 71.723 C 386.396 72.877,386.417 72.974,386.417 74.643 L 386.417 76.370 385.833 76.864 C 385.512 77.135,384.941 77.541,384.562 77.766 L 383.875 78.174 369.691 78.212 L 355.508 78.250 355.045 78.712 C 354.327 79.431,354.386 80.599,355.206 81.917 C 355.601 82.551,355.869 83.221,355.940 83.750 C 356.009 84.270,356.232 84.834,356.532 85.250 C 358.041 87.336,358.421 87.812,359.420 88.862 C 360.024 89.496,360.715 90.090,360.956 90.182 C 361.197 90.273,361.920 90.698,362.562 91.125 C 364.006 92.085,364.347 92.140,368.917 92.151 C 372.791 92.161,374.477 91.988,375.241 91.502 C 375.521 91.324,376.313 90.881,377.000 90.517 C 377.688 90.154,378.636 89.495,379.107 89.053 C 381.445 86.862,382.622 86.769,383.600 88.699 C 384.443 90.362,382.768 92.280,378.528 94.509 C 377.733 94.927,376.862 95.393,376.591 95.545 C 376.320 95.697,375.532 95.945,374.841 96.096 C 374.149 96.247,372.833 96.564,371.917 96.800 C 369.608 97.396,368.381 97.443,366.833 96.997 C 366.146 96.799,364.796 96.468,363.833 96.261 C 362.466 95.966,361.792 95.715,360.750 95.110 C 360.017 94.684,359.326 94.335,359.214 94.335 C 359.103 94.334,358.765 94.120,358.464 93.860 C 358.163 93.599,357.500 93.122,356.992 92.800 C 354.194 91.026,350.835 85.557,350.259 81.833 C 350.110 80.871,349.907 79.633,349.809 79.083 C 349.281 76.142,350.093 69.675,351.215 67.883 C 351.434 67.535,351.736 66.883,351.887 66.435 C 352.039 65.986,352.451 65.236,352.804 64.768 C 353.157 64.300,353.638 63.579,353.874 63.167 C 355.423 60.458,359.369 57.781,363.833 56.411 C 364.951 56.068,368.059 55.953,370.667 56.159 M229.326 56.329 C 230.186 56.790,231.345 58.944,231.732 60.801 C 231.872 61.470,232.217 62.422,232.500 62.917 C 232.783 63.411,233.123 64.337,233.256 64.974 C 233.554 66.406,233.580 66.481,234.262 67.917 C 234.567 68.558,234.935 69.673,235.080 70.393 C 235.225 71.114,235.473 71.930,235.630 72.206 C 235.788 72.482,236.007 72.870,236.116 73.067 C 236.226 73.265,236.466 74.099,236.649 74.921 C 236.833 75.744,237.239 76.979,237.552 77.667 C 237.866 78.354,238.289 79.554,238.493 80.333 C 238.697 81.112,239.073 82.200,239.329 82.750 C 239.585 83.300,239.878 84.059,239.980 84.436 C 240.628 86.823,243.144 86.290,243.163 83.761 C 243.165 83.492,243.426 82.771,243.742 82.160 C 244.059 81.548,244.438 80.531,244.585 79.899 C 245.015 78.048,245.210 77.444,245.527 76.980 C 245.944 76.369,246.151 75.775,246.449 74.333 C 246.590 73.646,246.964 72.572,247.278 71.947 C 247.592 71.322,248.024 70.160,248.238 69.364 C 248.452 68.568,248.853 67.392,249.129 66.750 C 249.405 66.108,249.757 65.062,249.912 64.424 C 250.066 63.787,250.366 62.962,250.578 62.591 C 250.790 62.220,251.055 61.504,251.167 61.000 C 252.730 53.954,257.664 54.950,259.010 62.583 C 259.123 63.225,259.468 64.249,259.777 64.858 C 260.086 65.468,260.483 66.630,260.658 67.442 C 260.834 68.253,261.203 69.330,261.479 69.834 C 261.755 70.339,262.146 71.389,262.347 72.167 C 262.548 72.946,262.963 74.108,263.268 74.750 C 263.573 75.392,263.935 76.469,264.073 77.143 C 264.210 77.818,264.505 78.680,264.728 79.060 C 264.950 79.440,265.295 80.388,265.495 81.167 C 266.792 86.237,267.219 87.066,268.382 86.774 C 269.295 86.544,269.741 85.632,270.020 83.420 C 270.124 82.599,270.383 81.810,270.900 80.741 C 271.555 79.385,272.167 77.535,272.167 76.910 C 272.167 76.783,272.423 76.133,272.737 75.465 C 273.379 74.097,273.833 72.659,273.833 71.995 C 273.833 71.750,274.105 71.038,274.438 70.411 C 274.770 69.785,275.145 68.781,275.270 68.181 C 275.396 67.580,275.680 66.713,275.902 66.253 C 276.599 64.808,276.844 64.124,277.179 62.693 C 277.358 61.928,277.685 60.990,277.906 60.609 C 278.128 60.228,278.433 59.429,278.585 58.833 C 278.937 57.454,279.359 56.772,280.069 56.434 C 282.447 55.306,284.804 57.915,283.367 60.085 C 283.088 60.506,282.808 61.158,282.744 61.533 C 282.612 62.314,282.356 62.997,281.660 64.417 C 281.390 64.967,281.068 65.913,280.943 66.519 C 280.819 67.126,280.468 68.056,280.164 68.587 C 279.784 69.253,279.546 69.964,279.400 70.877 C 279.253 71.796,279.050 72.400,278.738 72.850 C 278.491 73.207,278.032 74.374,277.718 75.444 C 277.404 76.513,277.045 77.585,276.920 77.827 C 276.660 78.330,276.195 79.692,275.666 81.500 C 275.465 82.188,275.159 82.983,274.985 83.267 C 274.812 83.551,274.479 84.519,274.246 85.417 C 274.012 86.316,273.567 87.508,273.257 88.067 C 272.946 88.626,272.584 89.608,272.453 90.250 C 272.321 90.892,271.948 91.944,271.623 92.589 C 271.298 93.233,270.951 94.061,270.852 94.429 C 270.406 96.087,268.553 96.890,266.857 96.161 C 265.769 95.693,265.380 95.149,264.979 93.532 C 264.804 92.827,264.523 92.061,264.353 91.829 C 264.046 91.409,263.736 90.474,263.159 88.218 C 262.990 87.559,262.729 86.781,262.578 86.490 C 262.428 86.200,262.018 85.014,261.668 83.856 C 261.317 82.698,260.834 81.310,260.592 80.773 C 260.351 80.235,260.044 79.271,259.909 78.631 C 259.774 77.990,259.407 77.005,259.093 76.442 C 258.740 75.809,258.444 74.970,258.320 74.250 C 258.102 72.989,257.696 71.910,257.151 71.145 C 256.942 70.851,256.716 70.096,256.573 69.217 C 256.037 65.905,253.946 64.455,253.650 67.190 C 253.580 67.833,253.395 68.344,253.047 68.851 C 252.736 69.305,252.430 70.091,252.242 70.917 C 252.075 71.650,251.651 72.842,251.300 73.565 C 250.949 74.288,250.507 75.487,250.317 76.229 C 250.128 76.970,249.786 77.972,249.558 78.455 C 249.330 78.938,248.961 80.011,248.739 80.841 C 248.517 81.670,248.047 83.115,247.694 84.052 C 247.341 84.988,246.955 86.166,246.836 86.669 C 246.718 87.172,246.486 87.883,246.321 88.250 C 245.709 89.611,245.490 90.246,245.157 91.622 C 244.970 92.398,244.631 93.313,244.405 93.655 C 244.178 93.997,243.826 94.604,243.621 95.004 C 243.063 96.097,242.521 96.417,241.228 96.417 L 240.147 96.417 239.267 95.500 C 238.412 94.609,237.667 93.129,237.667 92.323 C 237.667 92.141,237.407 91.475,237.089 90.844 C 236.771 90.213,236.389 89.146,236.240 88.473 C 236.091 87.800,235.716 86.725,235.406 86.083 C 235.096 85.442,234.720 84.429,234.571 83.833 C 234.422 83.237,233.977 81.887,233.581 80.833 C 233.186 79.779,232.739 78.467,232.589 77.917 C 232.438 77.367,232.019 76.311,231.657 75.571 C 231.296 74.830,231.000 74.092,231.000 73.930 C 231.000 73.397,230.463 71.759,230.138 71.297 C 229.805 70.825,229.445 69.719,229.254 68.583 C 229.193 68.217,228.874 67.429,228.546 66.833 C 228.218 66.237,227.889 65.487,227.816 65.167 C 227.743 64.846,227.610 64.246,227.520 63.833 C 227.431 63.421,227.033 62.446,226.637 61.667 C 225.455 59.342,225.644 57.096,227.083 56.360 C 227.515 56.139,228.934 56.120,229.326 56.329 M307.180 56.336 C 307.670 56.429,308.378 56.653,308.752 56.834 C 309.125 57.015,309.975 57.348,310.640 57.574 C 313.213 58.449,315.879 60.704,316.859 62.833 C 317.133 63.429,317.535 64.179,317.752 64.500 C 318.793 66.042,319.013 69.510,318.939 83.261 C 318.873 95.716,318.915 95.181,317.935 96.035 C 316.244 97.508,314.488 96.242,314.386 93.476 C 314.289 90.828,313.449 90.372,311.745 92.042 C 310.199 93.557,309.381 94.181,308.505 94.514 C 308.038 94.691,307.354 95.026,306.986 95.259 C 306.086 95.827,305.674 95.971,303.917 96.333 C 303.092 96.503,302.044 96.802,301.589 96.998 C 300.157 97.612,298.987 97.619,297.219 97.027 C 296.377 96.744,295.186 96.426,294.573 96.319 C 293.960 96.213,293.261 96.022,293.021 95.897 C 292.780 95.771,292.499 95.668,292.395 95.668 C 292.292 95.667,292.121 95.563,292.016 95.435 C 291.910 95.308,291.320 94.964,290.705 94.670 C 289.473 94.081,288.474 93.241,287.333 91.833 C 286.921 91.324,286.419 90.745,286.217 90.546 C 286.016 90.347,285.768 89.862,285.668 89.467 C 285.567 89.073,285.294 88.064,285.062 87.225 C 284.453 85.028,284.537 84.017,285.677 79.795 C 285.987 78.645,288.682 75.689,290.143 74.895 C 290.752 74.564,291.446 74.157,291.686 73.992 C 291.926 73.826,292.676 73.532,293.353 73.339 C 294.029 73.147,295.221 72.805,296.000 72.581 C 299.977 71.437,303.412 71.502,309.333 72.836 C 311.407 73.303,313.792 73.340,314.116 72.910 C 314.586 72.287,314.334 69.238,313.708 67.967 C 313.422 67.390,313.136 66.729,313.070 66.500 C 312.693 65.177,309.784 62.276,308.325 61.766 C 307.825 61.592,307.042 61.257,306.583 61.021 C 304.906 60.160,297.808 60.302,295.417 61.244 C 291.840 62.654,290.104 62.625,289.491 61.144 C 288.739 59.329,290.531 57.971,295.500 56.590 C 297.080 56.151,305.266 55.973,307.180 56.336 M331.299 56.615 C 332.283 57.349,332.421 57.844,332.376 60.490 C 332.329 63.306,332.450 63.667,333.437 63.667 C 334.098 63.667,334.219 63.559,336.250 61.176 C 336.892 60.423,337.622 59.699,337.873 59.567 C 338.124 59.435,338.574 59.115,338.873 58.856 C 340.549 57.406,343.634 56.278,345.971 56.263 L 347.858 56.250 348.429 56.873 C 349.320 57.844,349.292 59.578,348.375 60.291 C 347.433 61.023,346.009 61.667,345.332 61.667 C 344.601 61.667,342.005 62.522,341.373 62.971 C 341.122 63.149,340.644 63.409,340.310 63.548 C 339.976 63.687,339.414 64.056,339.060 64.368 C 338.706 64.680,338.216 65.088,337.970 65.274 C 337.337 65.754,335.765 67.640,335.419 68.333 C 335.259 68.654,334.959 69.104,334.752 69.333 C 334.318 69.813,333.373 72.586,332.735 75.250 L 332.296 77.083 332.388 85.356 C 332.484 94.114,332.443 94.734,331.708 95.547 C 330.603 96.768,328.250 96.465,327.690 95.030 C 327.213 93.808,327.184 92.717,327.182 76.250 C 327.180 59.663,327.206 58.708,327.699 57.448 C 328.170 56.244,330.178 55.779,331.299 56.615 M364.417 60.495 C 362.440 60.929,359.288 63.333,357.745 65.583 C 357.431 66.042,356.919 66.776,356.609 67.215 C 356.262 67.705,356.004 68.303,355.940 68.765 C 355.884 69.179,355.536 70.088,355.169 70.786 C 354.462 72.127,354.332 72.950,354.699 73.755 C 355.125 74.690,354.783 74.667,367.902 74.667 L 379.987 74.667 380.333 74.295 C 381.121 73.449,381.027 71.408,380.120 69.671 C 379.779 69.018,379.500 68.356,379.500 68.200 C 379.499 66.444,376.186 62.675,373.435 61.300 L 371.750 60.458 368.417 60.403 C 366.583 60.373,364.783 60.414,364.417 60.495 M298.537 75.824 C 296.987 75.945,296.734 76.014,295.871 76.546 C 295.346 76.869,294.617 77.216,294.250 77.317 C 293.267 77.589,291.560 79.311,290.662 80.936 C 289.361 83.291,289.483 86.479,290.939 88.221 C 291.156 88.480,291.333 88.769,291.333 88.862 C 291.333 89.485,293.500 91.330,294.823 91.834 C 295.241 91.993,295.996 92.282,296.500 92.476 C 298.604 93.284,302.470 93.456,303.937 92.807 C 304.763 92.441,305.336 92.269,306.649 91.990 C 307.054 91.904,307.686 91.584,308.065 91.274 C 308.442 90.966,309.132 90.520,309.599 90.284 C 310.066 90.047,310.566 89.681,310.711 89.469 C 310.855 89.257,311.288 88.746,311.672 88.334 C 312.307 87.652,312.864 86.758,313.949 84.680 C 314.309 83.991,314.333 83.751,314.333 80.969 L 314.333 77.995 313.792 77.665 C 313.494 77.483,313.137 77.334,313.000 77.333 C 312.862 77.332,312.525 77.212,312.250 77.067 C 310.103 75.934,304.104 75.390,298.537 75.824 " stroke="none" fill="#f4f4f4" fill-rule="evenodd"></path><path id="path2" d="M182.750 55.656 C 182.475 55.726,181.975 55.901,181.640 56.044 C 181.304 56.187,180.441 56.431,179.723 56.586 C 178.912 56.761,178.006 57.106,177.333 57.495 C 176.737 57.840,175.889 58.280,175.447 58.473 C 175.006 58.666,174.304 59.125,173.887 59.491 C 172.551 60.668,170.712 60.676,169.392 59.512 C 168.947 59.120,168.283 58.647,167.917 58.460 C 167.550 58.274,166.932 57.904,166.544 57.638 C 164.361 56.142,160.398 55.398,158.250 56.080 C 157.517 56.313,156.484 56.583,155.955 56.681 C 155.286 56.804,154.778 57.031,154.288 57.425 C 153.901 57.736,153.223 58.184,152.783 58.419 C 152.299 58.678,151.773 59.151,151.450 59.615 C 151.157 60.038,150.690 60.659,150.412 60.996 C 150.135 61.333,149.690 62.128,149.424 62.763 C 149.158 63.397,148.804 64.095,148.637 64.314 C 148.470 64.532,148.148 65.301,147.920 66.021 C 147.692 66.742,147.323 67.613,147.100 67.957 C 146.876 68.302,146.529 69.146,146.327 69.833 C 146.126 70.520,145.670 71.565,145.314 72.156 C 144.958 72.746,144.667 73.363,144.667 73.528 C 144.667 73.987,144.162 75.173,143.634 75.952 C 143.373 76.338,143.015 77.231,142.839 77.937 C 142.662 78.643,142.370 79.527,142.189 79.902 C 142.008 80.277,141.731 80.900,141.574 81.287 C 141.182 82.250,140.812 82.535,139.837 82.629 C 138.347 82.772,137.774 82.322,137.337 80.667 C 137.228 80.254,136.928 79.579,136.670 79.167 C 136.413 78.754,135.964 77.704,135.672 76.833 C 135.381 75.962,135.005 75.013,134.836 74.724 C 134.668 74.435,134.331 73.547,134.088 72.750 C 133.845 71.954,133.433 71.008,133.173 70.648 C 132.912 70.288,132.611 69.601,132.505 69.122 C 132.253 67.988,131.875 67.076,131.315 66.250 C 131.066 65.883,130.737 65.133,130.584 64.583 C 130.430 64.033,130.085 63.197,129.816 62.725 C 129.548 62.254,129.180 61.286,128.998 60.574 C 128.381 58.164,125.845 55.667,124.014 55.667 C 122.925 55.667,120.862 57.018,119.944 58.333 C 119.161 59.454,119.107 61.223,119.818 62.429 C 120.025 62.779,120.379 63.555,120.604 64.154 C 120.829 64.752,121.233 65.583,121.501 66.001 C 121.769 66.419,122.148 67.277,122.343 67.908 C 122.538 68.539,122.868 69.326,123.078 69.658 C 123.589 70.467,124.167 71.753,124.167 72.080 C 124.167 72.388,124.924 73.933,125.141 74.067 C 125.222 74.117,125.533 74.774,125.834 75.527 C 126.134 76.280,126.595 77.234,126.857 77.647 C 127.119 78.060,127.335 78.590,127.337 78.824 C 127.342 79.371,127.882 80.562,128.412 81.191 C 128.639 81.461,128.906 81.997,129.005 82.383 C 129.358 83.753,129.524 84.151,129.986 84.733 C 130.244 85.057,130.629 85.864,130.842 86.525 C 131.054 87.187,131.474 88.137,131.775 88.636 C 132.075 89.135,132.444 89.927,132.596 90.396 C 133.622 93.583,137.649 96.978,139.966 96.610 C 140.896 96.462,143.579 95.076,143.908 94.573 C 144.064 94.334,144.446 93.858,144.756 93.515 C 145.067 93.171,145.553 92.310,145.837 91.600 C 146.122 90.890,146.610 89.974,146.923 89.564 C 147.388 88.954,148.000 87.492,148.000 86.990 C 148.000 86.926,148.260 86.441,148.578 85.913 C 148.896 85.385,149.270 84.563,149.409 84.086 C 149.547 83.609,149.813 83.026,149.998 82.790 C 150.446 82.220,151.163 80.666,151.165 80.260 C 151.166 80.082,151.456 79.444,151.810 78.843 C 152.165 78.242,152.627 77.225,152.837 76.583 C 153.048 75.942,153.465 75.042,153.764 74.583 C 154.063 74.125,154.462 73.225,154.651 72.583 C 154.839 71.942,155.251 71.056,155.566 70.616 C 155.880 70.176,156.231 69.426,156.344 68.949 C 156.458 68.473,156.716 67.821,156.918 67.500 C 157.120 67.179,157.340 66.743,157.407 66.531 C 157.961 64.783,160.385 64.076,162.345 65.090 C 163.281 65.573,163.243 65.035,163.333 79.417 C 163.428 94.530,163.303 93.262,164.853 94.853 C 167.471 97.542,170.317 96.998,172.500 93.394 L 173.083 92.430 173.167 80.590 C 173.257 67.981,173.219 68.514,174.134 67.158 C 175.865 64.594,180.352 62.895,182.417 64.023 C 182.692 64.174,183.418 64.570,184.031 64.904 C 185.123 65.499,186.465 66.784,186.906 67.656 C 187.276 68.389,187.327 69.791,187.354 80.150 C 187.375 88.087,187.429 90.375,187.607 90.968 C 187.732 91.381,187.833 91.960,187.833 92.253 C 187.833 93.299,189.535 95.833,190.237 95.833 C 190.337 95.833,190.772 96.021,191.202 96.250 C 192.555 96.970,193.969 96.516,195.803 94.775 C 197.184 93.463,197.073 94.573,197.167 81.159 L 197.250 69.234 197.994 68.075 C 199.304 66.036,199.776 65.545,200.797 65.163 C 201.311 64.971,202.163 64.548,202.690 64.222 C 203.917 63.465,205.879 63.435,206.857 64.158 C 207.159 64.381,207.821 64.769,208.328 65.019 C 209.720 65.705,211.055 67.076,211.321 68.092 C 211.440 68.545,211.689 69.329,211.875 69.833 C 212.200 70.716,212.213 71.147,212.231 81.583 C 212.255 95.115,212.160 94.607,214.896 95.939 C 216.755 96.843,216.858 96.842,218.704 95.888 C 220.190 95.121,220.218 95.095,220.730 94.013 L 221.250 92.917 221.245 79.167 C 221.240 63.665,221.290 64.320,219.965 62.230 C 219.255 61.110,216.662 58.333,216.326 58.333 C 216.229 58.333,215.723 58.034,215.200 57.667 C 214.546 57.209,213.887 56.919,213.083 56.736 C 212.442 56.591,211.379 56.285,210.721 56.057 C 209.091 55.491,207.790 55.489,206.083 56.047 C 205.350 56.287,204.302 56.563,203.754 56.660 C 203.206 56.757,202.456 56.997,202.087 57.193 C 201.718 57.390,200.854 57.833,200.167 58.178 C 199.479 58.523,198.657 59.047,198.339 59.343 C 196.843 60.735,194.348 60.694,193.409 59.262 C 193.258 59.031,192.741 58.656,192.261 58.429 C 191.780 58.202,191.292 57.901,191.175 57.760 C 190.684 57.168,189.783 56.801,188.262 56.573 C 187.395 56.442,186.325 56.195,185.884 56.023 C 184.932 55.651,183.447 55.477,182.750 55.656 M227.714 56.781 C 226.530 57.019,226.074 59.366,226.968 60.622 C 227.438 61.282,227.936 62.581,228.244 63.951 C 228.383 64.574,228.762 65.608,229.086 66.250 C 229.409 66.892,229.746 67.867,229.835 68.417 C 229.925 68.981,230.275 69.962,230.637 70.667 C 230.990 71.354,231.373 72.367,231.489 72.917 C 231.605 73.467,231.987 74.497,232.339 75.207 C 232.691 75.916,233.031 76.854,233.095 77.290 C 233.159 77.726,233.533 78.802,233.926 79.680 C 234.319 80.559,234.870 82.065,235.150 83.027 C 235.431 83.989,235.841 85.186,236.062 85.686 C 236.284 86.187,236.634 87.231,236.841 88.006 C 237.048 88.782,237.390 89.754,237.601 90.167 C 237.812 90.579,238.072 91.292,238.179 91.750 C 239.054 95.493,241.860 97.328,242.979 94.889 C 243.098 94.629,243.453 93.916,243.767 93.304 C 244.082 92.692,244.531 91.418,244.765 90.472 C 244.999 89.527,245.329 88.490,245.498 88.169 C 245.825 87.547,246.927 84.318,248.026 80.759 C 248.393 79.573,248.840 78.314,249.019 77.962 C 249.199 77.610,249.535 76.595,249.766 75.706 C 250.000 74.805,250.471 73.573,250.831 72.920 C 251.255 72.152,251.544 71.349,251.674 70.583 C 251.783 69.942,252.084 69.004,252.344 68.500 C 252.604 67.996,252.868 67.283,252.931 66.917 C 253.152 65.611,253.568 65.180,254.612 65.172 C 255.959 65.162,256.530 65.919,257.109 68.481 C 257.326 69.441,257.680 70.533,257.896 70.905 C 258.324 71.646,258.743 72.878,258.916 73.906 C 258.977 74.266,259.274 75.054,259.576 75.656 C 259.878 76.257,260.281 77.350,260.470 78.083 C 260.659 78.817,261.016 79.867,261.262 80.417 C 261.508 80.967,261.844 81.945,262.008 82.592 C 262.172 83.238,262.570 84.438,262.893 85.258 C 263.216 86.079,263.643 87.379,263.841 88.147 C 264.038 88.915,264.417 90.026,264.681 90.615 C 264.945 91.204,265.318 92.354,265.510 93.170 C 266.262 96.373,269.912 96.871,270.397 93.837 C 270.458 93.455,270.758 92.642,271.063 92.030 C 271.369 91.418,271.753 90.354,271.917 89.667 C 272.081 88.979,272.493 87.854,272.833 87.167 C 273.174 86.479,273.585 85.354,273.747 84.667 C 273.910 83.979,274.180 83.154,274.348 82.833 C 274.710 82.139,275.667 79.409,275.667 79.067 C 275.667 78.935,275.936 78.172,276.264 77.372 C 276.593 76.572,277.030 75.316,277.236 74.583 C 277.442 73.849,277.824 72.911,278.084 72.499 C 278.620 71.650,279.000 70.521,279.000 69.776 C 279.000 69.499,279.254 68.779,279.564 68.177 C 279.874 67.576,280.221 66.633,280.334 66.083 C 280.447 65.533,280.865 64.408,281.262 63.583 C 283.379 59.185,283.367 56.833,281.228 56.833 C 280.081 56.833,279.569 57.412,279.161 59.167 C 278.979 59.946,278.610 61.043,278.341 61.604 C 278.071 62.165,277.734 63.140,277.592 63.771 C 277.449 64.401,277.031 65.559,276.663 66.344 C 276.294 67.128,275.925 68.189,275.841 68.700 C 275.758 69.211,275.469 70.069,275.198 70.606 C 274.927 71.144,274.535 72.258,274.327 73.083 C 274.119 73.908,273.697 75.158,273.391 75.860 C 273.084 76.563,272.833 77.241,272.833 77.367 C 272.833 77.922,271.778 80.900,271.320 81.637 C 270.924 82.274,270.766 82.807,270.579 84.140 C 270.230 86.630,269.598 87.498,268.133 87.499 C 266.768 87.501,266.122 86.695,265.593 84.333 C 265.247 82.787,264.557 80.610,264.168 79.833 C 264.008 79.512,263.718 78.557,263.525 77.710 C 263.331 76.863,262.945 75.718,262.666 75.166 C 262.387 74.613,262.004 73.506,261.814 72.706 C 261.624 71.905,261.221 70.800,260.917 70.250 C 260.570 69.620,260.293 68.805,260.169 68.046 C 260.050 67.325,259.719 66.323,259.341 65.546 C 258.994 64.833,258.627 63.774,258.527 63.192 C 258.426 62.610,258.125 61.635,257.858 61.025 C 257.409 60.000,257.223 59.536,256.654 58.022 C 255.649 55.345,252.734 57.077,251.918 60.836 C 251.769 61.522,251.361 62.721,251.013 63.500 C 250.664 64.279,250.253 65.431,250.099 66.060 C 249.946 66.689,249.635 67.569,249.408 68.017 C 249.181 68.464,248.886 69.300,248.751 69.874 C 248.500 70.944,248.052 72.199,247.606 73.083 C 247.468 73.358,247.190 74.221,246.990 75.000 C 246.790 75.779,246.407 76.853,246.139 77.385 C 245.871 77.918,245.573 78.777,245.478 79.293 C 245.153 81.051,243.330 85.789,242.781 86.303 C 241.426 87.572,240.259 87.077,239.338 84.844 C 239.059 84.168,238.760 83.529,238.674 83.425 C 238.588 83.321,238.333 82.527,238.107 81.660 C 237.882 80.793,237.456 79.483,237.162 78.750 C 236.868 78.017,236.453 76.725,236.241 75.879 C 236.029 75.034,235.595 73.759,235.277 73.046 C 234.958 72.333,234.607 71.300,234.496 70.750 C 234.385 70.200,234.043 69.250,233.736 68.640 C 233.429 68.029,233.059 66.979,232.915 66.306 C 232.770 65.634,232.392 64.558,232.075 63.917 C 231.757 63.275,231.353 62.065,231.176 61.227 C 230.521 58.126,229.235 56.474,227.714 56.781 M365.113 56.836 C 363.496 57.117,358.607 59.255,358.246 59.839 C 358.190 59.930,357.859 60.150,357.510 60.328 C 357.161 60.506,356.660 60.894,356.396 61.190 C 356.132 61.486,355.680 61.958,355.392 62.239 C 355.103 62.520,354.600 63.207,354.275 63.765 C 353.949 64.323,353.554 64.885,353.398 65.015 C 353.081 65.277,352.337 66.780,352.335 67.163 C 352.334 67.299,352.064 67.847,351.734 68.381 C 350.800 69.895,350.352 73.393,350.536 77.750 C 350.727 82.279,351.723 85.537,353.740 88.232 C 353.954 88.517,354.179 88.917,354.241 89.121 C 354.399 89.642,356.632 91.900,357.333 92.248 C 357.654 92.407,358.142 92.745,358.417 93.000 C 358.901 93.448,360.433 94.333,360.724 94.333 C 360.802 94.333,361.292 94.596,361.811 94.916 C 362.577 95.389,363.025 95.532,364.170 95.672 C 364.947 95.767,365.999 95.949,366.508 96.077 C 368.299 96.527,369.317 96.555,370.833 96.198 C 371.613 96.014,372.700 95.815,373.250 95.756 C 374.934 95.574,378.541 94.034,380.198 92.790 C 380.593 92.493,381.201 92.063,381.548 91.833 C 382.980 90.889,383.559 89.032,382.653 88.292 C 381.970 87.733,381.494 87.910,379.856 89.332 C 379.011 90.064,377.881 90.882,377.343 91.149 C 376.806 91.415,376.034 91.828,375.629 92.066 C 374.275 92.859,369.602 93.187,365.654 92.766 C 363.485 92.535,363.150 92.429,362.167 91.666 C 361.846 91.417,361.246 91.063,360.833 90.880 C 359.914 90.472,358.044 88.628,357.068 87.167 C 356.670 86.571,356.144 85.839,355.900 85.541 C 355.656 85.243,355.393 84.656,355.314 84.236 C 355.236 83.816,355.060 83.272,354.924 83.028 C 353.916 81.214,353.695 79.957,354.148 78.622 C 354.579 77.351,353.662 77.427,369.777 77.333 L 384.138 77.250 384.861 76.743 L 385.583 76.235 385.632 74.749 C 385.677 73.361,385.643 73.179,385.112 72.006 C 384.799 71.315,384.446 70.225,384.328 69.583 C 384.120 68.462,382.382 64.486,381.994 64.247 C 381.902 64.190,381.648 63.792,381.430 63.363 C 380.651 61.835,377.434 59.119,375.570 58.418 C 374.938 58.180,373.882 57.726,373.224 57.409 L 372.027 56.834 368.972 56.765 C 367.291 56.727,365.555 56.759,365.113 56.836 M295.140 57.486 C 294.164 57.837,293.080 58.177,292.732 58.242 C 290.745 58.615,289.410 60.243,290.333 61.167 C 290.921 61.755,292.027 61.658,294.284 60.821 C 297.508 59.625,304.950 59.359,307.000 60.368 C 307.504 60.616,308.404 61.036,309.000 61.303 C 310.805 62.110,312.758 64.232,313.938 66.667 L 314.868 68.583 314.892 70.804 L 314.917 73.026 314.423 73.452 C 313.777 74.010,312.340 73.929,306.269 72.996 C 301.349 72.240,300.771 72.213,299.020 72.652 C 296.077 73.390,294.850 73.667,294.524 73.667 C 293.976 73.667,292.630 74.166,292.083 74.573 C 291.808 74.777,291.171 75.132,290.667 75.362 C 289.676 75.812,288.681 76.736,287.173 78.605 C 285.693 80.440,285.196 83.987,285.893 87.750 C 286.261 89.741,286.126 89.482,287.946 91.693 C 288.729 92.643,290.142 93.799,290.778 94.009 C 291.085 94.110,291.841 94.471,292.459 94.811 C 293.238 95.238,294.060 95.520,295.134 95.726 C 295.986 95.890,297.104 96.168,297.618 96.345 C 298.805 96.754,299.620 96.751,301.128 96.333 C 301.791 96.149,302.877 95.923,303.542 95.830 C 304.606 95.682,306.698 94.876,308.443 93.942 C 309.157 93.561,311.153 91.824,311.444 91.332 C 311.997 90.396,313.728 90.202,314.513 90.987 C 314.989 91.463,315.000 91.513,315.000 93.214 C 315.000 95.742,316.197 96.707,317.649 95.350 L 318.167 94.866 318.167 81.757 C 318.167 66.959,318.168 66.984,317.064 64.814 C 316.662 64.024,316.333 63.266,316.333 63.131 C 316.333 62.072,312.611 59.011,310.417 58.264 C 309.683 58.015,308.671 57.610,308.167 57.364 L 307.250 56.917 302.083 56.883 L 296.917 56.849 295.140 57.486 M328.598 57.346 C 328.361 57.628,328.165 57.947,328.162 58.054 C 328.160 58.162,328.153 66.451,328.147 76.475 L 328.136 94.700 328.599 95.183 C 329.422 96.042,331.045 95.766,331.490 94.692 C 331.622 94.372,331.693 91.416,331.723 84.908 C 331.776 73.475,332.014 72.132,334.692 68.170 C 337.331 64.264,342.397 60.833,345.527 60.833 C 346.869 60.833,348.556 59.580,348.556 58.582 C 348.556 56.872,345.715 56.208,343.333 57.360 C 342.829 57.604,341.863 58.036,341.186 58.321 C 339.470 59.041,337.784 60.370,336.000 62.408 C 332.849 66.007,331.632 65.548,331.709 60.791 C 331.752 58.104,331.652 57.671,330.846 57.047 C 330.296 56.622,329.071 56.785,328.598 57.346 M372.417 60.062 C 375.637 61.240,378.885 64.336,379.858 67.156 C 380.030 67.655,380.389 68.450,380.655 68.922 C 381.798 70.947,381.806 74.195,380.671 74.961 L 380.105 75.341 367.594 75.296 C 356.911 75.257,355.029 75.214,354.713 75.005 C 353.726 74.350,353.647 72.165,354.543 70.278 C 354.878 69.573,355.202 68.715,355.263 68.373 C 355.389 67.666,355.821 66.880,356.346 66.406 C 356.542 66.228,356.852 65.783,357.034 65.417 C 358.174 63.129,362.310 60.104,364.652 59.846 C 366.511 59.642,371.658 59.784,372.417 60.062 M307.917 75.346 C 310.524 75.560,311.628 75.822,313.155 76.589 C 315.061 77.546,315.050 77.516,314.966 81.268 L 314.895 84.453 313.919 86.185 C 312.568 88.582,311.207 90.203,310.173 90.648 C 309.728 90.840,309.150 91.174,308.890 91.392 C 308.189 91.978,307.126 92.477,306.307 92.603 C 305.909 92.664,305.063 92.974,304.428 93.291 L 303.272 93.868 300.511 93.893 L 297.750 93.917 296.583 93.309 C 295.942 92.975,295.079 92.612,294.667 92.502 C 292.743 91.989,290.663 89.866,289.459 87.185 C 288.855 85.840,289.077 82.028,289.835 80.751 C 290.780 79.157,292.475 77.480,293.784 76.842 C 294.407 76.539,295.086 76.157,295.294 75.995 C 296.356 75.161,302.090 74.866,307.917 75.346 " stroke="none" fill="#858489" fill-rule="evenodd"></path><path id="path3" d="M68.000 46.673 C 58.406 46.773,58.420 46.771,57.744 47.842 C 57.516 48.204,57.262 48.500,57.179 48.500 C 56.414 48.500,56.334 49.487,56.330 58.928 C 56.326 67.389,56.307 67.957,56.010 68.612 C 55.448 69.851,55.951 69.791,45.949 69.812 L 36.981 69.831 36.231 70.290 C 35.818 70.543,35.308 70.843,35.097 70.956 C 34.887 71.069,34.516 71.604,34.273 72.144 L 33.833 73.127 33.875 81.951 L 33.917 90.775 34.364 91.429 C 35.993 93.809,35.272 93.667,45.680 93.667 L 54.542 93.667 55.734 93.009 C 56.728 92.460,56.993 92.219,57.337 91.551 L 57.750 90.750 57.833 81.027 L 57.917 71.304 58.384 70.902 C 58.983 70.387,58.321 70.418,68.583 70.418 L 77.417 70.417 78.236 69.986 C 78.874 69.649,79.196 69.321,79.698 68.490 L 80.342 67.426 80.296 58.409 L 80.250 49.392 79.798 48.709 C 78.401 46.599,78.214 46.566,68.000 46.673 " stroke="none" fill="#f7cd32" fill-rule="evenodd"></path><path id="path4" d="M45.500 24.222 C 45.087 24.336,44.451 24.632,44.086 24.881 C 43.721 25.130,43.294 25.333,43.138 25.333 C 42.981 25.333,42.811 25.402,42.759 25.485 C 42.707 25.569,42.370 25.687,42.011 25.748 C 40.685 25.972,36.693 29.582,35.682 31.471 C 35.307 32.172,33.964 35.581,33.734 36.417 C 33.568 37.017,33.503 38.375,33.502 41.267 C 33.499 47.076,33.637 46.893,29.387 46.732 C 26.273 46.613,24.124 46.803,22.582 47.334 C 22.050 47.517,21.441 47.667,21.229 47.667 C 20.181 47.667,17.312 49.527,15.743 51.223 C 13.752 53.376,13.324 53.969,12.933 55.118 C 12.721 55.741,12.351 56.626,12.110 57.086 C 11.393 58.456,11.386 58.719,11.407 81.921 L 11.428 104.259 12.030 105.526 C 12.361 106.224,12.752 107.207,12.899 107.713 C 13.297 109.082,16.137 112.403,17.655 113.274 C 18.074 113.514,18.604 113.876,18.833 114.077 C 19.075 114.290,20.498 114.842,22.221 115.393 L 25.192 116.341 46.289 116.328 L 67.386 116.315 68.901 115.838 C 69.735 115.575,71.017 115.200,71.750 115.003 C 72.483 114.806,73.233 114.512,73.417 114.348 C 73.600 114.184,74.187 113.806,74.720 113.506 C 75.662 112.978,78.167 110.692,78.167 110.361 C 78.167 110.271,78.494 109.796,78.893 109.305 C 79.600 108.438,80.247 106.849,81.053 104.000 C 81.354 102.938,81.483 98.255,81.261 96.464 C 80.952 93.978,81.646 93.454,85.154 93.525 C 89.044 93.602,93.973 92.844,95.043 92.002 C 95.279 91.817,95.885 91.459,96.390 91.207 C 97.619 90.595,99.366 89.129,100.207 88.001 C 100.584 87.496,101.108 86.801,101.372 86.456 C 101.636 86.111,101.967 85.436,102.107 84.956 C 102.340 84.157,102.921 82.680,103.394 81.683 C 103.533 81.390,103.583 75.235,103.583 58.683 L 103.583 36.083 103.142 35.229 C 102.899 34.758,102.497 33.783,102.249 33.062 C 101.269 30.215,97.751 26.722,94.583 25.449 C 93.942 25.191,93.004 24.778,92.500 24.532 L 91.583 24.083 68.917 24.049 C 51.280 24.022,46.084 24.061,45.500 24.222 M91.490 25.642 C 91.896 25.853,92.823 26.131,93.551 26.259 C 94.514 26.428,95.032 26.617,95.455 26.954 C 95.774 27.209,96.384 27.604,96.809 27.833 C 97.810 28.372,99.615 30.168,99.942 30.951 C 100.082 31.286,100.401 31.753,100.651 31.989 C 101.007 32.324,101.166 32.721,101.386 33.819 C 101.539 34.591,101.768 35.341,101.893 35.486 C 102.693 36.412,102.671 35.711,102.626 59.007 L 102.583 80.764 102.110 81.674 C 101.835 82.202,101.599 82.967,101.547 83.500 C 101.449 84.507,100.785 85.925,100.285 86.193 C 100.111 86.286,99.821 86.695,99.642 87.101 C 99.434 87.570,98.999 88.090,98.451 88.523 C 97.976 88.898,97.488 89.347,97.367 89.521 C 97.141 89.844,95.933 90.500,95.565 90.500 C 95.452 90.500,95.147 90.677,94.888 90.894 C 93.460 92.087,91.978 92.301,84.972 92.323 L 81.860 92.333 80.847 93.593 C 79.650 95.081,79.587 95.496,80.198 97.867 C 80.538 99.187,80.553 99.405,80.356 100.284 C 80.237 100.815,80.076 101.850,80.000 102.583 C 79.923 103.317,79.742 104.364,79.597 104.910 C 79.452 105.456,79.333 106.048,79.333 106.224 C 79.333 106.959,78.901 107.885,78.223 108.603 C 77.825 109.024,77.500 109.523,77.500 109.712 C 77.500 110.249,75.249 112.270,74.290 112.593 C 73.854 112.741,73.423 113.000,73.332 113.169 C 72.955 113.874,72.180 114.211,70.607 114.355 C 69.769 114.432,68.564 114.652,67.928 114.845 C 67.038 115.114,66.523 115.172,65.678 115.098 C 65.076 115.045,55.883 114.959,45.250 114.907 C 29.105 114.828,25.656 114.771,24.333 114.560 C 23.462 114.421,22.375 114.270,21.917 114.226 C 20.858 114.123,19.909 113.724,19.599 113.251 C 19.466 113.048,18.950 112.716,18.451 112.514 C 17.890 112.286,17.460 111.986,17.320 111.725 C 17.196 111.493,16.822 111.164,16.489 110.994 C 15.801 110.643,15.430 110.154,15.258 109.370 C 15.178 109.005,14.977 108.744,14.646 108.572 C 14.051 108.265,13.866 107.820,13.661 106.203 C 13.544 105.286,13.399 104.844,13.092 104.480 C 12.469 103.740,12.484 104.384,12.535 81.053 L 12.583 59.189 13.045 58.707 C 13.561 58.168,13.833 57.393,13.833 56.463 C 13.833 55.563,14.292 54.538,14.804 54.292 C 15.090 54.155,15.329 53.827,15.499 53.337 C 15.689 52.791,15.947 52.464,16.462 52.118 C 16.850 51.857,17.167 51.540,17.167 51.412 C 17.167 51.000,17.869 50.500,18.448 50.500 C 18.999 50.500,19.298 50.280,19.859 49.464 C 20.399 48.679,22.398 48.454,29.039 48.431 L 32.994 48.417 33.592 47.819 C 34.411 47.001,34.491 46.498,34.496 42.199 C 34.500 38.087,34.636 37.143,35.265 36.857 C 35.553 36.726,35.667 36.539,35.667 36.198 C 35.667 35.936,35.718 35.671,35.780 35.609 C 35.843 35.546,35.903 35.140,35.914 34.706 C 35.945 33.451,36.421 32.090,36.905 31.869 C 37.180 31.744,37.376 31.459,37.498 31.008 C 37.682 30.323,38.161 29.744,38.678 29.580 C 38.835 29.530,39.051 29.280,39.156 29.025 C 39.297 28.684,39.575 28.479,40.194 28.256 C 40.793 28.041,41.131 27.797,41.354 27.419 C 41.702 26.829,42.330 26.575,43.833 26.416 C 44.368 26.360,45.107 26.125,45.606 25.852 L 46.461 25.384 65.424 25.360 C 75.853 25.347,84.421 25.301,84.464 25.259 C 84.770 24.952,90.797 25.281,91.490 25.642 M51.000 36.672 C 48.823 37.441,48.707 37.505,48.240 38.215 C 47.986 38.601,47.650 39.008,47.494 39.119 C 46.270 39.992,45.821 43.173,45.850 50.775 C 45.863 54.272,45.824 57.214,45.763 57.312 C 45.703 57.410,45.774 57.724,45.922 58.010 C 46.667 59.451,46.288 59.512,36.788 59.482 C 27.543 59.453,27.726 59.431,26.651 60.696 C 26.247 61.171,25.573 61.910,25.153 62.337 C 23.961 63.551,23.999 62.911,24.006 81.319 C 24.012 98.164,24.020 98.390,24.689 100.201 C 25.052 101.185,26.745 102.824,27.843 103.254 C 29.854 104.042,29.523 104.030,46.697 103.943 L 62.929 103.860 64.160 103.430 C 64.837 103.194,65.423 103.000,65.462 103.000 C 65.649 103.000,67.896 100.692,68.109 100.281 C 68.502 99.524,68.619 96.716,68.581 88.917 C 68.550 82.559,68.579 81.545,68.798 81.292 C 69.033 81.021,69.654 80.999,77.234 80.993 C 81.735 80.989,85.718 80.927,86.087 80.855 C 87.341 80.612,90.037 78.367,90.241 77.396 C 90.301 77.109,90.569 76.191,90.835 75.355 L 91.320 73.835 91.330 58.709 C 91.337 49.729,91.277 43.346,91.184 43.000 C 90.189 39.304,89.078 37.799,86.772 37.020 L 85.632 36.635 69.024 36.564 C 59.890 36.526,52.304 36.461,52.167 36.421 C 52.029 36.381,51.504 36.494,51.000 36.672 M86.917 38.195 C 87.373 38.450,88.786 39.829,89.322 40.542 C 89.948 41.375,89.988 42.445,89.994 58.511 C 90.001 78.091,90.092 77.557,86.436 79.417 L 85.289 80.000 76.965 80.000 L 68.641 80.000 68.154 80.487 L 67.667 80.974 67.667 89.540 C 67.667 99.660,67.736 99.176,66.044 100.917 C 64.180 102.835,65.950 102.676,46.313 102.681 C 26.679 102.686,28.353 102.833,26.540 100.945 C 25.069 99.413,25.165 100.774,25.167 81.517 L 25.169 64.452 25.535 63.851 C 26.239 62.695,27.578 61.325,28.408 60.911 L 29.232 60.500 37.371 60.500 C 46.050 60.500,46.189 60.488,46.911 59.679 C 47.227 59.324,47.237 59.058,47.202 51.781 C 47.154 41.751,47.218 41.274,48.882 39.313 C 50.354 37.577,48.233 37.730,69.333 37.833 C 84.897 37.909,86.461 37.941,86.917 38.195 M58.799 46.122 C 57.905 46.351,57.340 46.672,56.547 47.402 C 55.483 48.383,55.500 48.198,55.530 58.485 C 55.561 68.592,55.582 68.344,54.662 68.836 C 54.428 68.961,51.521 69.003,45.191 68.972 L 36.058 68.926 35.571 69.306 C 35.303 69.515,34.821 69.850,34.500 70.051 C 34.089 70.309,33.753 70.757,33.363 71.567 L 32.809 72.718 32.814 81.628 C 32.820 91.618,32.803 91.463,34.005 92.865 C 34.472 93.409,34.964 93.762,35.629 94.031 L 36.583 94.416 45.833 94.416 C 54.358 94.417,55.145 94.393,55.864 94.115 C 57.675 93.417,59.179 90.610,58.941 88.375 C 58.885 87.848,58.829 84.083,58.817 80.008 L 58.795 72.599 59.317 72.133 L 59.839 71.667 68.243 71.667 L 76.648 71.667 77.808 71.237 C 79.079 70.765,80.401 69.621,80.953 68.513 C 81.310 67.796,81.512 50.118,81.175 49.000 C 80.850 47.920,79.228 46.403,78.167 46.188 C 76.796 45.909,59.854 45.851,58.799 46.122 M78.798 47.610 C 79.100 47.839,79.550 48.334,79.798 48.709 L 80.250 49.392 80.296 58.409 L 80.342 67.426 79.698 68.490 C 79.196 69.321,78.874 69.649,78.236 69.986 L 77.417 70.417 68.583 70.418 C 58.321 70.418,58.983 70.387,58.384 70.902 L 57.917 71.304 57.833 81.027 L 57.750 90.750 57.337 91.551 C 56.993 92.219,56.728 92.460,55.734 93.009 L 54.542 93.667 45.680 93.667 C 35.272 93.667,35.993 93.809,34.364 91.429 L 33.917 90.775 33.875 81.951 L 33.833 73.127 34.273 72.144 C 34.516 71.604,34.887 71.069,35.097 70.956 C 35.308 70.843,35.818 70.543,36.231 70.290 L 36.981 69.831 45.949 69.812 C 55.951 69.791,55.448 69.851,56.010 68.612 C 56.307 67.957,56.326 67.389,56.330 58.928 C 56.334 49.487,56.414 48.500,57.179 48.500 C 57.262 48.500,57.516 48.204,57.744 47.842 C 58.420 46.771,58.406 46.773,68.000 46.673 C 77.439 46.574,77.436 46.574,78.798 47.610 M121.727 55.808 C 118.454 57.967,117.858 60.073,119.555 63.481 C 119.983 64.341,120.335 65.166,120.338 65.314 C 120.340 65.462,120.605 65.996,120.926 66.500 C 121.247 67.004,121.656 67.905,121.833 68.501 C 122.011 69.098,122.395 69.960,122.686 70.418 C 122.978 70.876,123.399 71.850,123.623 72.583 C 123.847 73.317,124.211 74.108,124.432 74.342 C 124.652 74.576,125.057 75.383,125.332 76.136 C 125.607 76.888,126.013 77.784,126.236 78.127 C 126.458 78.470,126.796 79.264,126.987 79.893 C 127.177 80.521,127.515 81.251,127.737 81.515 C 128.162 82.020,128.833 83.633,128.833 84.150 C 128.833 84.318,128.969 84.634,129.135 84.853 C 129.724 85.628,130.306 86.769,130.419 87.369 C 130.482 87.704,130.825 88.479,131.182 89.090 C 131.540 89.701,131.948 90.544,132.091 90.963 C 132.233 91.382,132.571 92.050,132.841 92.446 C 133.112 92.842,133.555 93.492,133.827 93.889 C 134.988 95.590,138.022 97.500,139.562 97.500 C 141.804 97.500,145.422 94.621,146.496 91.982 C 146.767 91.316,147.215 90.408,147.490 89.965 C 147.766 89.521,148.177 88.626,148.403 87.975 C 148.629 87.324,148.960 86.632,149.138 86.437 C 149.316 86.243,149.665 85.488,149.913 84.760 C 150.161 84.032,150.534 83.207,150.740 82.927 C 150.947 82.646,151.309 81.885,151.544 81.236 C 151.780 80.586,152.206 79.687,152.491 79.237 C 152.777 78.787,153.157 77.931,153.336 77.334 C 153.515 76.738,153.913 75.836,154.220 75.329 C 154.527 74.823,154.939 73.880,155.135 73.233 C 155.331 72.587,155.693 71.764,155.940 71.404 C 156.186 71.044,156.565 70.262,156.783 69.667 C 157.000 69.071,157.358 68.312,157.577 67.981 C 157.796 67.649,158.060 67.065,158.163 66.681 C 158.499 65.434,160.420 64.884,161.935 65.603 C 162.702 65.967,162.648 65.000,162.712 79.667 C 162.776 94.389,162.676 93.278,164.091 94.934 C 166.775 98.076,169.884 98.040,172.401 94.837 C 173.849 92.993,173.740 94.067,173.833 80.738 L 173.917 68.892 174.369 68.238 C 175.994 65.888,176.060 65.833,178.075 65.160 C 179.755 64.599,181.178 64.524,182.250 64.940 C 182.617 65.082,183.225 65.309,183.602 65.445 C 184.494 65.765,186.312 67.756,186.516 68.635 C 186.594 68.973,186.661 73.906,186.663 79.596 C 186.668 93.165,186.778 93.881,189.164 95.889 C 191.278 97.668,192.576 97.855,194.437 96.650 C 197.973 94.360,197.848 94.945,197.833 80.794 L 197.822 70.005 198.508 68.756 C 200.296 65.497,204.131 63.714,206.632 64.980 C 206.972 65.152,207.494 65.345,207.793 65.410 C 208.915 65.652,210.667 67.620,210.667 68.637 C 210.667 68.905,210.796 69.453,210.955 69.854 C 211.214 70.510,211.252 71.683,211.334 81.500 L 211.426 92.417 211.921 93.670 C 212.606 95.403,212.743 95.554,214.482 96.499 C 216.485 97.588,217.022 97.604,218.791 96.633 C 220.984 95.430,221.487 94.703,221.999 92.004 C 222.091 91.518,222.151 85.980,222.142 78.755 L 222.126 66.340 221.661 64.563 C 221.406 63.586,221.040 62.591,220.849 62.352 C 220.658 62.112,220.344 61.624,220.151 61.265 C 219.170 59.445,215.390 56.586,213.170 55.987 C 212.572 55.825,211.558 55.501,210.917 55.267 C 209.093 54.600,206.671 54.719,205.058 55.553 C 204.769 55.703,203.883 55.970,203.090 56.147 C 202.251 56.334,201.390 56.646,201.032 56.893 C 200.694 57.126,199.994 57.509,199.478 57.745 C 198.962 57.980,198.209 58.464,197.804 58.821 C 196.343 60.106,195.241 60.095,193.826 58.778 C 193.317 58.304,192.529 57.708,192.075 57.454 C 191.621 57.199,191.005 56.813,190.707 56.594 C 190.398 56.369,189.788 56.146,189.295 56.078 C 188.818 56.012,187.750 55.737,186.922 55.466 C 184.735 54.751,183.097 54.675,181.583 55.221 C 180.942 55.452,179.742 55.842,178.917 56.087 C 178.092 56.332,176.967 56.816,176.417 57.163 C 175.867 57.510,175.209 57.842,174.956 57.901 C 174.703 57.960,174.087 58.377,173.589 58.828 C 172.186 60.099,170.790 60.095,169.570 58.818 C 167.286 56.429,160.786 54.297,158.417 55.160 C 156.946 55.696,156.182 55.936,155.250 56.155 C 154.792 56.262,154.154 56.557,153.833 56.810 C 153.512 57.063,152.897 57.511,152.464 57.806 C 151.496 58.466,149.591 60.787,149.073 61.937 C 148.862 62.407,148.464 63.158,148.187 63.607 C 147.911 64.056,147.604 64.786,147.505 65.229 C 147.309 66.102,147.053 66.662,146.425 67.587 C 146.202 67.915,145.932 68.607,145.825 69.125 C 145.600 70.206,145.407 70.686,144.872 71.488 C 144.663 71.802,144.335 72.574,144.144 73.205 C 143.952 73.835,143.539 74.725,143.224 75.181 C 142.878 75.684,142.531 76.500,142.344 77.250 C 142.174 77.931,141.874 78.747,141.679 79.063 C 141.484 79.379,141.212 80.015,141.075 80.476 C 140.400 82.748,138.454 82.552,137.847 80.153 C 137.672 79.458,137.304 78.536,137.030 78.104 C 136.756 77.672,136.404 76.779,136.247 76.118 C 136.090 75.457,135.787 74.654,135.574 74.333 C 135.066 73.571,134.500 72.231,134.500 71.792 C 134.500 71.601,134.193 70.886,133.818 70.202 C 133.442 69.518,132.962 68.361,132.749 67.631 C 132.537 66.901,132.210 66.141,132.023 65.941 C 131.618 65.510,131.237 64.640,131.010 63.629 C 130.920 63.225,130.585 62.462,130.267 61.933 C 129.949 61.405,129.608 60.600,129.511 60.144 C 129.245 58.906,128.908 58.374,127.511 56.991 C 125.059 54.564,123.954 54.338,121.727 55.808 M185.884 56.023 C 186.325 56.195,187.395 56.442,188.262 56.573 C 189.783 56.801,190.684 57.168,191.175 57.760 C 191.292 57.901,191.780 58.202,192.261 58.429 C 192.741 58.656,193.258 59.031,193.409 59.262 C 194.348 60.694,196.843 60.735,198.339 59.343 C 198.657 59.047,199.479 58.523,200.167 58.178 C 200.854 57.833,201.718 57.390,202.087 57.193 C 202.456 56.997,203.206 56.757,203.754 56.660 C 204.302 56.563,205.350 56.287,206.083 56.047 C 207.790 55.489,209.091 55.491,210.721 56.057 C 211.379 56.285,212.442 56.591,213.083 56.736 C 213.887 56.919,214.546 57.209,215.200 57.667 C 215.723 58.034,216.229 58.333,216.326 58.333 C 216.662 58.333,219.255 61.110,219.965 62.230 C 221.290 64.320,221.240 63.665,221.245 79.167 L 221.250 92.917 220.730 94.013 C 220.218 95.095,220.190 95.121,218.704 95.888 C 216.858 96.842,216.755 96.843,214.896 95.939 C 212.160 94.607,212.255 95.115,212.231 81.583 C 212.213 71.147,212.200 70.716,211.875 69.833 C 211.689 69.329,211.440 68.545,211.321 68.092 C 211.055 67.076,209.720 65.705,208.328 65.019 C 207.821 64.769,207.159 64.381,206.857 64.158 C 205.879 63.435,203.917 63.465,202.690 64.222 C 202.163 64.548,201.311 64.971,200.797 65.163 C 199.776 65.545,199.304 66.036,197.994 68.075 L 197.250 69.234 197.167 81.159 C 197.073 94.573,197.184 93.463,195.803 94.775 C 193.969 96.516,192.555 96.970,191.202 96.250 C 190.772 96.021,190.337 95.833,190.237 95.833 C 189.535 95.833,187.833 93.299,187.833 92.253 C 187.833 91.960,187.732 91.381,187.607 90.968 C 187.429 90.375,187.375 88.087,187.354 80.150 C 187.327 69.791,187.276 68.389,186.906 67.656 C 186.465 66.784,185.123 65.499,184.031 64.904 C 183.418 64.570,182.692 64.174,182.417 64.023 C 180.352 62.895,175.865 64.594,174.134 67.158 C 173.219 68.514,173.257 67.981,173.167 80.590 L 173.083 92.430 172.500 93.394 C 171.358 95.280,169.522 96.667,168.167 96.667 C 167.434 96.666,165.689 95.711,164.853 94.853 C 163.303 93.262,163.428 94.530,163.333 79.417 C 163.243 65.035,163.281 65.573,162.345 65.090 C 160.385 64.076,157.961 64.783,157.407 66.531 C 157.340 66.743,157.120 67.179,156.918 67.500 C 156.716 67.821,156.458 68.473,156.344 68.949 C 156.231 69.426,155.880 70.176,155.566 70.616 C 155.251 71.056,154.839 71.942,154.651 72.583 C 154.462 73.225,154.063 74.125,153.764 74.583 C 153.465 75.042,153.048 75.942,152.837 76.583 C 152.627 77.225,152.165 78.242,151.810 78.843 C 151.456 79.444,151.166 80.082,151.165 80.260 C 151.163 80.666,150.446 82.220,149.998 82.790 C 149.813 83.026,149.547 83.609,149.409 84.086 C 149.270 84.563,148.896 85.385,148.578 85.913 C 148.260 86.441,148.000 86.926,148.000 86.990 C 148.000 87.492,147.388 88.954,146.923 89.564 C 146.610 89.974,146.122 90.890,145.837 91.600 C 145.553 92.310,145.067 93.171,144.756 93.515 C 144.446 93.858,144.064 94.334,143.908 94.573 C 143.579 95.076,140.896 96.462,139.966 96.610 C 137.649 96.978,133.622 93.583,132.596 90.396 C 132.444 89.927,132.075 89.135,131.775 88.636 C 131.474 88.137,131.054 87.187,130.842 86.525 C 130.629 85.864,130.244 85.057,129.986 84.733 C 129.524 84.151,129.358 83.753,129.005 82.383 C 128.906 81.997,128.639 81.461,128.412 81.191 C 127.882 80.562,127.342 79.371,127.337 78.824 C 127.335 78.590,127.119 78.060,126.857 77.647 C 126.595 77.234,126.134 76.280,125.834 75.527 C 125.533 74.774,125.222 74.117,125.141 74.067 C 124.924 73.933,124.167 72.388,124.167 72.080 C 124.167 71.753,123.589 70.467,123.078 69.658 C 122.868 69.326,122.538 68.539,122.343 67.908 C 122.148 67.277,121.769 66.419,121.501 66.001 C 121.233 65.583,120.829 64.752,120.604 64.154 C 120.379 63.555,120.025 62.779,119.818 62.429 C 117.815 59.033,122.505 54.115,125.690 56.272 C 127.607 57.571,128.540 58.784,128.998 60.574 C 129.180 61.286,129.548 62.254,129.816 62.725 C 130.085 63.197,130.430 64.033,130.584 64.583 C 130.737 65.133,131.066 65.883,131.315 66.250 C 131.875 67.076,132.253 67.988,132.505 69.122 C 132.611 69.601,132.912 70.288,133.173 70.648 C 133.433 71.008,133.845 71.954,134.088 72.750 C 134.331 73.547,134.668 74.435,134.836 74.724 C 135.005 75.013,135.381 75.962,135.672 76.833 C 135.964 77.704,136.413 78.754,136.670 79.167 C 136.928 79.579,137.228 80.254,137.337 80.667 C 137.995 83.159,140.653 83.548,141.574 81.287 C 141.731 80.900,142.008 80.277,142.189 79.902 C 142.370 79.527,142.662 78.643,142.839 77.937 C 143.015 77.231,143.373 76.338,143.634 75.952 C 144.162 75.173,144.667 73.987,144.667 73.528 C 144.667 73.363,144.958 72.746,145.314 72.156 C 145.670 71.565,146.126 70.520,146.327 69.833 C 146.529 69.146,146.876 68.302,147.100 67.957 C 147.323 67.613,147.692 66.742,147.920 66.021 C 148.148 65.301,148.470 64.532,148.637 64.314 C 148.804 64.095,149.158 63.397,149.424 62.763 C 149.690 62.128,150.135 61.333,150.412 60.996 C 150.690 60.659,151.157 60.038,151.450 59.615 C 151.773 59.151,152.299 58.678,152.783 58.419 C 153.223 58.184,153.901 57.736,154.288 57.425 C 154.778 57.031,155.286 56.804,155.955 56.681 C 156.484 56.583,157.517 56.313,158.250 56.080 C 160.398 55.398,164.361 56.142,166.544 57.638 C 166.932 57.904,167.550 58.274,167.917 58.460 C 168.283 58.647,168.947 59.120,169.392 59.512 C 170.712 60.676,172.551 60.668,173.887 59.491 C 174.304 59.125,175.006 58.666,175.447 58.473 C 175.889 58.280,176.737 57.840,177.333 57.495 C 178.006 57.106,178.912 56.761,179.723 56.586 C 180.441 56.431,181.304 56.187,181.640 56.044 C 183.047 55.444,184.384 55.437,185.884 56.023 M365.583 56.166 C 364.047 56.301,363.975 56.320,361.750 57.191 C 358.174 58.590,355.201 60.846,353.874 63.167 C 353.638 63.579,353.157 64.300,352.804 64.768 C 352.451 65.236,352.039 65.986,351.887 66.435 C 351.736 66.883,351.434 67.535,351.215 67.883 C 350.093 69.675,349.281 76.142,349.809 79.083 C 349.907 79.633,350.110 80.871,350.259 81.833 C 350.835 85.557,354.194 91.026,356.992 92.800 C 357.500 93.122,358.163 93.599,358.464 93.860 C 358.765 94.120,359.103 94.334,359.214 94.335 C 359.326 94.335,360.017 94.684,360.750 95.110 C 361.792 95.715,362.466 95.966,363.833 96.261 C 364.796 96.468,366.146 96.799,366.833 96.997 C 368.381 97.443,369.608 97.396,371.917 96.800 C 372.833 96.564,374.149 96.247,374.841 96.096 C 375.532 95.945,376.320 95.697,376.591 95.545 C 376.862 95.393,377.733 94.927,378.528 94.509 C 382.768 92.280,384.443 90.362,383.600 88.699 C 382.622 86.769,381.445 86.862,379.107 89.053 C 378.636 89.495,377.688 90.154,377.000 90.517 C 376.313 90.881,375.521 91.324,375.241 91.502 C 374.477 91.988,372.791 92.161,368.917 92.151 C 364.347 92.140,364.006 92.085,362.562 91.125 C 361.920 90.698,361.197 90.273,360.956 90.182 C 360.715 90.090,360.024 89.496,359.420 88.862 C 358.421 87.812,358.041 87.336,356.532 85.250 C 356.232 84.834,356.009 84.270,355.940 83.750 C 355.869 83.221,355.601 82.551,355.206 81.917 C 354.386 80.599,354.327 79.431,355.045 78.712 L 355.508 78.250 369.691 78.212 L 383.875 78.174 384.562 77.766 C 384.941 77.541,385.512 77.135,385.833 76.864 L 386.417 76.370 386.417 74.643 C 386.417 72.974,386.396 72.877,385.795 71.723 C 385.397 70.959,385.090 70.058,384.942 69.223 C 384.263 65.373,379.383 59.060,376.214 57.931 C 375.867 57.808,374.908 57.393,374.083 57.008 C 372.111 56.090,369.440 55.825,365.583 56.166 M227.083 56.360 C 225.644 57.096,225.455 59.342,226.637 61.667 C 227.033 62.446,227.431 63.421,227.520 63.833 C 227.610 64.246,227.743 64.846,227.816 65.167 C 227.889 65.487,228.218 66.237,228.546 66.833 C 228.874 67.429,229.193 68.217,229.254 68.583 C 229.445 69.719,229.805 70.825,230.138 71.297 C 230.463 71.759,231.000 73.397,231.000 73.930 C 231.000 74.092,231.296 74.830,231.657 75.571 C 232.019 76.311,232.438 77.367,232.589 77.917 C 232.739 78.467,233.186 79.779,233.581 80.833 C 233.977 81.887,234.422 83.237,234.571 83.833 C 234.720 84.429,235.096 85.442,235.406 86.083 C 235.716 86.725,236.091 87.800,236.240 88.473 C 236.389 89.146,236.771 90.213,237.089 90.844 C 237.407 91.475,237.667 92.141,237.667 92.323 C 237.667 93.129,238.412 94.609,239.267 95.500 L 240.147 96.417 241.228 96.417 C 242.521 96.417,243.063 96.097,243.621 95.004 C 243.826 94.604,244.178 93.997,244.405 93.655 C 244.631 93.313,244.970 92.398,245.157 91.622 C 245.490 90.246,245.709 89.611,246.321 88.250 C 246.486 87.883,246.718 87.172,246.836 86.669 C 246.955 86.166,247.341 84.988,247.694 84.052 C 248.047 83.115,248.517 81.670,248.739 80.841 C 248.961 80.011,249.330 78.938,249.558 78.455 C 249.786 77.972,250.128 76.970,250.317 76.229 C 250.507 75.487,250.949 74.288,251.300 73.565 C 251.651 72.842,252.075 71.650,252.242 70.917 C 252.430 70.091,252.736 69.305,253.047 68.851 C 253.395 68.344,253.580 67.833,253.650 67.190 C 253.946 64.455,256.037 65.905,256.573 69.217 C 256.716 70.096,256.942 70.851,257.151 71.145 C 257.696 71.910,258.102 72.989,258.320 74.250 C 258.444 74.970,258.740 75.809,259.093 76.442 C 259.407 77.005,259.774 77.990,259.909 78.631 C 260.044 79.271,260.351 80.235,260.592 80.773 C 260.834 81.310,261.317 82.698,261.668 83.856 C 262.018 85.014,262.428 86.200,262.578 86.490 C 262.729 86.781,262.990 87.559,263.159 88.218 C 263.736 90.474,264.046 91.409,264.353 91.829 C 264.523 92.061,264.804 92.827,264.979 93.532 C 265.380 95.149,265.769 95.693,266.857 96.161 C 268.553 96.890,270.406 96.087,270.852 94.429 C 270.951 94.061,271.298 93.233,271.623 92.589 C 271.948 91.944,272.321 90.892,272.453 90.250 C 272.584 89.608,272.946 88.626,273.257 88.067 C 273.567 87.508,274.012 86.316,274.246 85.417 C 274.479 84.519,274.812 83.551,274.985 83.267 C 275.159 82.983,275.465 82.188,275.666 81.500 C 276.195 79.692,276.660 78.330,276.920 77.827 C 277.045 77.585,277.404 76.513,277.718 75.444 C 278.032 74.374,278.491 73.207,278.738 72.850 C 279.050 72.400,279.253 71.796,279.400 70.877 C 279.546 69.964,279.784 69.253,280.164 68.587 C 280.468 68.056,280.819 67.126,280.943 66.519 C 281.068 65.913,281.390 64.967,281.660 64.417 C 282.356 62.997,282.612 62.314,282.744 61.533 C 282.808 61.158,283.088 60.506,283.367 60.085 C 284.804 57.915,282.447 55.306,280.069 56.434 C 279.359 56.772,278.937 57.454,278.585 58.833 C 278.433 59.429,278.128 60.228,277.906 60.609 C 277.685 60.990,277.358 61.928,277.179 62.693 C 276.844 64.124,276.599 64.808,275.902 66.253 C 275.680 66.713,275.396 67.580,275.270 68.181 C 275.145 68.781,274.770 69.785,274.438 70.411 C 274.105 71.038,273.833 71.750,273.833 71.995 C 273.833 72.659,273.379 74.097,272.737 75.465 C 272.423 76.133,272.167 76.783,272.167 76.910 C 272.167 77.535,271.555 79.385,270.900 80.741 C 270.383 81.810,270.124 82.599,270.020 83.420 C 269.741 85.632,269.295 86.544,268.382 86.774 C 267.219 87.066,266.792 86.237,265.495 81.167 C 265.295 80.388,264.950 79.440,264.728 79.060 C 264.505 78.680,264.210 77.818,264.073 77.143 C 263.935 76.469,263.573 75.392,263.268 74.750 C 262.963 74.108,262.548 72.946,262.347 72.167 C 262.146 71.389,261.755 70.339,261.479 69.834 C 261.203 69.330,260.834 68.253,260.658 67.442 C 260.483 66.630,260.086 65.468,259.777 64.858 C 259.468 64.249,259.123 63.225,259.010 62.583 C 258.553 59.991,257.116 57.101,256.006 56.542 C 253.865 55.462,252.018 57.163,251.167 61.000 C 251.055 61.504,250.790 62.220,250.578 62.591 C 250.366 62.962,250.066 63.787,249.912 64.424 C 249.757 65.062,249.405 66.108,249.129 66.750 C 248.853 67.392,248.452 68.568,248.238 69.364 C 248.024 70.160,247.592 71.322,247.278 71.947 C 246.964 72.572,246.590 73.646,246.449 74.333 C 246.151 75.775,245.944 76.369,245.527 76.980 C 245.210 77.444,245.015 78.048,244.585 79.899 C 244.438 80.531,244.059 81.548,243.742 82.160 C 243.426 82.771,243.165 83.492,243.163 83.761 C 243.144 86.290,240.628 86.823,239.980 84.436 C 239.878 84.059,239.585 83.300,239.329 82.750 C 239.073 82.200,238.697 81.112,238.493 80.333 C 238.289 79.554,237.866 78.354,237.552 77.667 C 237.239 76.979,236.833 75.744,236.649 74.921 C 236.466 74.099,236.226 73.265,236.116 73.067 C 236.007 72.870,235.788 72.482,235.630 72.206 C 235.473 71.930,235.225 71.114,235.080 70.393 C 234.935 69.673,234.567 68.558,234.262 67.917 C 233.580 66.481,233.554 66.406,233.256 64.974 C 233.123 64.337,232.783 63.411,232.500 62.917 C 232.217 62.422,231.872 61.470,231.732 60.801 C 230.998 57.279,229.006 55.376,227.083 56.360 M295.500 56.590 C 290.531 57.971,288.739 59.329,289.491 61.144 C 290.104 62.625,291.840 62.654,295.417 61.244 C 297.808 60.302,304.906 60.160,306.583 61.021 C 307.042 61.257,307.825 61.592,308.325 61.766 C 309.784 62.276,312.693 65.177,313.070 66.500 C 313.136 66.729,313.422 67.390,313.708 67.967 C 314.334 69.238,314.586 72.287,314.116 72.910 C 313.792 73.340,311.407 73.303,309.333 72.836 C 303.412 71.502,299.977 71.437,296.000 72.581 C 295.221 72.805,294.029 73.147,293.353 73.339 C 292.676 73.532,291.926 73.826,291.686 73.992 C 291.446 74.157,290.752 74.564,290.143 74.895 C 288.682 75.689,285.987 78.645,285.677 79.795 C 284.537 84.017,284.453 85.028,285.062 87.225 C 285.294 88.064,285.567 89.073,285.668 89.467 C 285.768 89.862,286.016 90.347,286.217 90.546 C 286.419 90.745,286.921 91.324,287.333 91.833 C 288.474 93.241,289.473 94.081,290.705 94.670 C 291.320 94.964,291.910 95.308,292.016 95.435 C 292.121 95.563,292.292 95.667,292.395 95.668 C 292.499 95.668,292.780 95.771,293.021 95.897 C 293.261 96.022,293.960 96.213,294.573 96.319 C 295.186 96.426,296.377 96.744,297.219 97.027 C 298.987 97.619,300.157 97.612,301.589 96.998 C 302.044 96.802,303.092 96.503,303.917 96.333 C 305.674 95.971,306.086 95.827,306.986 95.259 C 307.354 95.026,308.038 94.691,308.505 94.514 C 309.381 94.181,310.199 93.557,311.745 92.042 C 313.449 90.372,314.289 90.828,314.386 93.476 C 314.488 96.242,316.244 97.508,317.935 96.035 C 318.915 95.181,318.873 95.716,318.939 83.261 C 319.013 69.510,318.793 66.042,317.752 64.500 C 317.535 64.179,317.133 63.429,316.859 62.833 C 315.879 60.704,313.213 58.449,310.640 57.574 C 309.975 57.348,309.125 57.015,308.752 56.834 C 307.049 56.010,298.177 55.847,295.500 56.590 M328.483 56.562 C 327.874 56.984,327.650 57.383,327.348 58.583 C 327.120 59.487,327.122 93.000,327.350 93.917 C 327.766 95.588,328.524 96.333,329.809 96.333 C 332.378 96.333,332.503 95.803,332.388 85.356 L 332.296 77.083 332.735 75.250 C 333.373 72.586,334.318 69.813,334.752 69.333 C 334.959 69.104,335.259 68.654,335.419 68.333 C 335.765 67.640,337.337 65.754,337.970 65.274 C 338.216 65.088,338.706 64.680,339.060 64.368 C 339.414 64.056,339.976 63.687,340.310 63.548 C 340.644 63.409,341.122 63.149,341.373 62.971 C 342.005 62.522,344.601 61.667,345.332 61.667 C 346.009 61.667,347.433 61.023,348.375 60.291 C 349.292 59.578,349.320 57.844,348.429 56.873 L 347.858 56.250 345.971 56.263 C 343.634 56.278,340.549 57.406,338.873 58.856 C 338.574 59.115,338.124 59.435,337.873 59.567 C 337.622 59.699,336.892 60.423,336.250 61.176 C 334.219 63.559,334.098 63.667,333.437 63.667 C 332.450 63.667,332.329 63.306,332.376 60.490 C 332.412 58.340,332.381 58.023,332.083 57.517 C 331.313 56.209,329.633 55.763,328.483 56.562 M229.250 57.074 C 229.839 57.459,230.832 59.601,231.176 61.227 C 231.353 62.065,231.757 63.275,232.075 63.917 C 232.392 64.558,232.770 65.634,232.915 66.306 C 233.059 66.979,233.429 68.029,233.736 68.640 C 234.043 69.250,234.385 70.200,234.496 70.750 C 234.607 71.300,234.958 72.333,235.277 73.046 C 235.595 73.759,236.029 75.034,236.241 75.879 C 236.453 76.725,236.868 78.017,237.162 78.750 C 237.456 79.483,237.882 80.793,238.107 81.660 C 238.333 82.527,238.588 83.321,238.674 83.425 C 238.760 83.529,239.059 84.168,239.338 84.844 C 240.259 87.077,241.426 87.572,242.781 86.303 C 243.330 85.789,245.153 81.051,245.478 79.293 C 245.573 78.777,245.871 77.918,246.139 77.385 C 246.407 76.853,246.790 75.779,246.990 75.000 C 247.190 74.221,247.468 73.358,247.606 73.083 C 248.052 72.199,248.500 70.944,248.751 69.874 C 248.886 69.300,249.181 68.464,249.408 68.017 C 249.635 67.569,249.946 66.689,250.099 66.060 C 250.253 65.431,250.664 64.279,251.013 63.500 C 251.361 62.721,251.769 61.522,251.918 60.836 C 252.734 57.077,255.649 55.345,256.654 58.022 C 257.223 59.536,257.409 60.000,257.858 61.025 C 258.125 61.635,258.426 62.610,258.527 63.192 C 258.627 63.774,258.994 64.833,259.341 65.546 C 259.719 66.323,260.050 67.325,260.169 68.046 C 260.293 68.805,260.570 69.620,260.917 70.250 C 261.221 70.800,261.624 71.905,261.814 72.706 C 262.004 73.506,262.387 74.613,262.666 75.166 C 262.945 75.718,263.331 76.863,263.525 77.710 C 263.718 78.557,264.008 79.512,264.168 79.833 C 264.557 80.610,265.247 82.787,265.593 84.333 C 266.122 86.695,266.768 87.501,268.133 87.499 C 269.598 87.498,270.230 86.630,270.579 84.140 C 270.766 82.807,270.924 82.274,271.320 81.637 C 271.778 80.900,272.833 77.922,272.833 77.367 C 272.833 77.241,273.084 76.563,273.391 75.860 C 273.697 75.158,274.119 73.908,274.327 73.083 C 274.535 72.258,274.927 71.144,275.198 70.606 C 275.469 70.069,275.758 69.211,275.841 68.700 C 275.925 68.189,276.294 67.128,276.663 66.344 C 277.031 65.559,277.449 64.401,277.592 63.771 C 277.734 63.140,278.071 62.165,278.341 61.604 C 278.610 61.043,278.979 59.946,279.161 59.167 C 279.569 57.412,280.081 56.833,281.228 56.833 C 283.367 56.833,283.379 59.185,281.262 63.583 C 280.865 64.408,280.447 65.533,280.334 66.083 C 280.221 66.633,279.874 67.576,279.564 68.177 C 279.254 68.779,279.000 69.499,279.000 69.776 C 279.000 70.521,278.620 71.650,278.084 72.499 C 277.824 72.911,277.442 73.849,277.236 74.583 C 277.030 75.316,276.593 76.572,276.264 77.372 C 275.936 78.172,275.667 78.935,275.667 79.067 C 275.667 79.409,274.710 82.139,274.348 82.833 C 274.180 83.154,273.910 83.979,273.747 84.667 C 273.585 85.354,273.174 86.479,272.833 87.167 C 272.493 87.854,272.081 88.979,271.917 89.667 C 271.753 90.354,271.369 91.418,271.063 92.030 C 270.758 92.642,270.458 93.455,270.397 93.837 C 269.912 96.871,266.262 96.373,265.510 93.170 C 265.318 92.354,264.945 91.204,264.681 90.615 C 264.417 90.026,264.038 88.915,263.841 88.147 C 263.643 87.379,263.216 86.079,262.893 85.258 C 262.570 84.438,262.172 83.238,262.008 82.592 C 261.844 81.945,261.508 80.967,261.262 80.417 C 261.016 79.867,260.659 78.817,260.470 78.083 C 260.281 77.350,259.878 76.257,259.576 75.656 C 259.274 75.054,258.977 74.266,258.916 73.906 C 258.743 72.878,258.324 71.646,257.896 70.905 C 257.680 70.533,257.326 69.441,257.109 68.481 C 256.530 65.919,255.959 65.162,254.612 65.172 C 253.568 65.180,253.152 65.611,252.931 66.917 C 252.868 67.283,252.604 67.996,252.344 68.500 C 252.084 69.004,251.783 69.942,251.674 70.583 C 251.544 71.349,251.255 72.152,250.831 72.920 C 250.471 73.573,250.000 74.805,249.766 75.706 C 249.535 76.595,249.199 77.610,249.019 77.962 C 248.840 78.314,248.393 79.573,248.026 80.759 C 246.927 84.318,245.825 87.547,245.498 88.169 C 245.329 88.490,244.999 89.527,244.765 90.472 C 244.531 91.418,244.082 92.692,243.767 93.304 C 243.453 93.916,243.098 94.629,242.979 94.889 C 241.860 97.328,239.054 95.493,238.179 91.750 C 238.072 91.292,237.812 90.579,237.601 90.167 C 237.390 89.754,237.048 88.782,236.841 88.006 C 236.634 87.231,236.284 86.187,236.062 85.686 C 235.841 85.186,235.431 83.989,235.150 83.027 C 234.870 82.065,234.319 80.559,233.926 79.680 C 233.533 78.802,233.159 77.726,233.095 77.290 C 233.031 76.854,232.691 75.916,232.339 75.207 C 231.987 74.497,231.605 73.467,231.489 72.917 C 231.373 72.367,230.990 71.354,230.637 70.667 C 230.275 69.962,229.925 68.981,229.835 68.417 C 229.746 67.867,229.409 66.892,229.086 66.250 C 228.762 65.608,228.383 64.574,228.244 63.951 C 227.936 62.581,227.438 61.282,226.968 60.622 C 225.513 58.578,227.300 55.799,229.250 57.074 M373.224 57.409 C 373.882 57.726,374.938 58.180,375.570 58.418 C 377.434 59.119,380.651 61.835,381.430 63.363 C 381.648 63.792,381.902 64.190,381.994 64.247 C 382.382 64.486,384.120 68.462,384.328 69.583 C 384.446 70.225,384.799 71.315,385.112 72.006 C 385.643 73.179,385.677 73.361,385.632 74.749 L 385.583 76.235 384.861 76.743 L 384.138 77.250 369.777 77.333 C 353.662 77.427,354.579 77.351,354.148 78.622 C 353.695 79.957,353.916 81.214,354.924 83.028 C 355.060 83.272,355.236 83.816,355.314 84.236 C 355.393 84.656,355.656 85.243,355.900 85.541 C 356.144 85.839,356.670 86.571,357.068 87.167 C 358.044 88.628,359.914 90.472,360.833 90.880 C 361.246 91.063,361.846 91.417,362.167 91.666 C 363.150 92.429,363.485 92.535,365.654 92.766 C 369.602 93.187,374.275 92.859,375.629 92.066 C 376.034 91.828,376.806 91.415,377.343 91.149 C 377.881 90.882,379.011 90.064,379.856 89.332 C 381.494 87.910,381.970 87.733,382.653 88.292 C 383.559 89.032,382.980 90.889,381.548 91.833 C 381.201 92.063,380.593 92.493,380.198 92.790 C 378.541 94.034,374.934 95.574,373.250 95.756 C 372.700 95.815,371.613 96.014,370.833 96.198 C 369.317 96.555,368.299 96.527,366.508 96.077 C 365.999 95.949,364.947 95.767,364.170 95.672 C 363.025 95.532,362.577 95.389,361.811 94.916 C 361.292 94.596,360.802 94.333,360.724 94.333 C 360.433 94.333,358.901 93.448,358.417 93.000 C 358.142 92.745,357.654 92.407,357.333 92.248 C 356.632 91.900,354.399 89.642,354.241 89.121 C 354.179 88.917,353.954 88.517,353.740 88.232 C 352.855 87.050,351.013 82.942,350.832 81.750 C 350.102 76.925,350.549 70.300,351.734 68.381 C 352.064 67.847,352.334 67.299,352.335 67.163 C 352.337 66.780,353.081 65.277,353.398 65.015 C 353.554 64.885,353.949 64.323,354.275 63.765 C 354.600 63.207,355.103 62.520,355.392 62.239 C 355.680 61.958,356.132 61.486,356.396 61.190 C 356.660 60.894,357.161 60.506,357.510 60.328 C 357.859 60.150,358.190 59.930,358.246 59.839 C 358.607 59.255,363.496 57.117,365.113 56.836 C 365.555 56.759,367.291 56.727,368.972 56.765 L 372.027 56.834 373.224 57.409 M308.167 57.364 C 308.671 57.610,309.683 58.015,310.417 58.264 C 311.658 58.686,312.519 59.171,313.750 60.141 C 314.507 60.738,316.333 62.852,316.333 63.131 C 316.333 63.266,316.662 64.024,317.064 64.814 C 318.168 66.984,318.167 66.959,318.167 81.757 L 318.167 94.866 317.649 95.350 C 316.197 96.707,315.000 95.742,315.000 93.214 C 315.000 91.513,314.989 91.463,314.513 90.987 C 313.728 90.202,311.997 90.396,311.444 91.332 C 311.153 91.824,309.157 93.561,308.443 93.942 C 306.698 94.876,304.606 95.682,303.542 95.830 C 302.877 95.923,301.791 96.149,301.128 96.333 C 299.620 96.751,298.805 96.754,297.618 96.345 C 297.104 96.168,295.986 95.890,295.134 95.726 C 294.060 95.520,293.238 95.238,292.459 94.811 C 291.841 94.471,291.085 94.110,290.778 94.009 C 290.142 93.799,288.729 92.643,287.946 91.693 C 286.126 89.482,286.261 89.741,285.893 87.750 C 285.196 83.987,285.693 80.440,287.173 78.605 C 288.681 76.736,289.676 75.812,290.667 75.362 C 291.171 75.132,291.808 74.777,292.083 74.573 C 292.630 74.166,293.976 73.667,294.524 73.667 C 294.850 73.667,296.077 73.390,299.020 72.652 C 300.771 72.213,301.349 72.240,306.269 72.996 C 312.340 73.929,313.777 74.010,314.423 73.452 L 314.917 73.026 314.892 70.804 L 314.868 68.583 313.938 66.667 C 312.758 64.232,310.805 62.110,309.000 61.303 C 308.404 61.036,307.504 60.616,307.000 60.368 C 304.950 59.359,297.508 59.625,294.284 60.821 C 292.027 61.658,290.921 61.755,290.333 61.167 C 289.410 60.243,290.745 58.615,292.732 58.242 C 293.080 58.177,294.164 57.837,295.140 57.486 L 296.917 56.849 302.083 56.883 L 307.250 56.917 308.167 57.364 M330.846 57.047 C 331.652 57.671,331.752 58.104,331.709 60.791 C 331.632 65.548,332.849 66.007,336.000 62.408 C 337.784 60.370,339.470 59.041,341.186 58.321 C 341.863 58.036,342.829 57.604,343.333 57.360 C 345.715 56.208,348.556 56.872,348.556 58.582 C 348.556 59.580,346.869 60.833,345.527 60.833 C 342.397 60.833,337.331 64.264,334.692 68.170 C 332.014 72.132,331.776 73.475,331.723 84.908 C 331.693 91.416,331.622 94.372,331.490 94.692 C 331.045 95.766,329.422 96.042,328.599 95.183 L 328.136 94.700 328.147 76.475 C 328.153 66.451,328.160 58.162,328.162 58.054 C 328.183 57.140,330.056 56.436,330.846 57.047 M364.652 59.846 C 362.310 60.104,358.174 63.129,357.034 65.417 C 356.852 65.783,356.542 66.228,356.346 66.406 C 355.821 66.880,355.389 67.666,355.263 68.373 C 355.202 68.715,354.878 69.573,354.543 70.278 C 353.647 72.165,353.726 74.350,354.713 75.005 C 355.029 75.214,356.911 75.257,367.594 75.296 L 380.105 75.341 380.671 74.961 C 381.806 74.195,381.798 70.947,380.655 68.922 C 380.389 68.450,380.030 67.655,379.858 67.156 C 378.885 64.336,375.637 61.240,372.417 60.062 C 371.658 59.784,366.511 59.642,364.652 59.846 M373.435 61.300 C 376.186 62.675,379.499 66.444,379.500 68.200 C 379.500 68.356,379.779 69.018,380.120 69.671 C 381.027 71.408,381.121 73.449,380.333 74.295 L 379.987 74.667 367.902 74.667 C 354.783 74.667,355.125 74.690,354.699 73.755 C 354.332 72.950,354.462 72.127,355.169 70.786 C 355.536 70.088,355.884 69.179,355.940 68.765 C 356.004 68.303,356.262 67.705,356.609 67.215 C 356.919 66.776,357.431 66.042,357.745 65.583 C 358.869 63.945,361.058 62.020,362.830 61.112 C 364.192 60.415,364.761 60.343,368.417 60.403 L 371.750 60.458 373.435 61.300 M299.839 75.200 C 297.055 75.327,295.884 75.531,295.294 75.995 C 295.086 76.157,294.407 76.539,293.784 76.842 C 292.475 77.480,290.780 79.157,289.835 80.751 C 289.077 82.028,288.855 85.840,289.459 87.185 C 290.663 89.866,292.743 91.989,294.667 92.502 C 295.079 92.612,295.942 92.975,296.583 93.309 L 297.750 93.917 300.511 93.893 L 303.272 93.868 304.428 93.291 C 305.063 92.974,305.909 92.664,306.307 92.603 C 307.126 92.477,308.189 91.978,308.890 91.392 C 309.150 91.174,309.728 90.840,310.173 90.648 C 311.207 90.203,312.568 88.582,313.919 86.185 L 314.895 84.453 314.966 81.268 C 315.050 77.516,315.061 77.546,313.155 76.589 C 310.733 75.373,306.274 74.908,299.839 75.200 M308.821 76.003 C 310.033 76.162,311.249 76.539,312.250 77.067 C 312.525 77.212,312.862 77.332,313.000 77.333 C 313.137 77.334,313.494 77.483,313.792 77.665 L 314.333 77.995 314.333 80.969 C 314.333 83.751,314.309 83.991,313.949 84.680 C 312.864 86.758,312.307 87.652,311.672 88.334 C 311.288 88.746,310.855 89.257,310.711 89.469 C 310.566 89.681,310.066 90.047,309.599 90.284 C 309.132 90.520,308.442 90.966,308.065 91.274 C 307.686 91.584,307.054 91.904,306.649 91.990 C 305.336 92.269,304.763 92.441,303.937 92.807 C 302.470 93.456,298.604 93.284,296.500 92.476 C 295.996 92.282,295.241 91.993,294.823 91.834 C 293.500 91.330,291.333 89.485,291.333 88.862 C 291.333 88.769,291.156 88.480,290.939 88.221 C 289.483 86.479,289.361 83.291,290.662 80.936 C 291.560 79.311,293.267 77.589,294.250 77.317 C 294.617 77.216,295.346 76.869,295.871 76.546 C 297.242 75.701,304.258 75.407,308.821 76.003 " stroke="none" fill="#bac098" fill-rule="evenodd"></path></g></svg>