<svg id="svg" version="1.1" xmlns="http://www.w3.org/2000/svg" xmlns:xlink="http://www.w3.org/1999/xlink" width="400" height="400" viewBox="0, 0, 400,400"><g id="svgg"><path id="path0" d="M94.856 45.190 C 93.835 46.319,91.605 48.654,89.900 50.379 C 88.195 52.104,86.800 53.709,86.800 53.945 C 86.800 54.181,85.855 55.073,84.700 55.927 C 83.545 56.780,82.150 57.981,81.600 58.595 C 79.904 60.490,78.590 61.745,76.854 63.128 C 75.937 63.858,74.943 65.040,74.645 65.753 C 74.339 66.487,73.211 67.692,72.051 68.525 C 70.923 69.336,69.336 70.923,68.525 72.051 C 67.692 73.211,66.487 74.339,65.753 74.645 C 65.040 74.943,63.858 75.937,63.128 76.854 C 61.745 78.590,60.490 79.904,58.595 81.600 C 57.981 82.150,56.780 83.545,55.927 84.700 C 55.073 85.855,54.186 86.800,53.956 86.800 C 53.725 86.800,52.156 88.133,50.468 89.762 C 48.781 91.391,46.432 93.639,45.248 94.757 C 42.809 97.061,42.869 97.759,45.646 99.400 C 47.306 100.381,87.581 100.862,93.912 99.977 C 100.526 99.052,100.492 99.222,100.322 68.800 C 100.201 47.155,100.194 46.990,99.323 45.600 C 97.638 42.912,96.973 42.851,94.856 45.190 M98.952 48.302 C 99.532 52.531,99.223 91.039,98.585 94.074 C 97.482 99.319,97.777 99.269,68.963 99.116 L 47.000 99.000 45.673 98.005 L 44.345 97.009 46.273 95.266 C 47.333 94.308,49.460 92.305,51.000 90.817 C 52.540 89.328,54.194 87.905,54.675 87.654 C 55.156 87.404,56.304 86.123,57.226 84.808 C 58.149 83.494,59.487 82.074,60.200 81.653 C 60.913 81.233,61.834 80.404,62.248 79.811 C 63.941 77.385,65.407 75.911,66.862 75.168 C 67.708 74.737,68.829 73.712,69.352 72.892 C 70.374 71.291,71.547 70.153,73.295 69.068 C 73.897 68.694,74.741 67.699,75.171 66.856 C 75.911 65.406,77.387 63.940,79.811 62.248 C 80.404 61.834,81.241 60.899,81.671 60.169 C 82.102 59.439,83.430 58.194,84.622 57.403 C 85.814 56.611,87.107 55.486,87.495 54.903 C 87.883 54.319,89.550 52.455,91.200 50.760 C 92.850 49.065,94.823 46.922,95.584 45.997 L 96.968 44.316 97.836 45.404 C 98.313 46.003,98.816 47.307,98.952 48.302 M101.569 151.569 L 100.400 152.738 100.400 212.715 L 100.400 272.692 101.229 273.746 L 102.058 274.800 231.400 274.800 L 360.742 274.800 361.571 273.746 L 362.400 272.692 362.400 212.715 L 362.400 152.738 361.231 151.569 L 360.062 150.400 231.400 150.400 L 102.738 150.400 101.569 151.569 M161.600 174.949 C 162.195 175.224,163.217 176.541,164.125 178.205 C 165.015 179.835,166.170 181.333,166.897 181.800 C 168.288 182.692,170.605 186.860,170.995 189.172 C 171.387 191.489,171.628 191.650,175.053 191.885 C 178.762 192.139,178.770 192.134,179.752 188.400 C 180.555 185.347,182.423 182.154,183.766 181.543 C 184.350 181.277,185.310 179.942,186.258 178.080 C 188.088 174.484,188.852 174.077,193.851 174.030 C 200.070 173.972,201.596 175.469,201.599 181.629 C 201.600 186.581,200.899 188.692,198.573 190.740 C 197.186 191.961,196.518 193.038,195.373 195.906 C 193.945 199.482,193.635 199.950,191.296 202.083 C 190.502 202.806,190.020 203.716,189.843 204.820 C 189.698 205.729,189.224 207.170,188.789 208.021 C 187.631 210.292,187.728 214.279,189.045 218.472 C 190.453 222.954,190.608 223.235,192.368 224.489 C 193.667 225.414,194.127 226.187,195.435 229.639 C 196.675 232.916,197.260 233.932,198.455 234.892 C 200.522 236.554,201.470 239.033,201.783 243.600 C 202.217 249.945,200.443 252.000,194.528 252.000 C 189.311 252.000,187.810 251.056,185.801 246.511 C 185.168 245.079,184.381 243.921,183.947 243.783 C 182.654 243.373,180.551 240.167,179.838 237.518 C 178.662 233.151,178.715 233.200,175.200 233.200 C 171.759 233.200,171.675 233.268,170.775 236.798 C 170.070 239.564,169.056 241.219,166.732 243.401 C 165.559 244.501,164.150 246.297,163.600 247.390 C 161.062 252.437,152.124 252.753,150.004 247.872 C 148.006 243.271,148.647 238.177,151.604 235.157 C 152.985 233.747,153.800 232.355,154.962 229.419 C 155.806 227.286,156.751 225.330,157.062 225.071 C 157.373 224.812,157.879 224.375,158.185 224.100 C 158.492 223.825,158.905 223.600,159.104 223.600 C 159.584 223.600,160.289 222.126,160.627 220.416 C 160.777 219.655,161.238 218.245,161.650 217.283 C 162.677 214.887,162.668 210.312,161.632 207.951 C 161.209 206.988,160.739 205.523,160.586 204.695 C 160.389 203.624,159.757 202.661,158.393 201.354 C 156.825 199.851,156.215 198.824,155.030 195.691 C 153.852 192.574,153.230 191.524,151.681 190.032 C 148.019 186.506,147.895 177.660,151.475 175.314 C 153.253 174.149,159.390 173.927,161.600 174.949 M223.266 174.467 C 224.700 174.897,224.955 175.206,226.429 178.310 C 227.311 180.166,228.630 182.251,229.361 182.942 C 230.868 184.370,232.171 186.740,232.581 188.800 C 232.734 189.570,233.239 191.145,233.703 192.300 L 234.547 194.400 237.866 194.400 C 241.162 194.400,241.186 194.392,241.423 193.300 C 241.555 192.695,241.813 191.840,241.998 191.400 C 242.182 190.960,242.540 189.700,242.793 188.600 C 243.338 186.228,244.859 183.482,246.106 182.617 C 246.598 182.276,247.720 180.512,248.600 178.698 C 250.612 174.550,251.220 174.200,256.400 174.200 C 260.910 174.200,262.171 174.707,263.366 177.000 C 264.668 179.499,264.680 246.183,263.378 248.399 C 260.690 252.975,252.099 252.975,249.427 248.400 C 248.661 247.089,248.603 246.230,248.480 234.601 C 248.374 224.553,248.227 221.821,247.705 220.200 L 247.060 218.200 245.590 221.329 C 243.625 225.512,242.308 226.370,237.826 226.388 C 232.908 226.407,231.516 225.569,229.674 221.482 L 228.228 218.274 227.626 219.637 C 227.148 220.720,226.977 223.673,226.796 234.000 C 226.497 251.063,226.256 251.600,218.879 251.600 C 214.817 251.600,213.297 250.911,211.822 248.399 C 211.015 247.025,210.998 246.443,210.878 215.518 C 210.727 176.675,210.815 175.679,214.482 174.504 C 216.297 173.922,221.378 173.901,223.266 174.467 M286.380 174.719 C 289.541 176.278,289.385 174.705,289.525 206.396 C 289.632 230.706,289.732 234.682,290.246 235.251 C 290.770 235.830,292.360 235.928,303.321 236.059 C 315.015 236.199,315.888 236.260,317.199 237.026 C 321.775 239.700,321.775 248.290,317.199 250.978 C 315.021 252.258,278.986 252.260,276.800 250.981 C 273.631 249.126,273.800 251.294,273.800 212.600 C 273.800 174.201,273.681 175.867,276.506 174.631 C 278.416 173.796,284.620 173.851,286.380 174.719 " stroke="none" fill="#84ccfc" fill-rule="evenodd"></path><path id="path1" d="M114.690 39.906 L 113.630 41.013 113.498 70.206 C 113.339 105.356,113.852 101.932,107.853 107.831 C 101.699 113.882,105.157 113.360,70.206 113.507 L 41.013 113.630 39.906 114.690 L 38.800 115.750 38.800 234.426 C 38.800 373.979,38.163 359.537,44.383 360.942 C 48.823 361.944,288.435 361.952,293.483 360.949 C 299.437 359.767,299.200 361.386,299.200 321.887 L 299.200 291.044 298.125 289.922 L 297.050 288.800 196.797 288.800 L 96.543 288.800 94.387 287.700 C 93.200 287.095,91.953 286.118,91.615 285.530 C 91.277 284.941,90.439 284.000,89.753 283.439 C 89.068 282.878,88.120 281.521,87.649 280.424 L 86.791 278.430 86.895 212.115 L 87.000 145.800 88.000 144.028 C 88.550 143.054,89.504 141.974,90.120 141.628 C 90.735 141.283,91.460 140.551,91.731 140.002 C 92.001 139.453,93.027 138.553,94.011 138.002 L 95.800 137.000 196.381 136.897 L 296.963 136.794 298.081 135.722 L 299.200 134.650 299.200 91.160 C 299.200 37.206,299.582 40.662,293.485 39.451 C 290.509 38.861,281.993 38.799,202.975 38.800 L 115.750 38.800 114.690 39.906 M217.939 41.006 C 218.056 41.123,217.713 41.508,217.176 41.862 C 216.639 42.217,213.860 44.953,211.000 47.943 C 208.140 50.933,204.642 54.464,203.227 55.790 C 200.497 58.346,194.153 64.649,188.200 70.719 C 182.544 76.486,174.811 84.233,170.352 88.600 C 168.106 90.800,164.543 94.383,162.434 96.563 C 160.325 98.742,156.822 102.252,154.649 104.363 C 149.684 109.185,142.874 115.954,138.200 120.714 C 136.220 122.730,132.208 126.721,129.285 129.582 L 123.969 134.785 116.885 135.013 C 112.988 135.138,108.292 135.096,106.448 134.920 L 103.096 134.600 107.472 129.917 C 109.879 127.341,112.473 124.731,113.237 124.117 C 114.626 123.001,121.799 115.825,125.202 112.148 C 126.193 111.076,130.288 107.020,134.302 103.133 C 138.316 99.246,141.600 95.871,141.600 95.631 C 141.600 95.392,142.046 94.271,142.591 93.141 L 143.583 91.086 142.323 89.643 C 141.631 88.849,140.507 87.817,139.826 87.350 C 137.498 85.750,137.334 82.000,139.593 82.000 C 140.208 82.000,149.051 73.033,150.134 71.311 C 152.170 68.074,154.880 67.978,156.569 71.082 C 156.904 71.697,157.698 72.816,158.335 73.569 L 159.492 74.938 162.001 74.000 C 164.499 73.065,168.141 69.797,175.202 62.151 C 176.193 61.078,180.288 57.020,184.302 53.133 C 188.316 49.246,191.600 45.910,191.600 45.718 C 191.600 45.198,195.250 41.828,196.400 41.286 C 198.046 40.511,217.195 40.261,217.939 41.006 M274.251 40.917 C 274.416 41.083,274.113 41.520,273.576 41.889 C 273.039 42.258,265.612 49.589,257.071 58.180 C 248.530 66.771,241.357 73.980,241.130 74.200 C 240.667 74.651,224.894 90.421,224.068 91.260 C 223.657 91.676,192.836 122.504,191.334 124.000 C 191.150 124.183,188.607 126.661,185.682 129.507 L 180.364 134.681 176.120 134.940 C 170.695 135.272,148.411 135.274,144.158 134.943 L 140.916 134.690 141.444 133.645 C 141.734 133.070,144.167 130.530,146.851 128.000 C 149.535 125.470,153.632 121.420,155.956 119.000 C 161.254 113.484,163.482 111.256,169.000 105.956 C 171.420 103.632,175.555 99.451,178.190 96.665 C 180.824 93.879,183.119 91.600,183.290 91.600 C 183.695 91.600,191.600 83.695,191.600 83.290 C 191.600 83.119,193.879 80.824,196.665 78.190 C 199.451 75.555,203.632 71.420,205.956 69.000 C 211.256 63.482,213.484 61.254,219.000 55.956 C 221.420 53.632,225.470 49.533,228.000 46.846 C 233.023 41.511,233.920 40.909,237.200 40.665 C 241.051 40.380,273.937 40.603,274.251 40.917 M297.395 46.900 C 297.523 47.615,297.576 67.730,297.514 91.600 L 297.400 135.000 254.800 135.120 C 231.370 135.187,210.708 135.125,208.885 134.983 L 205.570 134.726 206.307 133.463 C 206.713 132.768,207.898 131.555,208.941 130.766 C 209.984 129.978,211.414 128.463,212.119 127.400 C 212.824 126.336,213.670 125.337,214.000 125.180 C 214.330 125.022,215.125 124.647,215.767 124.346 C 216.409 124.046,217.545 122.847,218.291 121.681 C 219.139 120.358,220.375 119.116,221.585 118.371 C 223.545 117.165,224.800 115.710,224.800 114.644 C 224.800 114.323,225.359 113.642,226.043 113.130 C 226.726 112.619,227.929 111.600,228.715 110.868 L 230.145 109.535 227.472 107.053 C 223.435 103.303,224.153 101.480,230.956 98.208 C 232.922 97.263,234.283 96.309,234.852 95.477 C 236.203 93.505,238.098 91.600,238.709 91.600 C 239.604 91.600,241.600 89.341,241.600 88.329 C 241.600 86.856,244.438 82.338,245.897 81.487 C 247.467 80.571,249.341 81.440,250.766 83.745 C 252.509 86.565,254.364 86.509,256.212 83.581 C 256.762 82.709,257.975 81.452,258.906 80.787 C 259.838 80.123,261.230 78.655,262.000 77.525 C 262.770 76.396,263.670 75.342,264.000 75.182 C 264.330 75.023,265.125 74.647,265.767 74.346 C 266.409 74.046,267.537 72.858,268.274 71.707 C 269.111 70.402,270.402 69.111,271.707 68.274 C 272.858 67.537,274.046 66.409,274.346 65.767 C 274.647 65.125,275.023 64.330,275.182 64.000 C 275.342 63.670,276.396 62.770,277.525 62.000 C 278.655 61.230,280.128 59.831,280.799 58.891 C 281.470 57.950,282.905 56.636,283.988 55.969 C 285.227 55.207,286.407 54.028,287.168 52.791 C 287.833 51.709,289.087 50.376,289.955 49.829 C 290.822 49.281,291.816 48.421,292.164 47.917 C 292.728 47.099,295.406 45.750,296.682 45.641 C 296.947 45.618,297.268 46.185,297.395 46.900 M85.013 166.885 L 84.785 173.969 79.582 179.285 C 76.721 182.208,72.730 186.220,70.714 188.200 C 64.511 194.291,58.316 200.529,55.790 203.227 C 54.464 204.642,50.933 208.140,47.943 211.000 C 44.953 213.860,42.217 216.639,41.862 217.176 C 41.508 217.713,41.085 218.018,40.921 217.855 C 40.317 217.251,40.552 197.818,41.179 196.561 C 41.825 195.263,45.178 191.600,45.718 191.600 C 45.910 191.600,49.246 188.316,53.133 184.302 C 57.020 180.288,61.076 176.193,62.148 175.202 C 65.825 171.799,73.001 164.626,74.117 163.237 C 74.731 162.473,77.341 159.879,79.917 157.472 L 84.600 153.096 84.920 156.448 C 85.096 158.292,85.138 162.988,85.013 166.885 M85.153 208.838 C 85.179 216.009,85.083 223.785,84.940 226.120 L 84.681 230.364 79.507 235.682 C 76.661 238.607,74.213 241.122,74.066 241.271 C 73.920 241.420,66.771 248.530,58.180 257.071 C 49.589 265.612,42.258 273.039,41.889 273.576 C 40.681 275.333,40.600 274.142,40.600 254.667 C 40.600 231.870,39.996 234.450,46.846 228.000 C 49.533 225.470,53.632 221.420,55.956 219.000 C 61.255 213.483,63.483 211.255,69.000 205.956 C 71.420 203.632,75.470 199.533,78.000 196.847 C 84.042 190.433,84.517 190.194,84.853 193.392 C 84.993 194.716,85.128 201.667,85.153 208.838 M85.219 269.123 C 85.520 285.580,85.854 286.780,90.800 289.146 L 93.000 290.199 145.867 290.399 C 174.944 290.510,198.873 290.739,199.043 290.909 C 199.213 291.079,198.913 291.515,198.376 291.877 C 197.350 292.569,195.210 294.691,188.569 301.604 C 186.352 303.912,182.302 307.981,179.569 310.647 C 174.541 315.551,167.741 322.310,162.573 327.539 C 159.368 330.783,159.200 330.864,159.200 329.177 C 159.200 323.940,157.884 323.017,150.400 323.007 C 141.394 322.995,141.757 322.413,141.507 337.291 L 141.315 348.781 138.604 351.691 C 137.114 353.291,134.631 355.708,133.086 357.061 L 130.279 359.523 124.639 359.787 C 121.538 359.933,102.440 359.995,82.200 359.926 L 45.400 359.800 43.000 357.420 L 40.600 355.039 40.600 327.352 C 40.600 299.674,40.600 299.664,41.451 298.732 C 41.918 298.219,42.771 297.042,43.346 296.115 C 43.948 295.144,45.319 293.837,46.582 293.029 C 47.787 292.258,49.234 290.896,49.798 290.003 C 50.362 289.109,51.721 287.826,52.817 287.151 C 54.023 286.410,55.204 285.254,55.806 284.226 C 56.353 283.292,57.507 281.874,58.370 281.076 C 60.790 278.837,60.798 277.170,58.400 275.000 C 55.979 272.809,56.066 272.399,59.800 268.400 C 61.670 266.397,63.200 264.600,63.200 264.406 C 63.200 264.213,63.749 263.664,64.419 263.187 C 65.946 262.099,67.408 262.572,69.738 264.905 C 71.709 266.879,72.947 266.821,74.392 264.686 C 74.956 263.854,76.313 262.659,77.409 262.030 C 78.549 261.376,79.953 260.099,80.693 259.042 C 81.926 257.283,84.328 255.395,84.772 255.838 C 84.886 255.953,85.088 261.931,85.219 269.123 M51.710 323.164 C 47.865 324.150,47.800 324.394,47.800 337.800 C 47.800 352.696,47.744 352.600,56.400 352.600 C 65.088 352.600,65.000 352.755,65.000 337.400 C 65.000 325.164,64.959 324.922,62.688 323.735 C 61.234 322.976,53.929 322.596,51.710 323.164 M82.910 323.168 C 79.067 324.143,79.000 324.394,79.000 337.800 C 79.000 352.693,78.941 352.592,87.600 352.597 C 96.287 352.602,96.200 352.756,96.200 337.400 C 96.200 325.167,96.160 324.932,93.888 323.723 C 92.446 322.955,85.194 322.588,82.910 323.168 M114.110 323.165 C 110.265 324.149,110.200 324.394,110.200 337.800 C 110.200 352.747,110.112 352.600,119.000 352.600 C 127.488 352.600,127.400 352.755,127.400 337.800 C 127.400 325.773,127.327 325.229,125.529 323.950 C 124.142 322.962,116.859 322.461,114.110 323.165 M61.569 326.031 C 63.306 327.768,63.400 328.381,63.400 338.000 C 63.400 349.428,62.641 350.803,56.338 350.797 C 50.264 350.792,49.208 348.868,49.207 337.800 C 49.205 329.163,49.406 327.863,51.003 326.170 L 52.294 324.800 56.316 324.800 C 60.274 324.800,60.358 324.820,61.569 326.031 M92.769 326.031 C 94.499 327.760,94.600 328.399,94.600 337.600 C 94.600 349.326,93.852 350.800,87.900 350.800 C 81.644 350.800,80.671 349.347,80.460 339.690 C 80.250 330.065,80.518 327.956,82.180 326.194 L 83.494 324.800 87.516 324.800 C 91.474 324.800,91.558 324.820,92.769 326.031 M123.836 325.509 C 125.841 327.166,126.828 342.702,125.233 347.509 C 123.765 351.932,115.318 352.263,112.678 348.000 C 110.691 344.792,111.216 328.489,113.380 326.194 L 114.694 324.800 118.847 324.809 C 122.183 324.816,123.164 324.954,123.836 325.509 M155.035 325.459 C 157.222 326.893,157.400 327.807,157.400 337.600 C 157.400 349.676,156.789 350.797,150.200 350.797 C 143.984 350.797,143.108 349.469,142.874 339.690 C 142.645 330.095,142.914 327.960,144.580 326.194 L 145.894 324.800 149.961 324.800 C 153.065 324.800,154.266 324.956,155.035 325.459 M186.313 325.424 C 188.412 326.894,188.600 327.895,188.600 337.600 C 188.600 349.676,187.989 350.797,181.400 350.797 C 175.416 350.797,174.783 349.884,174.498 340.838 C 174.031 326.004,174.540 324.800,181.280 324.800 C 184.386 324.800,185.645 324.956,186.313 325.424 M217.513 325.424 C 219.612 326.894,219.800 327.895,219.800 337.600 C 219.800 349.695,219.196 350.795,212.554 350.799 C 206.433 350.801,205.805 349.611,205.802 338.000 C 205.799 325.374,206.092 324.800,212.547 324.800 C 215.592 324.800,216.847 324.958,217.513 325.424 M248.713 325.424 C 250.812 326.894,251.000 327.895,251.000 337.600 C 251.000 349.591,250.360 350.797,244.000 350.797 C 237.640 350.797,237.000 349.591,237.000 337.600 C 237.000 325.368,237.311 324.800,244.000 324.800 C 246.816 324.800,248.057 324.964,248.713 325.424 M279.913 325.424 C 282.012 326.894,282.200 327.895,282.200 337.600 C 282.200 349.591,281.560 350.797,275.200 350.797 C 268.840 350.797,268.200 349.591,268.200 337.600 C 268.200 325.368,268.511 324.800,275.200 324.800 C 278.016 324.800,279.257 324.964,279.913 325.424 " stroke="none" fill="#fcecdc" fill-rule="evenodd"></path><path id="path2" d="M88.452 22.412 C 85.609 22.825,85.000 23.490,85.000 26.179 C 85.000 27.363,84.910 28.325,84.800 28.318 C 79.790 27.999,78.400 28.842,78.400 32.200 C 78.400 34.378,78.388 34.400,77.200 34.400 C 76.540 34.400,76.000 34.569,76.000 34.775 C 76.000 34.981,75.407 35.053,74.681 34.936 C 72.902 34.647,72.356 35.402,72.108 38.496 L 71.907 41.000 70.054 40.888 C 67.333 40.724,66.208 41.456,66.166 43.416 C 66.090 46.982,65.719 47.378,62.600 47.220 C 60.589 47.119,59.882 47.973,59.681 50.746 L 59.504 53.200 57.852 53.206 C 56.648 53.211,56.363 53.316,56.800 53.595 C 57.216 53.860,56.966 53.908,55.981 53.750 C 54.164 53.458,53.397 54.265,53.750 56.101 C 53.927 57.025,53.885 57.227,53.606 56.800 C 53.314 56.355,53.211 56.628,53.206 57.852 L 53.200 59.504 50.746 59.681 C 47.973 59.882,47.119 60.589,47.220 62.600 C 47.378 65.719,46.982 66.090,43.416 66.166 C 41.456 66.208,40.724 67.333,40.888 70.054 L 41.000 71.907 38.496 72.108 C 35.402 72.356,34.647 72.902,34.936 74.681 C 35.053 75.407,34.981 76.000,34.775 76.000 C 34.569 76.000,34.400 76.540,34.400 77.200 C 34.400 78.388,34.378 78.400,32.200 78.400 C 28.842 78.400,27.999 79.790,28.318 84.800 C 28.325 84.910,27.363 85.000,26.179 85.000 C 23.457 85.000,22.849 85.585,22.400 88.641 C 21.765 92.958,21.926 370.618,22.565 373.343 C 23.251 376.266,23.734 376.748,26.657 377.436 C 30.160 378.260,307.440 378.260,310.943 377.436 C 315.857 376.280,315.600 378.856,315.600 330.768 L 315.600 290.800 346.171 290.800 C 373.451 290.800,376.811 290.732,377.372 290.170 C 378.223 289.320,378.150 134.930,377.300 135.100 C 377.025 135.155,376.800 135.033,376.800 134.830 C 376.800 134.626,375.765 134.464,374.500 134.470 C 373.235 134.476,359.465 134.463,343.900 134.441 L 315.600 134.400 315.600 81.832 C 315.600 19.397,315.941 23.737,310.943 22.566 C 308.315 21.950,92.657 21.801,88.452 22.412 M295.381 37.978 C 297.688 38.477,299.388 39.920,300.092 41.977 C 300.461 43.054,300.608 54.564,300.701 89.336 L 300.823 135.271 299.266 136.828 L 297.710 138.384 197.737 138.334 C 103.421 138.287,97.681 138.324,96.294 138.982 C 94.459 139.853,89.894 144.373,89.047 146.158 C 87.780 148.828,87.923 276.429,89.196 278.800 C 90.056 280.402,94.889 285.597,96.200 286.330 C 97.471 287.039,147.371 287.418,256.940 287.551 L 297.680 287.600 299.040 288.960 L 300.400 290.320 300.400 322.905 C 300.400 362.871,300.583 361.540,294.984 362.372 C 292.049 362.807,46.234 363.270,43.290 362.845 C 40.740 362.477,39.266 361.473,38.200 359.374 C 37.308 357.620,37.061 287.632,37.523 167.400 L 37.724 115.000 39.022 113.700 L 40.320 112.400 65.260 112.381 C 100.564 112.353,99.851 112.460,106.178 106.265 C 112.445 100.129,112.353 100.740,112.381 65.306 L 112.400 40.413 113.567 39.106 L 114.734 37.800 154.267 37.593 C 216.255 37.270,293.072 37.479,295.381 37.978 M99.323 45.600 C 100.194 46.990,100.201 47.155,100.322 68.800 C 100.492 99.222,100.526 99.052,93.912 99.977 C 87.581 100.862,47.306 100.381,45.646 99.400 C 42.869 97.759,42.809 97.061,45.248 94.757 C 46.432 93.639,48.781 91.391,50.468 89.762 C 52.156 88.133,53.725 86.800,53.956 86.800 C 54.186 86.800,55.073 85.855,55.927 84.700 C 56.780 83.545,57.981 82.150,58.595 81.600 C 60.490 79.904,61.745 78.590,63.128 76.854 C 63.858 75.937,65.040 74.943,65.753 74.645 C 66.487 74.339,67.692 73.211,68.525 72.051 C 69.336 70.923,70.923 69.336,72.051 68.525 C 73.211 67.692,74.339 66.487,74.645 65.753 C 74.943 65.040,75.937 63.858,76.854 63.128 C 78.590 61.745,79.904 60.490,81.600 58.595 C 82.150 57.981,83.545 56.780,84.700 55.927 C 85.855 55.073,86.800 54.181,86.800 53.945 C 86.800 53.709,88.195 52.104,89.900 50.379 C 91.605 48.654,93.835 46.319,94.856 45.190 C 96.973 42.851,97.638 42.912,99.323 45.600 M361.231 151.569 L 362.400 152.738 362.400 212.715 L 362.400 272.692 361.571 273.746 L 360.742 274.800 231.400 274.800 L 102.058 274.800 101.229 273.746 L 100.400 272.692 100.400 212.715 L 100.400 152.738 101.569 151.569 L 102.738 150.400 231.400 150.400 L 360.062 150.400 361.231 151.569 M177.248 327.349 C 175.438 329.276,174.706 337.694,175.831 343.656 C 176.714 348.337,177.215 348.800,181.400 348.800 C 185.585 348.800,186.086 348.337,186.969 343.656 C 188.088 337.723,187.332 329.244,185.512 327.306 C 184.214 325.925,178.558 325.954,177.248 327.349 M208.584 327.368 C 207.006 329.777,206.407 338.218,207.428 343.656 C 208.363 348.633,208.529 348.800,212.539 348.800 C 216.793 348.800,217.283 348.352,218.169 343.656 C 219.288 337.723,218.532 329.244,216.712 327.306 C 215.391 325.900,209.516 325.945,208.584 327.368 M240.048 327.349 C 238.238 329.276,237.506 337.694,238.631 343.656 C 239.504 348.286,240.041 348.800,244.000 348.800 C 247.959 348.800,248.496 348.286,249.369 343.656 C 250.488 337.723,249.732 329.244,247.912 327.306 C 246.621 325.932,241.352 325.961,240.048 327.349 M271.248 327.349 C 269.438 329.276,268.706 337.694,269.831 343.656 C 270.704 348.286,271.241 348.800,275.200 348.800 C 279.159 348.800,279.696 348.286,280.569 343.656 C 281.688 337.723,280.932 329.244,279.112 327.306 C 277.821 325.932,272.552 325.961,271.248 327.349 M52.599 327.601 C 50.931 329.444,50.269 338.623,51.412 344.055 C 52.259 348.081,52.624 348.400,56.400 348.400 C 60.176 348.400,60.541 348.081,61.388 344.055 C 62.531 338.623,61.827 329.398,60.126 327.519 C 59.131 326.419,53.614 326.479,52.599 327.601 M83.799 327.601 C 81.464 330.181,81.519 345.080,83.874 347.681 C 84.868 348.780,90.992 348.736,91.586 347.626 C 93.616 343.833,93.616 331.367,91.586 327.574 C 90.960 326.404,84.863 326.426,83.799 327.601 M114.999 327.601 C 113.331 329.444,112.669 338.623,113.812 344.055 C 114.667 348.122,115.000 348.400,119.000 348.400 C 123.000 348.400,123.333 348.122,124.188 344.055 C 125.331 338.623,124.627 329.398,122.926 327.519 C 121.926 326.413,116.019 326.474,114.999 327.601 M146.199 327.601 C 143.906 330.135,143.846 345.405,146.119 347.900 C 146.842 348.693,147.328 348.800,150.200 348.800 C 154.432 348.800,154.885 348.364,155.819 343.400 C 156.886 337.725,156.041 329.634,154.164 327.560 C 153.128 326.415,147.245 326.445,146.199 327.601 " stroke="none" fill="#8c6c9c" fill-rule="evenodd"></path><path id="path3" d="M154.267 37.593 L 114.734 37.800 113.567 39.106 L 112.400 40.413 112.381 65.306 C 112.353 100.740,112.445 100.129,106.178 106.265 C 99.851 112.460,100.564 112.353,65.260 112.381 L 40.320 112.400 39.022 113.700 L 37.724 115.000 37.523 167.400 C 37.061 287.632,37.308 357.620,38.200 359.374 C 39.266 361.473,40.740 362.477,43.290 362.845 C 46.234 363.270,292.049 362.807,294.984 362.372 C 300.583 361.540,300.400 362.871,300.400 322.905 L 300.400 290.320 299.040 288.960 L 297.680 287.600 256.940 287.551 C 147.371 287.418,97.471 287.039,96.200 286.330 C 94.889 285.597,90.056 280.402,89.196 278.800 C 87.923 276.429,87.780 148.828,89.047 146.158 C 89.894 144.373,94.459 139.853,96.294 138.982 C 97.681 138.324,103.421 138.287,197.737 138.334 L 297.710 138.384 299.266 136.828 L 300.823 135.271 300.701 89.336 C 300.608 54.564,300.461 43.054,300.092 41.977 C 299.388 39.920,297.688 38.477,295.381 37.978 C 293.072 37.479,216.255 37.270,154.267 37.593 M293.485 39.451 C 299.582 40.662,299.200 37.206,299.200 91.160 L 299.200 134.650 298.081 135.722 L 296.963 136.794 196.381 136.897 L 95.800 137.000 94.011 138.002 C 93.027 138.553,92.001 139.453,91.731 140.002 C 91.460 140.551,90.735 141.283,90.120 141.628 C 89.504 141.974,88.550 143.054,88.000 144.028 L 87.000 145.800 86.895 212.115 L 86.791 278.430 87.649 280.424 C 88.120 281.521,89.068 282.878,89.753 283.439 C 90.439 284.000,91.277 284.941,91.615 285.530 C 91.953 286.118,93.200 287.095,94.387 287.700 L 96.543 288.800 196.797 288.800 L 297.050 288.800 298.125 289.922 L 299.200 291.044 299.200 321.887 C 299.200 361.386,299.437 359.767,293.483 360.949 C 288.435 361.952,48.823 361.944,44.383 360.942 C 38.163 359.537,38.800 373.979,38.800 234.426 L 38.800 115.750 39.906 114.690 L 41.013 113.630 70.206 113.507 C 105.157 113.360,101.699 113.882,107.853 107.831 C 113.852 101.932,113.339 105.356,113.498 70.206 L 113.630 41.013 114.690 39.906 L 115.750 38.800 202.975 38.800 C 281.993 38.799,290.509 38.861,293.485 39.451 M95.584 45.997 C 94.823 46.922,92.850 49.065,91.200 50.760 C 89.550 52.455,87.883 54.319,87.495 54.903 C 87.107 55.486,85.814 56.611,84.622 57.403 C 83.430 58.194,82.102 59.439,81.671 60.169 C 81.241 60.899,80.404 61.834,79.811 62.248 C 77.387 63.940,75.911 65.406,75.171 66.856 C 74.741 67.699,73.897 68.694,73.295 69.068 C 71.547 70.153,70.374 71.291,69.352 72.892 C 68.829 73.712,67.708 74.737,66.862 75.168 C 65.407 75.911,63.941 77.385,62.248 79.811 C 61.834 80.404,60.913 81.233,60.200 81.653 C 59.487 82.074,58.149 83.494,57.226 84.808 C 56.304 86.123,55.156 87.404,54.675 87.654 C 54.194 87.905,52.540 89.328,51.000 90.817 C 49.460 92.305,47.333 94.308,46.273 95.266 L 44.345 97.009 45.673 98.005 L 47.000 99.000 68.963 99.116 C 91.645 99.236,95.985 98.989,97.482 97.489 C 98.921 96.047,99.200 91.683,99.200 70.630 C 99.200 48.344,99.129 47.025,97.836 45.404 L 96.968 44.316 95.584 45.997 M155.715 174.407 C 150.621 174.844,149.514 176.051,149.032 181.698 C 148.675 185.877,149.252 187.693,151.681 190.032 C 153.230 191.524,153.852 192.574,155.030 195.691 C 156.215 198.824,156.825 199.851,158.393 201.354 C 159.757 202.661,160.389 203.624,160.586 204.695 C 160.739 205.523,161.209 206.988,161.632 207.951 C 162.668 210.312,162.677 214.887,161.650 217.283 C 161.238 218.245,160.777 219.655,160.627 220.416 C 160.289 222.126,159.584 223.600,159.104 223.600 C 158.905 223.600,158.492 223.825,158.185 224.100 C 157.879 224.375,157.373 224.812,157.062 225.071 C 156.751 225.330,155.806 227.286,154.962 229.419 C 153.800 232.355,152.985 233.747,151.604 235.157 C 148.647 238.177,148.006 243.271,150.004 247.872 C 152.124 252.753,161.062 252.437,163.600 247.390 C 164.150 246.297,165.559 244.501,166.732 243.401 C 169.056 241.219,170.070 239.564,170.775 236.798 C 171.675 233.268,171.759 233.200,175.200 233.200 C 178.715 233.200,178.662 233.151,179.838 237.518 C 180.551 240.167,182.654 243.373,183.947 243.783 C 184.381 243.921,185.168 245.079,185.801 246.511 C 187.810 251.056,189.311 252.000,194.528 252.000 C 200.443 252.000,202.217 249.945,201.783 243.600 C 201.470 239.033,200.522 236.554,198.455 234.892 C 197.260 233.932,196.675 232.916,195.435 229.639 C 194.127 226.187,193.667 225.414,192.368 224.489 C 190.608 223.235,190.453 222.954,189.045 218.472 C 187.728 214.279,187.631 210.292,188.789 208.021 C 189.224 207.170,189.698 205.729,189.843 204.820 C 190.020 203.716,190.502 202.806,191.296 202.083 C 193.635 199.950,193.945 199.482,195.373 195.906 C 196.518 193.038,197.186 191.961,198.573 190.740 C 200.899 188.692,201.600 186.581,201.599 181.629 C 201.596 175.469,200.070 173.972,193.851 174.030 C 188.852 174.077,188.088 174.484,186.258 178.080 C 185.310 179.942,184.350 181.277,183.766 181.543 C 182.423 182.154,180.555 185.347,179.752 188.400 C 178.770 192.134,178.762 192.139,175.053 191.885 C 171.628 191.650,171.387 191.489,170.995 189.172 C 170.605 186.860,168.288 182.692,166.897 181.800 C 166.170 181.333,165.015 179.835,164.125 178.205 C 162.062 174.426,161.013 173.952,155.715 174.407 M214.482 174.504 C 210.815 175.679,210.727 176.675,210.878 215.518 C 210.998 246.443,211.015 247.025,211.822 248.399 C 213.297 250.911,214.817 251.600,218.879 251.600 C 226.256 251.600,226.497 251.063,226.796 234.000 C 226.977 223.673,227.148 220.720,227.626 219.637 L 228.228 218.274 229.674 221.482 C 231.516 225.569,232.908 226.407,237.826 226.388 C 242.308 226.370,243.625 225.512,245.590 221.329 L 247.060 218.200 247.705 220.200 C 248.227 221.821,248.374 224.553,248.480 234.601 C 248.603 246.230,248.661 247.089,249.427 248.400 C 252.099 252.975,260.690 252.975,263.378 248.399 C 264.680 246.183,264.668 179.499,263.366 177.000 C 262.171 174.707,260.910 174.200,256.400 174.200 C 251.220 174.200,250.612 174.550,248.600 178.698 C 247.720 180.512,246.598 182.276,246.106 182.617 C 244.859 183.482,243.338 186.228,242.793 188.600 C 242.540 189.700,242.182 190.960,241.998 191.400 C 241.813 191.840,241.555 192.695,241.423 193.300 C 241.186 194.392,241.162 194.400,237.866 194.400 L 234.547 194.400 233.703 192.300 C 233.239 191.145,232.734 189.570,232.581 188.800 C 232.171 186.740,230.868 184.370,229.361 182.942 C 228.630 182.251,227.311 180.166,226.429 178.310 C 224.955 175.206,224.700 174.897,223.266 174.467 C 221.378 173.901,216.297 173.922,214.482 174.504 M276.506 174.631 C 273.681 175.867,273.800 174.201,273.800 212.600 C 273.800 251.294,273.631 249.126,276.800 250.981 C 278.986 252.260,315.021 252.258,317.199 250.978 C 321.775 248.290,321.775 239.700,317.199 237.026 C 315.888 236.260,315.015 236.199,303.321 236.059 C 292.360 235.928,290.770 235.830,290.246 235.251 C 289.732 234.682,289.632 230.706,289.525 206.396 C 289.385 174.705,289.541 176.278,286.380 174.719 C 284.620 173.851,278.416 173.796,276.506 174.631 M197.341 177.904 C 197.444 178.071,197.657 179.685,197.815 181.490 L 198.101 184.773 196.279 186.544 C 194.548 188.226,191.600 193.571,191.600 195.028 C 191.600 195.363,190.799 196.451,189.819 197.444 C 188.693 198.587,187.733 200.085,187.207 201.525 C 185.933 205.009,185.141 206.313,183.503 207.630 L 182.000 208.838 182.000 212.655 L 182.000 216.471 183.701 218.136 C 184.636 219.051,185.733 220.610,186.138 221.600 C 187.610 225.202,188.226 226.231,189.897 227.885 C 190.834 228.812,191.600 229.919,191.600 230.345 C 191.600 232.008,194.661 237.811,196.181 239.030 C 197.763 240.300,198.346 241.996,198.383 245.438 C 198.410 247.985,197.494 248.574,193.970 248.279 C 190.587 247.995,190.244 247.755,189.373 245.069 C 188.573 242.603,186.397 239.152,185.109 238.308 C 184.252 237.747,183.679 236.676,181.750 232.029 C 180.366 228.697,178.763 227.600,175.276 227.600 C 170.833 227.600,170.254 228.148,167.396 235.069 C 167.017 235.986,165.873 237.630,164.853 238.721 C 162.448 241.295,162.230 241.578,160.695 244.123 C 159.273 246.479,159.439 246.453,155.879 244.890 C 152.133 243.247,151.624 241.248,154.367 238.958 C 155.757 237.797,157.546 234.377,158.374 231.297 C 158.662 230.229,159.615 228.717,160.928 227.245 C 162.359 225.641,163.246 224.189,163.728 222.663 C 164.217 221.111,165.037 219.783,166.413 218.314 L 168.393 216.200 168.397 212.519 L 168.400 208.838 166.859 207.600 C 165.417 206.441,164.845 205.445,162.951 200.800 C 162.548 199.810,161.455 198.248,160.524 197.330 C 159.592 196.411,158.719 195.151,158.584 194.530 C 157.941 191.581,155.821 187.494,154.302 186.273 C 151.778 184.245,152.399 182.317,156.462 179.558 C 159.305 177.627,159.311 177.628,160.239 179.697 C 161.286 182.032,164.694 187.200,165.187 187.200 C 165.770 187.200,167.480 190.048,168.444 192.627 C 169.879 196.460,171.410 197.600,175.124 197.600 C 179.096 197.600,180.092 196.782,182.541 191.506 C 183.607 189.208,184.666 187.518,185.297 187.104 C 186.749 186.153,188.828 182.381,190.148 178.300 C 190.386 177.564,196.909 177.205,197.341 177.904 M223.661 181.000 C 225.661 186.365,226.026 187.060,227.639 188.589 C 228.769 189.659,229.369 190.686,229.825 192.332 C 231.001 196.571,231.762 198.414,232.911 199.808 L 234.058 201.200 237.729 201.191 L 241.400 201.183 242.507 199.618 C 243.116 198.757,244.178 196.310,244.867 194.181 C 245.860 191.115,246.504 189.868,247.960 188.193 C 249.235 186.727,250.280 184.867,251.364 182.139 C 253.346 177.147,252.988 177.436,256.670 177.849 L 259.799 178.200 260.467 180.600 C 261.486 184.255,261.490 240.867,260.473 244.800 L 259.800 247.400 256.418 247.400 L 253.035 247.400 252.459 245.600 C 252.043 244.298,251.802 240.422,251.590 231.600 C 251.239 216.991,250.360 212.880,247.337 211.721 C 246.033 211.220,242.951 216.043,241.791 220.400 L 241.311 222.200 237.804 222.200 L 234.297 222.200 232.592 218.204 C 227.256 205.701,224.075 211.021,223.985 232.600 C 223.954 240.198,223.805 242.742,223.273 244.800 L 222.600 247.400 219.000 247.400 L 215.400 247.400 214.727 244.800 C 213.710 240.868,213.714 184.256,214.732 180.600 L 215.401 178.200 218.400 177.968 C 220.050 177.841,221.640 177.751,221.934 177.768 C 222.228 177.786,223.005 179.240,223.661 181.000 M285.673 180.400 C 286.268 182.699,286.349 185.979,286.373 208.740 C 286.408 242.262,284.745 238.886,301.400 239.233 C 309.592 239.404,313.083 239.624,314.400 240.051 L 316.200 240.635 316.200 244.018 L 316.200 247.400 313.600 248.073 C 311.405 248.641,308.820 248.745,297.000 248.745 C 285.180 248.745,282.595 248.641,280.400 248.073 L 277.800 247.400 277.127 244.800 C 276.228 241.325,276.073 185.054,276.951 180.963 C 277.701 177.469,277.583 177.554,281.533 177.685 L 285.000 177.800 285.673 180.400 M51.003 326.170 C 49.406 327.863,49.205 329.163,49.207 337.800 C 49.208 348.868,50.264 350.792,56.338 350.797 C 62.641 350.803,63.400 349.428,63.400 338.000 C 63.400 325.489,63.030 324.800,56.316 324.800 L 52.294 324.800 51.003 326.170 M82.180 326.194 C 80.518 327.956,80.250 330.065,80.460 339.690 C 80.671 349.347,81.644 350.800,87.900 350.800 C 93.852 350.800,94.600 349.326,94.600 337.600 C 94.600 325.541,94.190 324.800,87.516 324.800 L 83.494 324.800 82.180 326.194 M113.380 326.194 C 111.718 327.956,111.450 330.065,111.660 339.690 C 111.870 349.312,112.855 350.800,119.015 350.800 C 125.209 350.800,125.800 349.634,125.800 337.400 C 125.800 325.316,125.528 324.823,118.847 324.809 L 114.694 324.800 113.380 326.194 M144.580 326.194 C 142.914 327.960,142.645 330.095,142.874 339.690 C 143.108 349.469,143.984 350.797,150.200 350.797 C 156.789 350.797,157.400 349.676,157.400 337.600 C 157.400 325.306,157.106 324.800,149.961 324.800 L 145.894 324.800 144.580 326.194 M176.011 325.927 C 174.301 327.638,173.639 345.483,175.179 348.361 C 177.141 352.028,185.802 351.725,187.881 347.918 C 188.946 345.966,188.964 329.265,187.902 327.324 C 186.302 324.399,178.461 323.478,176.011 325.927 M207.435 326.031 C 205.904 327.851,205.800 328.612,205.802 338.000 C 205.805 349.611,206.433 350.801,212.554 350.799 C 219.196 350.795,219.800 349.695,219.800 337.600 C 219.800 325.282,219.527 324.800,212.547 324.800 C 208.487 324.800,208.467 324.805,207.435 326.031 M239.287 325.424 C 237.188 326.894,237.000 327.895,237.000 337.600 C 237.000 349.591,237.640 350.797,244.000 350.797 C 250.360 350.797,251.000 349.591,251.000 337.600 C 251.000 325.368,250.689 324.800,244.000 324.800 C 241.184 324.800,239.943 324.964,239.287 325.424 M270.487 325.424 C 268.388 326.894,268.200 327.895,268.200 337.600 C 268.200 349.591,268.840 350.797,275.200 350.797 C 281.560 350.797,282.200 349.591,282.200 337.600 C 282.200 325.368,281.889 324.800,275.200 324.800 C 272.384 324.800,271.143 324.964,270.487 325.424 M185.512 327.306 C 187.332 329.244,188.088 337.723,186.969 343.656 C 186.086 348.337,185.585 348.800,181.400 348.800 C 177.215 348.800,176.714 348.337,175.831 343.656 C 174.706 337.694,175.438 329.276,177.248 327.349 C 178.558 325.954,184.214 325.925,185.512 327.306 M216.712 327.306 C 218.532 329.244,219.288 337.723,218.169 343.656 C 217.283 348.352,216.793 348.800,212.539 348.800 C 208.529 348.800,208.363 348.633,207.428 343.656 C 206.407 338.218,207.006 329.777,208.584 327.368 C 209.516 325.945,215.391 325.900,216.712 327.306 M247.912 327.306 C 249.732 329.244,250.488 337.723,249.369 343.656 C 248.496 348.286,247.959 348.800,244.000 348.800 C 240.041 348.800,239.504 348.286,238.631 343.656 C 237.506 337.694,238.238 329.276,240.048 327.349 C 241.352 325.961,246.621 325.932,247.912 327.306 M279.112 327.306 C 280.932 329.244,281.688 337.723,280.569 343.656 C 279.696 348.286,279.159 348.800,275.200 348.800 C 271.241 348.800,270.704 348.286,269.831 343.656 C 268.706 337.694,269.438 329.276,271.248 327.349 C 272.552 325.961,277.821 325.932,279.112 327.306 M60.126 327.519 C 61.827 329.398,62.531 338.623,61.388 344.055 C 60.541 348.081,60.176 348.400,56.400 348.400 C 52.624 348.400,52.259 348.081,51.412 344.055 C 50.269 338.623,50.931 329.444,52.599 327.601 C 53.614 326.479,59.131 326.419,60.126 327.519 M91.586 327.574 C 93.616 331.367,93.616 343.833,91.586 347.626 C 90.992 348.736,84.868 348.780,83.874 347.681 C 81.519 345.080,81.464 330.181,83.799 327.601 C 84.863 326.426,90.960 326.404,91.586 327.574 M122.926 327.519 C 123.879 328.571,124.800 333.529,124.800 337.600 C 124.800 346.226,123.632 348.400,119.000 348.400 C 115.000 348.400,114.667 348.122,113.812 344.055 C 112.669 338.623,113.331 329.444,114.999 327.601 C 116.019 326.474,121.926 326.413,122.926 327.519 M154.164 327.560 C 156.041 329.634,156.886 337.725,155.819 343.400 C 154.885 348.364,154.432 348.800,150.200 348.800 C 147.328 348.800,146.842 348.693,146.119 347.900 C 143.846 345.405,143.906 330.135,146.199 327.601 C 147.245 326.445,153.128 326.415,154.164 327.560 " stroke="none" fill="#bcdcfc" fill-rule="evenodd"></path><path id="path4" d="M199.600 40.651 C 196.632 40.872,191.600 44.059,191.600 45.718 C 191.600 45.910,188.316 49.246,184.302 53.133 C 180.288 57.020,176.193 61.078,175.202 62.151 C 168.141 69.797,164.499 73.065,162.001 74.000 L 159.492 74.938 158.335 73.569 C 157.698 72.816,156.904 71.697,156.569 71.082 C 154.880 67.978,152.170 68.074,150.134 71.311 C 149.051 73.033,140.208 82.000,139.593 82.000 C 137.334 82.000,137.498 85.750,139.826 87.350 C 140.507 87.817,141.631 88.849,142.323 89.643 L 143.583 91.086 142.591 93.141 C 142.046 94.271,141.600 95.392,141.600 95.631 C 141.600 95.871,138.316 99.246,134.302 103.133 C 130.288 107.020,126.193 111.076,125.202 112.148 C 121.799 115.825,114.626 123.001,113.237 124.117 C 112.473 124.731,109.879 127.341,107.472 129.917 L 103.096 134.600 106.448 134.920 C 108.292 135.096,112.988 135.138,116.885 135.013 L 123.969 134.785 129.285 129.582 C 132.208 126.721,136.220 122.730,138.200 120.714 C 142.874 115.954,149.684 109.185,154.649 104.363 C 156.822 102.252,160.325 98.742,162.434 96.563 C 164.543 94.383,168.106 90.800,170.352 88.600 C 174.811 84.233,182.544 76.486,188.200 70.719 C 194.153 64.649,200.497 58.346,203.227 55.790 C 204.642 54.464,208.140 50.933,211.000 47.943 C 213.860 44.953,216.639 42.217,217.176 41.862 C 217.713 41.508,218.056 41.123,217.939 41.006 C 217.664 40.731,202.477 40.437,199.600 40.651 M237.200 40.665 C 233.920 40.909,233.023 41.511,228.000 46.846 C 225.470 49.533,221.420 53.632,219.000 55.956 C 213.484 61.254,211.256 63.482,205.956 69.000 C 203.632 71.420,199.451 75.555,196.665 78.190 C 193.879 80.824,191.600 83.119,191.600 83.290 C 191.600 83.695,183.695 91.600,183.290 91.600 C 183.119 91.600,180.824 93.879,178.190 96.665 C 175.555 99.451,171.420 103.632,169.000 105.956 C 163.482 111.256,161.254 113.484,155.956 119.000 C 153.632 121.420,149.535 125.470,146.851 128.000 C 144.167 130.530,141.734 133.070,141.444 133.645 L 140.916 134.690 144.158 134.943 C 148.411 135.274,170.695 135.272,176.120 134.940 L 180.364 134.681 185.682 129.507 C 188.607 126.661,191.150 124.183,191.334 124.000 C 192.836 122.504,223.657 91.676,224.068 91.260 C 224.894 90.421,240.667 74.651,241.130 74.200 C 241.357 73.980,248.530 66.771,257.071 58.180 C 265.612 49.589,273.039 42.258,273.576 41.889 C 274.113 41.520,274.416 41.083,274.251 40.917 C 273.937 40.603,241.051 40.380,237.200 40.665 M294.498 46.341 C 293.562 46.703,292.511 47.413,292.164 47.917 C 291.816 48.421,290.822 49.281,289.955 49.829 C 289.087 50.376,287.833 51.709,287.168 52.791 C 286.407 54.028,285.227 55.207,283.988 55.969 C 282.905 56.636,281.470 57.950,280.799 58.891 C 280.128 59.831,278.655 61.230,277.525 62.000 C 276.396 62.770,275.342 63.670,275.182 64.000 C 275.023 64.330,274.647 65.125,274.346 65.767 C 274.046 66.409,272.858 67.537,271.707 68.274 C 270.402 69.111,269.111 70.402,268.274 71.707 C 267.537 72.858,266.409 74.046,265.767 74.346 C 265.125 74.647,264.330 75.023,264.000 75.182 C 263.670 75.342,262.770 76.396,262.000 77.525 C 261.230 78.655,259.838 80.123,258.906 80.787 C 257.975 81.452,256.762 82.709,256.212 83.581 C 254.364 86.509,252.509 86.565,250.766 83.745 C 249.341 81.440,247.467 80.571,245.897 81.487 C 244.438 82.338,241.600 86.856,241.600 88.329 C 241.600 89.341,239.604 91.600,238.709 91.600 C 238.098 91.600,236.203 93.505,234.852 95.477 C 234.283 96.309,232.922 97.263,230.956 98.208 C 224.153 101.480,223.435 103.303,227.472 107.053 L 230.145 109.535 228.715 110.868 C 227.929 111.600,226.726 112.619,226.043 113.130 C 225.359 113.642,224.800 114.323,224.800 114.644 C 224.800 115.710,223.545 117.165,221.585 118.371 C 220.375 119.116,219.139 120.358,218.291 121.681 C 217.545 122.847,216.409 124.046,215.767 124.346 C 215.125 124.647,214.330 125.022,214.000 125.180 C 213.670 125.337,212.824 126.336,212.119 127.400 C 211.414 128.463,209.984 129.978,208.941 130.766 C 207.898 131.555,206.713 132.768,206.307 133.463 L 205.570 134.726 208.885 134.983 C 210.708 135.125,231.370 135.187,254.800 135.120 L 297.400 135.000 297.514 91.600 C 297.576 67.730,297.523 47.615,297.395 46.900 C 297.136 45.447,296.918 45.404,294.498 46.341 M79.917 157.472 C 77.341 159.879,74.731 162.473,74.117 163.237 C 73.001 164.626,65.825 171.799,62.148 175.202 C 61.076 176.193,57.020 180.288,53.133 184.302 C 49.246 188.316,45.910 191.600,45.718 191.600 C 45.178 191.600,41.825 195.263,41.179 196.561 C 40.552 197.818,40.317 217.251,40.921 217.855 C 41.085 218.018,41.508 217.713,41.862 217.176 C 42.217 216.639,44.953 213.860,47.943 211.000 C 50.933 208.140,54.464 204.642,55.790 203.227 C 58.316 200.529,64.511 194.291,70.714 188.200 C 72.730 186.220,76.721 182.208,79.582 179.285 L 84.785 173.969 85.013 166.885 C 85.138 162.988,85.096 158.292,84.920 156.448 L 84.600 153.096 79.917 157.472 M190.148 178.300 C 188.828 182.381,186.749 186.153,185.297 187.104 C 184.666 187.518,183.607 189.208,182.541 191.506 C 180.092 196.782,179.096 197.600,175.124 197.600 C 171.410 197.600,169.879 196.460,168.444 192.627 C 167.480 190.048,165.770 187.200,165.187 187.200 C 164.694 187.200,161.286 182.032,160.239 179.697 C 159.311 177.628,159.305 177.627,156.462 179.558 C 152.399 182.317,151.778 184.245,154.302 186.273 C 155.821 187.494,157.941 191.581,158.584 194.530 C 158.719 195.151,159.592 196.411,160.524 197.330 C 161.455 198.248,162.548 199.810,162.951 200.800 C 164.845 205.445,165.417 206.441,166.859 207.600 L 168.400 208.838 168.397 212.519 L 168.393 216.200 166.413 218.314 C 165.037 219.783,164.217 221.111,163.728 222.663 C 163.246 224.189,162.359 225.641,160.928 227.245 C 159.615 228.717,158.662 230.229,158.374 231.297 C 157.546 234.377,155.757 237.797,154.367 238.958 C 151.624 241.248,152.133 243.247,155.879 244.890 C 159.439 246.453,159.273 246.479,160.695 244.123 C 162.230 241.578,162.448 241.295,164.853 238.721 C 165.873 237.630,167.017 235.986,167.396 235.069 C 170.254 228.148,170.833 227.600,175.276 227.600 C 178.763 227.600,180.366 228.697,181.750 232.029 C 183.679 236.676,184.252 237.747,185.109 238.308 C 186.397 239.152,188.573 242.603,189.373 245.069 C 190.244 247.755,190.587 247.995,193.970 248.279 C 197.494 248.574,198.410 247.985,198.383 245.438 C 198.346 241.996,197.763 240.300,196.181 239.030 C 194.661 237.811,191.600 232.008,191.600 230.345 C 191.600 229.919,190.834 228.812,189.897 227.885 C 188.226 226.231,187.610 225.202,186.138 221.600 C 185.733 220.610,184.636 219.051,183.701 218.136 L 182.000 216.471 182.000 212.655 L 182.000 208.838 183.503 207.630 C 185.141 206.313,185.933 205.009,187.207 201.525 C 187.733 200.085,188.693 198.587,189.819 197.444 C 190.799 196.451,191.600 195.363,191.600 195.028 C 191.600 193.571,194.548 188.226,196.279 186.544 L 198.101 184.773 197.815 181.490 C 197.452 177.332,197.731 177.600,193.764 177.600 C 190.889 177.600,190.341 177.706,190.148 178.300 M218.400 177.968 L 215.401 178.200 214.732 180.600 C 213.714 184.256,213.710 240.868,214.727 244.800 L 215.400 247.400 219.000 247.400 L 222.600 247.400 223.273 244.800 C 223.805 242.742,223.954 240.198,223.985 232.600 C 224.075 211.021,227.256 205.701,232.592 218.204 L 234.297 222.200 237.804 222.200 L 241.311 222.200 241.791 220.400 C 242.951 216.043,246.033 211.220,247.337 211.721 C 250.360 212.880,251.239 216.991,251.590 231.600 C 251.802 240.422,252.043 244.298,252.459 245.600 L 253.035 247.400 256.418 247.400 L 259.800 247.400 260.473 244.800 C 261.490 240.867,261.486 184.255,260.467 180.600 L 259.799 178.200 256.670 177.849 C 252.988 177.436,253.346 177.147,251.364 182.139 C 250.280 184.867,249.235 186.727,247.960 188.193 C 246.504 189.868,245.860 191.115,244.867 194.181 C 244.178 196.310,243.116 198.757,242.507 199.618 L 241.400 201.183 237.729 201.191 L 234.058 201.200 232.911 199.808 C 231.762 198.414,231.001 196.571,229.825 192.332 C 229.369 190.686,228.769 189.659,227.639 188.589 C 226.026 187.060,225.661 186.365,223.661 181.000 C 223.005 179.240,222.228 177.786,221.934 177.768 C 221.640 177.751,220.050 177.841,218.400 177.968 M277.770 178.048 C 276.211 180.572,275.647 239.080,277.127 244.800 L 277.800 247.400 280.400 248.073 C 282.595 248.641,285.180 248.745,297.000 248.745 C 308.820 248.745,311.405 248.641,313.600 248.073 L 316.200 247.400 316.200 244.018 L 316.200 240.635 314.400 240.051 C 313.083 239.624,309.592 239.404,301.400 239.233 C 284.745 238.886,286.408 242.262,286.373 208.740 C 286.349 185.979,286.268 182.699,285.673 180.400 L 285.000 177.800 281.533 177.685 C 279.163 177.606,277.972 177.721,277.770 178.048 M83.600 191.474 C 83.050 191.743,80.530 194.162,78.000 196.847 C 75.470 199.533,71.420 203.632,69.000 205.956 C 63.483 211.255,61.255 213.483,55.956 219.000 C 53.632 221.420,49.533 225.470,46.846 228.000 C 39.996 234.450,40.600 231.870,40.600 254.667 C 40.600 274.142,40.681 275.333,41.889 273.576 C 42.258 273.039,49.589 265.612,58.180 257.071 C 66.771 248.530,73.920 241.420,74.066 241.271 C 74.213 241.122,76.661 238.607,79.507 235.682 L 84.681 230.364 84.940 226.120 C 85.262 220.860,85.198 196.668,84.853 193.392 C 84.600 190.984,84.599 190.983,83.600 191.474 M83.274 256.413 C 82.566 256.844,81.404 258.027,80.693 259.042 C 79.953 260.099,78.549 261.376,77.409 262.030 C 76.313 262.659,74.956 263.854,74.392 264.686 C 72.947 266.821,71.709 266.879,69.738 264.905 C 67.408 262.572,65.946 262.099,64.419 263.187 C 63.749 263.664,63.200 264.213,63.200 264.406 C 63.200 264.600,61.670 266.397,59.800 268.400 C 56.066 272.399,55.979 272.809,58.400 275.000 C 60.798 277.170,60.790 278.837,58.370 281.076 C 57.507 281.874,56.353 283.292,55.806 284.226 C 55.204 285.254,54.023 286.410,52.817 287.151 C 51.721 287.826,50.362 289.109,49.798 290.003 C 49.234 290.896,47.787 292.258,46.582 293.029 C 45.319 293.837,43.948 295.144,43.346 296.115 C 42.771 297.042,41.918 298.219,41.451 298.732 C 40.600 299.664,40.600 299.674,40.600 327.352 L 40.600 355.039 43.000 357.420 L 45.400 359.800 82.200 359.926 C 102.440 359.995,121.538 359.933,124.639 359.787 L 130.279 359.523 133.086 357.061 C 134.631 355.708,137.114 353.291,138.604 351.691 L 141.315 348.781 141.507 337.291 C 141.757 322.413,141.394 322.995,150.400 323.007 C 157.884 323.017,159.200 323.940,159.200 329.177 C 159.200 330.864,159.368 330.783,162.573 327.539 C 167.741 322.310,174.541 315.551,179.569 310.647 C 182.302 307.981,186.352 303.912,188.569 301.604 C 195.210 294.691,197.350 292.569,198.376 291.877 C 198.913 291.515,199.213 291.079,199.043 290.909 C 198.873 290.739,174.944 290.510,145.867 290.399 L 93.000 290.199 90.800 289.146 C 85.854 286.780,85.520 285.580,85.219 269.123 C 84.955 254.642,85.060 255.328,83.274 256.413 M62.688 323.735 C 64.959 324.922,65.000 325.164,65.000 337.400 C 65.000 352.755,65.088 352.600,56.400 352.600 C 47.744 352.600,47.800 352.696,47.800 337.800 C 47.800 326.081,47.912 325.138,49.416 324.152 C 51.712 322.648,60.103 322.385,62.688 323.735 M93.888 323.723 C 96.160 324.932,96.200 325.167,96.200 337.400 C 96.200 352.756,96.287 352.602,87.600 352.597 C 78.941 352.592,79.000 352.693,79.000 337.800 C 79.000 326.081,79.112 325.138,80.616 324.152 C 82.919 322.644,91.348 322.370,93.888 323.723 M125.529 323.950 C 127.327 325.229,127.400 325.773,127.400 337.800 C 127.400 352.755,127.488 352.600,119.000 352.600 C 110.112 352.600,110.200 352.747,110.200 337.800 C 110.200 326.081,110.312 325.138,111.816 324.152 C 114.364 322.483,123.285 322.351,125.529 323.950 " stroke="none" fill="#fcf4f0" fill-rule="evenodd"></path></g></svg>