<?xml version="1.0" encoding="UTF-8" standalone="no"?>
<svg
   xmlns:dc="http://purl.org/dc/elements/1.1/"
   xmlns:cc="http://creativecommons.org/ns#"
   xmlns:rdf="http://www.w3.org/1999/02/22-rdf-syntax-ns#"
   xmlns:svg="http://www.w3.org/2000/svg"
   xmlns="http://www.w3.org/2000/svg"
   xmlns:sodipodi="http://sodipodi.sourceforge.net/DTD/sodipodi-0.dtd"
   xmlns:inkscape="http://www.inkscape.org/namespaces/inkscape"
   width="256px"
   height="325px"
   viewBox="0 0 256 325"
   version="1.1"
   preserveAspectRatio="xMidYMid"
   id="svg68"
   sodipodi:docname="jhipster.svg"
   inkscape:version="1.0.1 (3bc2e813f5, 2020-09-07)">
  <metadata
     id="metadata74">
    <rdf:RDF>
      <cc:Work
         rdf:about="">
        <dc:format>image/svg+xml</dc:format>
        <dc:type
           rdf:resource="http://purl.org/dc/dcmitype/StillImage" />
      </cc:Work>
    </rdf:RDF>
  </metadata>
  <defs
     id="defs72" />
  <sodipodi:namedview
     pagecolor="#ffffff"
     bordercolor="#666666"
     borderopacity="1"
     objecttolerance="10"
     gridtolerance="10"
     guidetolerance="10"
     inkscape:pageopacity="0"
     inkscape:pageshadow="2"
     inkscape:window-width="1920"
     inkscape:window-height="1023"
     id="namedview70"
     showgrid="false"
     inkscape:zoom="2.6215385"
     inkscape:cx="128"
     inkscape:cy="101.46714"
     inkscape:window-x="0"
     inkscape:window-y="31"
     inkscape:window-maximized="1"
     inkscape:current-layer="svg68" />
  <g
     id="g66"
     transform="matrix(0.73918665,0,0,0.70314279,36.456101,27.321263)">
    <g
       transform="translate(0,245.83623)"
       fill="#495061"
       id="g6">
      <path
         d="m 255.38064,66.320516 c 0,0 0.80993,-21.863543 -15.40383,-35.984834 C 223.76369,16.213757 184.12625,-0.52406948 126.40683,0.34810918 68.68804,1.2202878 148.85987,65.017012 148.85987,65.017012 Z"
         id="path2" />
      <path
         d="m 0.00698759,66.320516 c 0,0 -0.80992555,-21.892764 15.40764241,-36.033112 C 31.632198,16.146422 71.279166,-0.61363772 129.01257,0.25917618 186.74596,1.1319901 106.55381,65.015107 106.55381,65.015107 c 0,0 -36.078852,0.442124 -66.247468,0.811831 -21.675513,0.264893 -40.29935441,0.493578 -40.29935441,0.493578 z"
         id="path4" />
    </g>
    <g
       transform="translate(37.478908)"
       id="g58">
      <path
         d="m 18.679107,130.21634 c 0,0 -7.281707,-2.92717 -12.7892013,0.52343 -5.50749379,3.4506 -7.5853499,18.53999 -2.8712655,25.13628 4.7147196,6.59565 9.5482288,14.5704 14.6161388,15.18658 5.068546,0.61554 10.962263,-1.0475 10.962263,-1.0475 l -2.08802,-20.16112 z"
         fill="#EBCFC2"
         id="path8" />
      <path
         d="m 158.12542,130.16171 c 0,0 7.28552,-2.91891 12.79619,0.52216 5.51067,3.44107 7.58979,18.48917 2.87253,25.0664 -4.71726,6.57787 -9.55331,14.53038 -14.62439,15.14466 -5.07109,0.61427 -10.96798,-1.04433 -10.96798,-1.04433 l 2.08929,-20.10585 z"
         fill="#EBCFC2"
         id="path10" />
      <path
         d="m 163.87049,165.93374 c 2.59621,0 4.70075,2.10453 4.70075,4.70011 0,2.59557 -2.10454,4.7001 -4.70075,4.7001 -2.59621,0 -4.70074,-2.10453 -4.70074,-4.7001 6.3e-4,-2.59558 2.10517,-4.70011 4.70074,-4.70011 z"
         fill="#4189C6"
         id="path12" />
      <path
         d="M 123.39645,221.81479 H 53.145727 v 52.92149 l 35.173003,15.88089 35.07772,-15.88089 z"
         fill="#F5E0D4"
         id="path14" />
      <path
         d="m 85.004705,29.37203 c 44.315945,-0.680973 69.464935,21.820347 79.910745,55.09463 12.83621,40.89076 -5.97947,87.46116 -21.41379,113.84504 -6.32505,10.81235 -11.96784,21.37441 -21.93596,28.4611 -6.71444,4.7738 -16.2144,7.69207 -25.853462,9.40022 -12.155236,2.15345 -28.762203,-2.54094 -35.51603,-6.52768 C 36.071861,215.40399 17.159623,168.66271 10.056417,136.42831 6.866263,121.95129 7.5040397,101.24959 11.362462,88.122442 18.939553,62.340764 33.173916,44.254968 57.062591,34.855385 c 5.880377,-2.314164 12.512238,-3.415663 19.324506,-4.70011 2.872536,-0.260446 5.745707,-0.522163 8.617608,-0.783245 z"
         fill="#F5E0D4"
         id="path16" />
      <path
         d="m 55.887405,121.28365 c 8.148803,0 14.75462,6.60518 14.75462,14.75272 0,8.14753 -6.605817,14.75271 -14.75462,14.75271 -8.148805,0 -14.754621,-6.60518 -14.754621,-14.75271 -6.35e-4,-8.14754 6.605816,-14.75272 14.754621,-14.75272 z"
         fill="#FFFFFF"
         id="path18" />
      <path
         d="m 61.765876,135.90551 c 0,3.46203 -2.807742,6.26977 -6.269777,6.26977 -2.566352,0 -4.77062,-1.54362 -5.736178,-3.74789 0.381141,0.22234 0.825806,0.34938 1.29588,0.34938 1.441986,0 2.610819,-1.16883 2.610819,-2.61082 0,-1.44198 -1.168833,-2.61081 -2.610819,-2.61081 -0.578064,0 -1.111662,0.19057 -1.549975,0.51454 0.78134,-2.56636 3.169827,-4.4276 5.990273,-4.4276 3.462035,0 6.269777,2.80139 6.269777,6.26343 z"
         fill="#333333"
         id="path20" />
      <path
         d="m 122.58716,121.28365 c 8.1488,0 14.75462,6.60518 14.75462,14.75272 0,8.14753 -6.60582,14.75271 -14.75462,14.75271 -8.14881,0 -14.75462,-6.60518 -14.75462,-14.75271 -6.4e-4,-8.14754 6.60581,-14.75272 14.75462,-14.75272 z"
         fill="#FFFFFF"
         id="path22" />
      <path
         d="m 128.46563,135.90551 c 0,3.46203 -2.80774,6.26977 -6.26978,6.26977 -2.56635,0 -4.77062,-1.54362 -5.73618,-3.74789 0.38114,0.22234 0.82581,0.34938 1.29588,0.34938 1.44199,0 2.61082,-1.16883 2.61082,-2.61082 0,-1.44198 -1.16883,-2.61081 -2.61082,-2.61081 -0.57806,0 -1.11166,0.19057 -1.54997,0.51454 0.78134,-2.56636 3.16982,-4.4276 5.99027,-4.4276 3.46204,0 6.26978,2.80139 6.26978,6.26343 z"
         fill="#333333"
         id="path24" />
      <path
         d="m 81.871087,136.42831 h 15.929806 v 6.52768 H 81.871087 Z"
         fill="#4189C6"
         id="path26" />
      <path
         d="M 77.170342,116.06074 H 34.863643 c -2.883971,0 -5.221638,2.33767 -5.221638,5.22164 v 32.37797 c 0,2.88397 2.337667,5.22163 5.221638,5.22163 h 42.306699 c 2.883971,0 5.221638,-2.33766 5.221638,-5.22163 v -32.37797 c 0,-2.88397 -2.337667,-5.22164 -5.221638,-5.22164 z m -1.092605,33.11484 c 0,2.13439 -1.765955,3.86859 -3.944814,3.86859 H 40.148804 c -2.185211,0 -3.951166,-1.7342 -3.951166,-3.86859 v -23.97379 c 0,-2.13439 1.765955,-3.86859 3.951166,-3.86859 h 31.984119 c 2.178859,0 3.944814,1.7342 3.944814,3.86859 z"
         fill="#4189C6"
         id="path28" />
      <path
         d="m 143.23486,116.06074 h -42.3067 c -2.883971,0 -5.221639,2.33767 -5.221639,5.22164 v 32.37797 c 0,2.88397 2.337668,5.22163 5.221639,5.22163 h 42.3067 c 2.88397,0 5.22164,-2.33766 5.22164,-5.22163 v -32.37797 c 0,-2.88397 -2.33767,-5.22164 -5.22164,-5.22164 z m -1.09261,33.11484 c 0,2.13439 -1.76595,3.86859 -3.94481,3.86859 h -31.98412 c -2.18521,0 -3.95117,-1.7342 -3.95117,-3.86859 v -23.97379 c 0,-2.13439 1.76596,-3.86859 3.95117,-3.86859 h 31.98412 c 2.17886,0 3.94481,1.7342 3.94481,3.86859 z"
         fill="#4189C6"
         id="path30" />
      <path
         d="m 57.03337,96.594581 c -15.689052,0.343027 -24.779276,5.446509 -24.779276,10.758989 0,5.31311 8.353985,3.80633 14.607246,1.3124 6.252625,-2.49394 14.529112,-2.30019 17.997499,0.26235 3.468387,2.56254 10.903186,3.28099 11.215722,-2.09946 C 76.387097,101.44842 62.382055,96.478332 57.03337,96.594581 Z"
         fill="#B08F7E"
         id="path32" />
      <path
         d="m 121.0429,96.478332 c 15.70811,0.341122 24.80913,5.419198 24.80913,10.705628 0,5.28643 -8.36351,3.78728 -14.6244,1.30541 -6.26025,-2.48123 -14.5469,-2.28875 -18.01909,0.26108 -3.4722,2.54984 -10.9159,3.26511 -11.22907,-2.08865 -0.31317,-5.3544 13.70776,-10.300351 19.06343,-10.183468 z"
         fill="#B08F7E"
         id="path34" />
      <path
         d="m 160.39893,161.60079 c -4.88496,14.15941 -11.12933,26.84507 -16.89727,36.71028 -6.32695,10.81171 -11.96784,21.37568 -21.93469,28.46491 -6.71444,4.77062 -16.21757,7.68635 -25.854097,9.39514 -12.158411,2.15345 -28.763474,-2.54095 -35.516029,-6.52387 C 42.899375,219.43901 28.2826,192.51772 18.773122,166.21896 c -0.03176,-1.80407 0.08893,-3.5065 0.425607,-4.9866 0.260447,-0.0826 0.520894,-0.17152 0.78134,-0.26045 3.874938,-1.4928 7.851514,2.64258 9.922383,4.17985 7.591067,5.62819 13.047741,12.74918 19.844764,19.05707 -1.429281,-5.19623 2.820446,-16.80198 8.099255,-12.2664 2.388487,1.73419 0.34938,7.78164 1.041787,10.96417 11.523176,7.75623 12.704715,-6.31424 18.282084,-9.14104 3.747891,-0.71782 7.27345,2.47106 10.970521,3.13806 6.028388,1.0799 8.925063,-3.0936 14.102237,-3.39851 5.18987,2.99831 5.22799,12.8 14.36268,10.97052 2.26779,-0.45737 3.28416,-0.31762 4.17349,-2.08992 1.72785,-3.29052 -1.06084,-8.55663 0.7877,-10.71008 1.84218,-2.14709 2.08992,-0.34303 3.13171,-0.52089 3.78601,1.75325 7.23533,7.11464 5.22164,12.79365 2.17886,-2.35038 4.35136,-4.70075 6.53022,-7.04477 6.61916,-6.70809 12.63484,-11.96784 21.67424,-16.4526 0.5209,0.0889 1.04814,0.17151 1.56904,0.26044 0.23503,0.29857 0.47007,0.59077 0.70511,0.88933 z"
         fill="#B08F7E"
         id="path36" />
      <path
         d="m 69.074898,193.61159 c 0,0 5.305489,9.19695 20.108387,8.87806 14.802895,-0.31953 19.847305,-8.87806 19.847305,-8.87806 0,0 -9.677816,-3.13298 -17.496932,-3.13298 -3.359127,0 -6.820526,1.86061 -11.229062,2.61145 -4.409172,0.75022 -11.229698,0.52153 -11.229698,0.52153 z"
         fill="#EBCFC2"
         id="path38" />
      <path
         d="m 113.93588,233.88427 c -3.95498,1.42547 -7.90995,2.85792 -11.86493,4.28339 0.65683,5.4516 1.32129,10.90319 1.97749,16.35478 3.42519,1.81487 6.858,3.63673 10.28319,5.4516 3.02182,-1.69799 6.04364,-3.39534 9.06482,-5.10095 v -17.97463 c -3.15649,-1.00494 -6.30472,-2.00988 -9.46057,-3.01419 z m 5.72665,19.04945 c 0,-0.047 -1.77167,-3.47347 -1.77167,-3.47347 h -6.32822 c -0.65683,1.1682 -1.32065,2.33639 -1.97749,3.50459 h -2.76836 c 2.37324,-5.45159 7.51484,-16.35478 7.51484,-16.35478 l 7.90996,16.35478 -2.57906,-0.0311 z"
         fill="#979A9B"
         id="path40" />
      <path
         d="m 116.70043,246.73318 h -4.3501 l 1.98321,-5.45096 z"
         fill="#979A9B"
         id="path42" />
      <path
         d="m 70.123037,235.87383 c -3.454412,-0.85313 -8.764347,-0.48469 -12.940387,-0.43895 -1.536,1.03035 -2.87063,2.6845 -4.037558,4.54384 0,3.4271 0.247106,12.48873 0.247106,16.23917 1.07609,1.55696 2.202363,2.85348 3.131713,3.56303 h 12.940387 c 2.015603,-0.94777 2.662908,-3.3623 3.728834,-5.2642 1.168833,-1.97431 2.340208,-3.94799 3.509042,-5.9223 0.623801,-2.47361 -5.346779,-11.05564 -6.579137,-12.72059 z m -7.676824,3.72883 h 1.096417 c 0.14674,0.21916 0.291573,0.43895 0.438948,0.6581 0.07242,2.48505 0.14674,4.97199 0.219156,7.45767 -0.701935,0.43196 -0.691136,0.59204 -1.535364,0.43895 -1.269837,-0.92681 -0.914104,-7.20421 -0.219157,-8.55472 z m 2.193469,15.13386 c -8.567424,2.10136 -9.751503,-7.22708 -7.457667,-12.28292 0.511365,-0.43895 1.024,-0.87726 1.535365,-1.31621 0.438948,0.0724 0.87726,0.14674 1.316208,0.21916 0.07242,0.21915 0.146739,0.43894 0.219156,0.6581 -2.206809,3.30513 -4.928158,9.08895 1.316209,10.74755 7.347772,1.95208 8.459434,-7.50785 4.386938,-10.3086 v -0.87726 c 0.291573,-0.21916 0.585687,-0.43895 0.87726,-0.65811 5.983286,3.10186 3.792358,12.35089 -2.193469,13.81829 z"
         fill="#979A9B"
         id="path44" />
      <path
         d="m 123.65435,248.18406 -37.865764,44.389 23.242004,5.74444 25.85346,-28.72218 c 0,0 -0.0286,-8.32985 -2.08929,-12.27212 -2.06071,-3.94228 -9.14041,-9.13914 -9.14041,-9.13914 z"
         fill="#FFFFFF"
         id="path46" />
      <path
         d="m 53.145092,248.18406 37.865767,44.389 -23.242005,5.74444 -25.85346,-28.72218 c 0,0 0.02859,-8.32985 2.089291,-12.27212 2.060705,-3.94228 9.140407,-9.13914 9.140407,-9.13914 z"
         fill="#FFFFFF"
         id="path48" />
      <path
         d="m 8.4892903,124.93943 c 0,0 3.8959007,-10.81171 4.1785807,-15.14465 0.28268,-4.33294 3.284804,-29.819872 12.535107,-42.56143 5.950888,-9.171534 14.658699,-11.073429 23.242005,-9.139137 8.583305,1.934928 18.527285,7.09876 28.725995,5.744437 10.198709,-1.354323 36.092192,-14.36395 46.745092,-9.400218 10.6529,4.964367 28.5513,13.637876 30.5542,30.027593 2.00227,16.389715 13.57944,42.300345 13.57944,42.300345 0,0 5.99726,-41.84107 6.00615,-53.005973 0.009,-11.164903 -29.0614,-43.932268 -34.99323,-50.394521 C 133.1308,16.903623 113.93779,0.06987593 102.50164,0.64984615 91.065489,1.2304516 75.664834,10.513787 69.597062,11.094392 63.52929,11.674998 59.54128,8.8126253 52.88401,10.050065 46.226739,11.287504 39.168,10.920973 18.935107,31.983484 -1.2971514,53.045995 0.80929032,84.614035 2.2220546,102.22277 c 1.4127643,17.60873 6.2672357,22.71666 6.2672357,22.71666 z"
         fill="#B08F7E"
         id="path50" />
      <path
         d="m 63.590908,56.527722 c 0,0 -4.975166,-7.453856 1.306045,-21.150174 6.280575,-13.696317 6.528317,-20.105846 6.528317,-20.105846 0,0 -3.55732,8.866621 -8.356526,20.105846 -4.799841,11.239226 0.522164,21.150174 0.522164,21.150174 z"
         fill="#D5AD98"
         id="path52" />
      <path
         d="m 81.871087,58.617012 c 0,0 14.104774,-16.280456 23.242003,-23.49991 9.13723,-7.219454 20.36947,-15.405737 20.36947,-15.405737 0,0 -8.87297,2.18394 -22.19704,13.578164 C 89.960814,44.683117 81.871087,58.617012 81.871087,58.617012 Z"
         fill="#D5AD98"
         id="path54" />
      <path
         d="m 72.208516,56.26664 c 0,0 -0.304278,-15.137032 7.051117,-31.855801 C 86.614392,7.6927047 101.45731,5.0888735 101.45731,5.0888735 c 0,0 -10.866977,4.9446745 -18.54126,19.8447645 C 75.241767,39.833092 72.208516,56.26664 72.208516,56.26664 Z"
         fill="#D5AD98"
         id="path56" />
    </g>
    <g
       transform="translate(69.875931,278.86849)"
       id="g64">
      <path
         d="m 65.358769,19.11996 c 0,0 -55.4141536,-32.151821 -60.203831,-12.1596821 C 0.36526055,26.952417 -5.0177271,42.164407 9.7394342,44.97596 24.496596,47.787514 65.358769,19.11996 65.358769,19.11996 Z"
         fill="#3373AA"
         id="path60" />
      <path
         d="M 55.779414,14.288357 C 71.686352,6.065866 103.08796,-8.0103226 106.68212,6.8961191 111.52008,26.960675 116.93673,42.223484 102.21515,45.089032 91.869697,47.10273 68.611176,33.538541 55.698104,25.297628 c -0.01334,-9.746422 0.09529,-1.405777 0.08131,-11.009271 z"
         fill="#4189C6"
         id="path62" />
    </g>
  </g>
</svg>
